<ttFont>
<head>
    <!-- Most of this table will be recalculated by the compiler -->
    <tableVersion value="1.0"/>
    <fontRevision value="1.00099"/>
    <checkSumAdjustment value="0x26f3b63c"/>
    <magicNumber value="0x5f0f3cf5"/>
    <flags value="00000000 00000001"/>
    <unitsPerEm value="1000"/>
    <created value="Fri Mar 11 14:19:22 2016"/>
    <modified value="Fri Mar 11 14:19:23 2016"/>
    <xMin value="-503"/>
    <yMin value="-423"/>
    <xMax value="1151"/>
    <yMax value="927"/>
    <macStyle value="00000000 00000001"/>
    <lowestRecPPEM value="6"/>
    <fontDirectionHint value="2"/>
    <indexToLocFormat value="0"/>
    <glyphDataFormat value="0"/>
  </head>
    <TTGlyph name=".notdef" xMin="64" yMin="0" xMax="579" yMax="515">
      <contour>
        <pt x="64" y="0" on="1"/>
        <pt x="64" y="515" on="1"/>
        <pt x="579" y="515" on="1"/>
        <pt x="579" y="0" on="1"/>
      </contour>
      <contour>
        <pt x="160" y="141" on="1"/>
        <pt x="203" y="92" on="1"/>
        <pt x="321" y="220" on="1"/>
        <pt x="444" y="92" on="1"/>
        <pt x="485" y="133" on="1"/>
        <pt x="358" y="257" on="1"/>
        <pt x="485" y="379" on="1"/>
        <pt x="441" y="421" on="1"/>
        <pt x="322" y="293" on="1"/>
        <pt x="201" y="421" on="1"/>
        <pt x="160" y="379" on="1"/>
        <pt x="285" y="256" on="1"/>
      </contour>
    </TTGlyph>
    <TTGlyph name="A" xMin="-6" yMin="0" xMax="588" yMax="570">
      <contour>
        <pt x="334" y="228" on="1"/>
        <pt x="260" y="467" on="1"/>
        <pt x="187" y="228" on="1"/>
      </contour>
      <contour>
        <pt x="206" y="52" on="1"/>
        <pt x="206" y="0" on="1"/>
        <pt x="-6" y="0" on="1"/>
        <pt x="-6" y="52" on="1"/>
        <pt x="43" y="64" on="1"/>
        <pt x="50" y="66" on="0"/>
        <pt x="60" y="75" on="0"/>
        <pt x="62" y="82" on="1"/>
        <pt x="228" y="570" on="1"/>
        <pt x="357" y="570" on="1"/>
        <pt x="523" y="82" on="1"/>
        <pt x="526" y="75" on="0"/>
        <pt x="536" y="66" on="0"/>
        <pt x="543" y="64" on="1"/>
        <pt x="588" y="52" on="1"/>
        <pt x="588" y="0" on="1"/>
        <pt x="315" y="0" on="1"/>
        <pt x="315" y="52" on="1"/>
        <pt x="385" y="64" on="1"/>
        <pt x="353" y="166" on="1"/>
        <pt x="168" y="166" on="1"/>
        <pt x="137" y="64" on="1"/>
      </contour>
    </TTGlyph>
    <TTGlyph name="AE" xMin="-7" yMin="0" xMax="753" yMax="568">
      <contour>
        <pt x="329" y="506" on="1"/>
        <pt x="226" y="261" on="1"/>
        <pt x="364" y="261" on="1"/>
        <pt x="364" y="506" on="1"/>
      </contour>
      <contour>
        <pt x="215" y="52" on="1"/>
        <pt x="215" y="0" on="1"/>
        <pt x="-7" y="0" on="1"/>
        <pt x="-7" y="52" on="1"/>
        <pt x="48" y="64" on="1"/>
        <pt x="55" y="66" on="0"/>
        <pt x="64" y="74" on="0"/>
        <pt x="67" y="81" on="1"/>
        <pt x="248" y="498" on="1"/>
        <pt x="155" y="513" on="1"/>
        <pt x="155" y="568" on="1"/>
        <pt x="721" y="568" on="1"/>
        <pt x="725" y="530" on="0"/>
        <pt x="726" y="453" on="0"/>
        <pt x="723" y="413" on="1"/>
        <pt x="658" y="413" on="1"/>
        <pt x="639" y="480" on="1"/>
        <pt x="636" y="490" on="0"/>
        <pt x="625" y="500" on="0"/>
        <pt x="617" y="504" on="1"/>
        <pt x="608" y="507" on="0"/>
        <pt x="575" y="512" on="0"/>
        <pt x="557" y="512" on="1"/>
        <pt x="495" y="512" on="1"/>
        <pt x="495" y="317" on="1"/>
        <pt x="652" y="323" on="1"/>
        <pt x="652" y="249" on="1"/>
        <pt x="495" y="253" on="1"/>
        <pt x="495" y="59" on="1"/>
        <pt x="572" y="59" on="1"/>
        <pt x="590" y="59" on="0"/>
        <pt x="628" y="63" on="0"/>
        <pt x="638" y="67" on="1"/>
        <pt x="646" y="71" on="0"/>
        <pt x="654" y="81" on="0"/>
        <pt x="657" y="91" on="1"/>
        <pt x="689" y="181" on="1"/>
        <pt x="753" y="171" on="1"/>
        <pt x="753" y="127" on="0"/>
        <pt x="747" y="44" on="0"/>
        <pt x="740" y="0" on="1"/>
        <pt x="290" y="0" on="1"/>
        <pt x="290" y="52" on="1"/>
        <pt x="347" y="63" on="1"/>
        <pt x="355" y="64" on="0"/>
        <pt x="364" y="75" on="0"/>
        <pt x="364" y="83" on="1"/>
        <pt x="364" y="199" on="1"/>
        <pt x="200" y="199" on="1"/>
        <pt x="143" y="63" on="1"/>
      </contour>
    </TTGlyph>
    <TTGlyph name="Aacute" xMin="-6" yMin="0" xMax="588" yMax="776">
      <component glyphName="A" x="0" y="0" flags="0x204"/>
      <component glyphName="acutecomb.case" x="293" y="0" flags="0x4"/>
    </TTGlyph>
    <TTGlyph name="Abreve" xMin="-6" yMin="0" xMax="588" yMax="759">
      <component glyphName="A" x="0" y="0" flags="0x204"/>
      <component glyphName="uni0306.case" x="293" y="0" flags="0x4"/>
    </TTGlyph>
    <TTGlyph name="Acircumflex" xMin="-6" yMin="0" xMax="588" yMax="764">
      <component glyphName="A" x="0" y="0" flags="0x204"/>
      <component glyphName="uni0302.case" x="293" y="0" flags="0x4"/>
    </TTGlyph>
    <TTGlyph name="Adieresis" xMin="-6" yMin="0" xMax="588" yMax="738">
      <component glyphName="A" x="0" y="0" flags="0x204"/>
      <component glyphName="uni0308.case" x="293" y="0" flags="0x4"/>
    </TTGlyph>
    <TTGlyph name="Agrave" xMin="-6" yMin="0" xMax="588" yMax="780">
      <component glyphName="A" x="0" y="0" flags="0x204"/>
      <component glyphName="gravecomb.case" x="293" y="0" flags="0x4"/>
    </TTGlyph>
    <TTGlyph name="Amacron" xMin="-6" yMin="0" xMax="588" yMax="710">
      <component glyphName="A" x="0" y="0" flags="0x204"/>
      <component glyphName="uni0304.case" x="293" y="0" flags="0x4"/>
    </TTGlyph>
    <TTGlyph name="Aogonek" xMin="-6" yMin="-189" xMax="588" yMax="570">
      <contour>
        <pt x="334" y="228" on="1"/>
        <pt x="260" y="467" on="1"/>
        <pt x="187" y="228" on="1"/>
      </contour>
      <contour>
        <pt x="564" y="-161" on="1"/>
        <pt x="542" y="-174" on="0"/>
        <pt x="484" y="-189" on="0"/>
        <pt x="457" y="-189" on="1"/>
        <pt x="414" y="-188" on="0"/>
        <pt x="355" y="-150" on="0"/>
        <pt x="355" y="-112" on="1"/>
        <pt x="355" y="-73" on="0"/>
        <pt x="418" y="-15" on="0"/>
        <pt x="459" y="-2" on="1"/>
        <pt x="459" y="0" on="1"/>
        <pt x="315" y="0" on="1"/>
        <pt x="315" y="52" on="1"/>
        <pt x="385" y="64" on="1"/>
        <pt x="353" y="166" on="1"/>
        <pt x="168" y="166" on="1"/>
        <pt x="137" y="64" on="1"/>
        <pt x="206" y="52" on="1"/>
        <pt x="206" y="0" on="1"/>
        <pt x="-6" y="0" on="1"/>
        <pt x="-6" y="52" on="1"/>
        <pt x="43" y="64" on="1"/>
        <pt x="50" y="66" on="0"/>
        <pt x="60" y="75" on="0"/>
        <pt x="62" y="82" on="1"/>
        <pt x="228" y="570" on="1"/>
        <pt x="357" y="570" on="1"/>
        <pt x="523" y="82" on="1"/>
        <pt x="526" y="75" on="0"/>
        <pt x="536" y="66" on="0"/>
        <pt x="543" y="64" on="1"/>
        <pt x="588" y="52" on="1"/>
        <pt x="588" y="0" on="1"/>
        <pt x="542" y="0" on="1"/>
        <pt x="503" y="-13" on="0"/>
        <pt x="457" y="-59" on="0"/>
        <pt x="457" y="-82" on="1"/>
        <pt x="457" y="-101" on="0"/>
        <pt x="484" y="-119" on="0"/>
        <pt x="504" y="-119" on="1"/>
        <pt x="514" y="-119" on="0"/>
        <pt x="534" y="-114" on="0"/>
        <pt x="544" y="-110" on="1"/>
      </contour>
    </TTGlyph>
    <TTGlyph name="Aring" xMin="-6" yMin="0" xMax="588" yMax="750">
      <component glyphName="A" x="0" y="0" flags="0x204"/>
      <component glyphName="uni030A.case.low" x="293" y="0" flags="0x4"/>
    </TTGlyph>
    <TTGlyph name="Atilde" xMin="-6" yMin="0" xMax="588" yMax="747">
      <component glyphName="A" x="0" y="0" flags="0x204"/>
      <component glyphName="tildecomb.case" x="293" y="0" flags="0x4"/>
    </TTGlyph>
    <TTGlyph name="B" xMin="32" yMin="-4" xMax="549" yMax="572">
      <contour>
        <pt x="305" y="-4" on="1"/>
        <pt x="265" y="-4" on="0"/>
        <pt x="211" y="0" on="0"/>
        <pt x="176" y="0" on="1"/>
        <pt x="32" y="0" on="1"/>
        <pt x="32" y="52" on="1"/>
        <pt x="91" y="63" on="1"/>
        <pt x="98" y="64" on="0"/>
        <pt x="106" y="74" on="0"/>
        <pt x="106" y="81" on="1"/>
        <pt x="106" y="484" on="1"/>
        <pt x="106" y="491" on="0"/>
        <pt x="98" y="500" on="0"/>
        <pt x="91" y="501" on="1"/>
        <pt x="32" y="513" on="1"/>
        <pt x="32" y="568" on="1"/>
        <pt x="174" y="568" on="1"/>
        <pt x="209" y="568" on="0"/>
        <pt x="270" y="572" on="0"/>
        <pt x="308" y="572" on="1"/>
        <pt x="427" y="572" on="0"/>
        <pt x="511" y="505" on="0"/>
        <pt x="511" y="439" on="1"/>
        <pt x="511" y="383" on="0"/>
        <pt x="457" y="315" on="0"/>
        <pt x="411" y="303" on="1"/>
        <pt x="471" y="299" on="0"/>
        <pt x="549" y="231" on="0"/>
        <pt x="549" y="168" on="1"/>
        <pt x="549" y="94" on="0"/>
        <pt x="445" y="-4" on="0"/>
      </contour>
      <contour>
        <pt x="298" y="321" on="1"/>
        <pt x="338" y="321" on="0"/>
        <pt x="375" y="376" on="0"/>
        <pt x="375" y="427" on="1"/>
        <pt x="375" y="477" on="0"/>
        <pt x="334" y="521" on="0"/>
        <pt x="291" y="521" on="1"/>
        <pt x="285" y="521" on="0"/>
        <pt x="250" y="519" on="0"/>
        <pt x="243" y="518" on="1"/>
        <pt x="243" y="322" on="1"/>
        <pt x="259" y="321" on="0"/>
        <pt x="288" y="321" on="0"/>
      </contour>
      <contour>
        <pt x="298" y="49" on="1"/>
        <pt x="351" y="49" on="0"/>
        <pt x="397" y="110" on="0"/>
        <pt x="397" y="164" on="1"/>
        <pt x="397" y="219" on="0"/>
        <pt x="350" y="263" on="0"/>
        <pt x="304" y="263" on="1"/>
        <pt x="291" y="263" on="0"/>
        <pt x="260" y="262" on="0"/>
        <pt x="243" y="261" on="1"/>
        <pt x="243" y="54" on="1"/>
        <pt x="253" y="52" on="0"/>
        <pt x="284" y="49" on="0"/>
      </contour>
    </TTGlyph>
    <TTGlyph name="C" xMin="34" yMin="-13" xMax="496" yMax="579">
      <contour>
        <pt x="294" y="-13" on="1"/>
        <pt x="163" y="-13" on="0"/>
        <pt x="34" y="135" on="0"/>
        <pt x="34" y="272" on="1"/>
        <pt x="34" y="429" on="0"/>
        <pt x="189" y="579" on="0"/>
        <pt x="316" y="579" on="1"/>
        <pt x="359" y="579" on="0"/>
        <pt x="453" y="563" on="0"/>
        <pt x="493" y="548" on="1"/>
        <pt x="496" y="512" on="0"/>
        <pt x="492" y="430" on="0"/>
        <pt x="485" y="384" on="1"/>
        <pt x="404" y="384" on="1"/>
        <pt x="383" y="479" on="1"/>
        <pt x="381" y="486" on="0"/>
        <pt x="373" y="502" on="0"/>
        <pt x="363" y="508" on="1"/>
        <pt x="353" y="515" on="0"/>
        <pt x="322" y="524" on="0"/>
        <pt x="305" y="524" on="1"/>
        <pt x="251" y="524" on="0"/>
        <pt x="189" y="414" on="0"/>
        <pt x="189" y="286" on="1"/>
        <pt x="189" y="167" on="0"/>
        <pt x="246" y="43" on="0"/>
        <pt x="308" y="43" on="1"/>
        <pt x="326" y="43" on="0"/>
        <pt x="360" y="54" on="0"/>
        <pt x="372" y="65" on="1"/>
        <pt x="376" y="69" on="0"/>
        <pt x="384" y="82" on="0"/>
        <pt x="388" y="93" on="1"/>
        <pt x="413" y="177" on="1"/>
        <pt x="493" y="171" on="1"/>
        <pt x="495" y="137" on="0"/>
        <pt x="493" y="59" on="0"/>
        <pt x="487" y="19" on="1"/>
        <pt x="448" y="6" on="0"/>
        <pt x="343" y="-13" on="0"/>
      </contour>
    </TTGlyph>
    <TTGlyph name="Cacute" xMin="34" yMin="-13" xMax="496" yMax="776">
      <component glyphName="C" x="0" y="0" flags="0x204"/>
      <component glyphName="acutecomb.case" x="305" y="0" flags="0x4"/>
    </TTGlyph>
    <TTGlyph name="Ccaron" xMin="34" yMin="-13" xMax="496" yMax="771">
      <component glyphName="C" x="0" y="0" flags="0x204"/>
      <component glyphName="uni030C.case" x="305" y="0" flags="0x4"/>
    </TTGlyph>
    <TTGlyph name="Ccedilla" xMin="34" yMin="-192" xMax="496" yMax="579">
      <component glyphName="C" x="0" y="0" flags="0x204"/>
      <component glyphName="uni0327" x="288" y="0" flags="0x4"/>
    </TTGlyph>
    <TTGlyph name="Ccircumflex" xMin="34" yMin="-13" xMax="496" yMax="764">
      <component glyphName="C" x="0" y="0" flags="0x204"/>
      <component glyphName="uni0302.case" x="305" y="0" flags="0x4"/>
    </TTGlyph>
    <TTGlyph name="Cdotaccent" xMin="34" yMin="-13" xMax="496" yMax="753">
      <component glyphName="C" x="0" y="0" flags="0x204"/>
      <component glyphName="uni0307.case" x="305" y="0" flags="0x4"/>
    </TTGlyph>
    <TTGlyph name="D" xMin="32" yMin="-8" xMax="580" yMax="572">
      <contour>
        <pt x="173" y="568" on="1"/>
        <pt x="210" y="568" on="0"/>
        <pt x="272" y="572" on="0"/>
        <pt x="303" y="572" on="1"/>
        <pt x="441" y="572" on="0"/>
        <pt x="580" y="443" on="0"/>
        <pt x="580" y="303" on="1"/>
        <pt x="580" y="152" on="0"/>
        <pt x="428" y="-8" on="0"/>
        <pt x="294" y="-6" on="1"/>
        <pt x="269" y="-5" on="0"/>
        <pt x="196" y="0" on="0"/>
        <pt x="174" y="0" on="1"/>
        <pt x="32" y="0" on="1"/>
        <pt x="32" y="52" on="1"/>
        <pt x="91" y="63" on="1"/>
        <pt x="98" y="64" on="0"/>
        <pt x="106" y="74" on="0"/>
        <pt x="106" y="81" on="1"/>
        <pt x="106" y="484" on="1"/>
        <pt x="106" y="491" on="0"/>
        <pt x="98" y="500" on="0"/>
        <pt x="91" y="501" on="1"/>
        <pt x="32" y="513" on="1"/>
        <pt x="32" y="568" on="1"/>
      </contour>
      <contour>
        <pt x="244" y="59" on="1"/>
        <pt x="253" y="55" on="0"/>
        <pt x="283" y="51" on="0"/>
        <pt x="296" y="51" on="1"/>
        <pt x="359" y="52" on="0"/>
        <pt x="429" y="151" on="0"/>
        <pt x="429" y="282" on="1"/>
        <pt x="429" y="393" on="0"/>
        <pt x="367" y="519" on="0"/>
        <pt x="293" y="519" on="1"/>
        <pt x="274" y="519" on="0"/>
        <pt x="247" y="513" on="0"/>
        <pt x="244" y="512" on="1"/>
      </contour>
    </TTGlyph>
    <TTGlyph name="Dcaron" xMin="32" yMin="-8" xMax="580" yMax="771">
      <component glyphName="D" x="0" y="0" flags="0x204"/>
      <component glyphName="uni030C.case" x="298" y="0" flags="0x4"/>
    </TTGlyph>
    <TTGlyph name="Dcroat" xMin="33" yMin="-8" xMax="580" yMax="572">
      <contour>
        <pt x="580" y="303" on="1"/>
        <pt x="580" y="152" on="0"/>
        <pt x="429" y="-8" on="0"/>
        <pt x="295" y="-6" on="1"/>
        <pt x="270" y="-5" on="0"/>
        <pt x="196" y="0" on="0"/>
        <pt x="175" y="0" on="1"/>
        <pt x="33" y="0" on="1"/>
        <pt x="33" y="52" on="1"/>
        <pt x="91" y="63" on="1"/>
        <pt x="98" y="64" on="0"/>
        <pt x="106" y="74" on="0"/>
        <pt x="106" y="81" on="1"/>
        <pt x="106" y="259" on="1"/>
        <pt x="37" y="259" on="1"/>
        <pt x="37" y="320" on="1"/>
        <pt x="106" y="320" on="1"/>
        <pt x="106" y="484" on="1"/>
        <pt x="106" y="491" on="0"/>
        <pt x="98" y="500" on="0"/>
        <pt x="92" y="501" on="1"/>
        <pt x="33" y="513" on="1"/>
        <pt x="33" y="568" on="1"/>
        <pt x="173" y="568" on="1"/>
        <pt x="210" y="568" on="0"/>
        <pt x="272" y="572" on="0"/>
        <pt x="303" y="572" on="1"/>
        <pt x="441" y="572" on="0"/>
        <pt x="580" y="443" on="0"/>
      </contour>
      <contour>
        <pt x="296" y="51" on="1"/>
        <pt x="359" y="52" on="0"/>
        <pt x="430" y="151" on="0"/>
        <pt x="430" y="282" on="1"/>
        <pt x="430" y="393" on="0"/>
        <pt x="367" y="519" on="0"/>
        <pt x="293" y="519" on="1"/>
        <pt x="275" y="519" on="0"/>
        <pt x="248" y="513" on="0"/>
        <pt x="244" y="512" on="1"/>
        <pt x="244" y="320" on="1"/>
        <pt x="337" y="320" on="1"/>
        <pt x="337" y="259" on="1"/>
        <pt x="244" y="259" on="1"/>
        <pt x="244" y="59" on="1"/>
        <pt x="254" y="55" on="0"/>
        <pt x="283" y="51" on="0"/>
      </contour>
    </TTGlyph>
    <TTGlyph name="E" xMin="32" yMin="0" xMax="502" yMax="568">
      <contour>
        <pt x="472" y="413" on="1"/>
        <pt x="407" y="413" on="1"/>
        <pt x="387" y="480" on="1"/>
        <pt x="385" y="490" on="0"/>
        <pt x="374" y="500" on="0"/>
        <pt x="366" y="504" on="1"/>
        <pt x="356" y="507" on="0"/>
        <pt x="323" y="512" on="0"/>
        <pt x="305" y="512" on="1"/>
        <pt x="244" y="512" on="1"/>
        <pt x="244" y="321" on="1"/>
        <pt x="400" y="327" on="1"/>
        <pt x="400" y="252" on="1"/>
        <pt x="244" y="256" on="1"/>
        <pt x="244" y="59" on="1"/>
        <pt x="321" y="59" on="1"/>
        <pt x="339" y="59" on="0"/>
        <pt x="377" y="63" on="0"/>
        <pt x="387" y="67" on="1"/>
        <pt x="394" y="71" on="0"/>
        <pt x="402" y="81" on="0"/>
        <pt x="406" y="91" on="1"/>
        <pt x="437" y="181" on="1"/>
        <pt x="502" y="171" on="1"/>
        <pt x="502" y="127" on="0"/>
        <pt x="495" y="44" on="0"/>
        <pt x="488" y="0" on="1"/>
        <pt x="32" y="0" on="1"/>
        <pt x="32" y="52" on="1"/>
        <pt x="89" y="63" on="1"/>
        <pt x="97" y="64" on="0"/>
        <pt x="106" y="75" on="0"/>
        <pt x="106" y="83" on="1"/>
        <pt x="106" y="481" on="1"/>
        <pt x="106" y="490" on="0"/>
        <pt x="97" y="501" on="0"/>
        <pt x="89" y="502" on="1"/>
        <pt x="32" y="513" on="1"/>
        <pt x="32" y="568" on="1"/>
        <pt x="469" y="568" on="1"/>
        <pt x="474" y="530" on="0"/>
        <pt x="475" y="453" on="0"/>
      </contour>
    </TTGlyph>
    <TTGlyph name="Eacute" xMin="32" yMin="0" xMax="502" yMax="776">
      <component glyphName="E" x="0" y="0" flags="0x204"/>
      <component glyphName="acutecomb.case" x="271" y="0" flags="0x4"/>
    </TTGlyph>
    <TTGlyph name="Ebreve" xMin="32" yMin="0" xMax="502" yMax="759">
      <component glyphName="E" x="0" y="0" flags="0x204"/>
      <component glyphName="uni0306.case" x="271" y="0" flags="0x4"/>
    </TTGlyph>
    <TTGlyph name="Ecaron" xMin="32" yMin="0" xMax="502" yMax="771">
      <component glyphName="E" x="0" y="0" flags="0x204"/>
      <component glyphName="uni030C.case" x="271" y="0" flags="0x4"/>
    </TTGlyph>
    <TTGlyph name="Ecircumflex" xMin="32" yMin="0" xMax="502" yMax="764">
      <component glyphName="E" x="0" y="0" flags="0x204"/>
      <component glyphName="uni0302.case" x="271" y="0" flags="0x4"/>
    </TTGlyph>
    <TTGlyph name="Edieresis" xMin="32" yMin="0" xMax="502" yMax="738">
      <component glyphName="E" x="0" y="0" flags="0x204"/>
      <component glyphName="uni0308.case" x="271" y="0" flags="0x4"/>
    </TTGlyph>
    <TTGlyph name="Edotaccent" xMin="32" yMin="0" xMax="502" yMax="753">
      <component glyphName="E" x="0" y="0" flags="0x204"/>
      <component glyphName="uni0307.case" x="271" y="0" flags="0x4"/>
    </TTGlyph>
    <TTGlyph name="Egrave" xMin="32" yMin="0" xMax="502" yMax="780">
      <component glyphName="E" x="0" y="0" flags="0x204"/>
      <component glyphName="gravecomb.case" x="271" y="0" flags="0x4"/>
    </TTGlyph>
    <TTGlyph name="Emacron" xMin="32" yMin="0" xMax="502" yMax="710">
      <component glyphName="E" x="0" y="0" flags="0x204"/>
      <component glyphName="uni0304.case" x="271" y="0" flags="0x4"/>
    </TTGlyph>
    <TTGlyph name="Eng" xMin="32" yMin="-191" xMax="632" yMax="568">
      <contour>
        <pt x="388" y="-191" on="1"/>
        <pt x="366" y="-191" on="0"/>
        <pt x="332" y="-186" on="0"/>
        <pt x="316" y="-183" on="1"/>
        <pt x="313" y="-125" on="1"/>
        <pt x="334" y="-123" on="0"/>
        <pt x="386" y="-108" on="0"/>
        <pt x="406" y="-95" on="1"/>
        <pt x="423" y="-84" on="0"/>
        <pt x="455" y="-48" on="0"/>
        <pt x="465" y="-15" on="1"/>
        <pt x="182" y="422" on="1"/>
        <pt x="182" y="84" on="1"/>
        <pt x="182" y="75" on="0"/>
        <pt x="191" y="64" on="0"/>
        <pt x="199" y="63" on="1"/>
        <pt x="265" y="52" on="1"/>
        <pt x="265" y="0" on="1"/>
        <pt x="32" y="0" on="1"/>
        <pt x="32" y="52" on="1"/>
        <pt x="89" y="63" on="1"/>
        <pt x="97" y="64" on="0"/>
        <pt x="106" y="75" on="0"/>
        <pt x="106" y="83" on="1"/>
        <pt x="106" y="481" on="1"/>
        <pt x="106" y="490" on="0"/>
        <pt x="97" y="501" on="0"/>
        <pt x="89" y="502" on="1"/>
        <pt x="32" y="513" on="1"/>
        <pt x="32" y="568" on="1"/>
        <pt x="248" y="568" on="1"/>
        <pt x="486" y="190" on="1"/>
        <pt x="486" y="481" on="1"/>
        <pt x="486" y="490" on="0"/>
        <pt x="477" y="501" on="0"/>
        <pt x="469" y="502" on="1"/>
        <pt x="409" y="513" on="1"/>
        <pt x="409" y="568" on="1"/>
        <pt x="632" y="568" on="1"/>
        <pt x="632" y="513" on="1"/>
        <pt x="579" y="502" on="1"/>
        <pt x="571" y="501" on="0"/>
        <pt x="562" y="490" on="0"/>
        <pt x="562" y="481" on="1"/>
        <pt x="562" y="39" on="1"/>
        <pt x="562" y="-64" on="0"/>
        <pt x="487" y="-191" on="0"/>
      </contour>
    </TTGlyph>
    <TTGlyph name="Eogonek" xMin="32" yMin="-189" xMax="502" yMax="568">
      <contour>
        <pt x="494" y="-161" on="1"/>
        <pt x="472" y="-174" on="0"/>
        <pt x="415" y="-189" on="0"/>
        <pt x="388" y="-189" on="1"/>
        <pt x="344" y="-188" on="0"/>
        <pt x="285" y="-149" on="0"/>
        <pt x="285" y="-112" on="1"/>
        <pt x="285" y="-73" on="0"/>
        <pt x="348" y="-16" on="0"/>
        <pt x="391" y="-2" on="1"/>
        <pt x="391" y="0" on="1"/>
        <pt x="32" y="0" on="1"/>
        <pt x="32" y="52" on="1"/>
        <pt x="89" y="63" on="1"/>
        <pt x="97" y="64" on="0"/>
        <pt x="106" y="75" on="0"/>
        <pt x="106" y="83" on="1"/>
        <pt x="106" y="481" on="1"/>
        <pt x="106" y="490" on="0"/>
        <pt x="97" y="501" on="0"/>
        <pt x="89" y="502" on="1"/>
        <pt x="32" y="513" on="1"/>
        <pt x="32" y="568" on="1"/>
        <pt x="469" y="568" on="1"/>
        <pt x="474" y="530" on="0"/>
        <pt x="475" y="453" on="0"/>
        <pt x="472" y="413" on="1"/>
        <pt x="407" y="413" on="1"/>
        <pt x="387" y="480" on="1"/>
        <pt x="385" y="490" on="0"/>
        <pt x="374" y="500" on="0"/>
        <pt x="366" y="504" on="1"/>
        <pt x="356" y="507" on="0"/>
        <pt x="323" y="512" on="0"/>
        <pt x="305" y="512" on="1"/>
        <pt x="244" y="512" on="1"/>
        <pt x="244" y="321" on="1"/>
        <pt x="400" y="327" on="1"/>
        <pt x="400" y="252" on="1"/>
        <pt x="244" y="256" on="1"/>
        <pt x="244" y="59" on="1"/>
        <pt x="321" y="59" on="1"/>
        <pt x="339" y="59" on="0"/>
        <pt x="377" y="63" on="0"/>
        <pt x="387" y="67" on="1"/>
        <pt x="394" y="70" on="0"/>
        <pt x="402" y="81" on="0"/>
        <pt x="406" y="91" on="1"/>
        <pt x="437" y="181" on="1"/>
        <pt x="502" y="171" on="1"/>
        <pt x="502" y="127" on="0"/>
        <pt x="495" y="44" on="0"/>
        <pt x="488" y="0" on="1"/>
        <pt x="443" y="-10" on="0"/>
        <pt x="388" y="-58" on="0"/>
        <pt x="388" y="-82" on="1"/>
        <pt x="388" y="-101" on="0"/>
        <pt x="415" y="-119" on="0"/>
        <pt x="435" y="-119" on="1"/>
        <pt x="445" y="-119" on="0"/>
        <pt x="465" y="-114" on="0"/>
        <pt x="475" y="-110" on="1"/>
      </contour>
    </TTGlyph>
    <TTGlyph name="Eth" xMin="33" yMin="-8" xMax="580" yMax="572">
      <component glyphName="Dcroat" x="0" y="0" flags="0x204"/>
    </TTGlyph>
    <TTGlyph name="Euro" xMin="28" yMin="-9" xMax="508" yMax="509">
      <contour>
        <pt x="500" y="19" on="1"/>
        <pt x="466" y="5" on="0"/>
        <pt x="373" y="-9" on="0"/>
        <pt x="333" y="-9" on="1"/>
        <pt x="237" y="-9" on="0"/>
        <pt x="128" y="80" on="0"/>
        <pt x="113" y="166" on="1"/>
        <pt x="28" y="166" on="1"/>
        <pt x="28" y="218" on="1"/>
        <pt x="108" y="218" on="1"/>
        <pt x="108" y="222" on="0"/>
        <pt x="108" y="232" on="0"/>
        <pt x="108" y="237" on="1"/>
        <pt x="108" y="246" on="0"/>
        <pt x="108" y="265" on="0"/>
        <pt x="109" y="273" on="1"/>
        <pt x="33" y="273" on="1"/>
        <pt x="33" y="325" on="1"/>
        <pt x="116" y="325" on="1"/>
        <pt x="135" y="419" on="0"/>
        <pt x="260" y="509" on="0"/>
        <pt x="351" y="509" on="1"/>
        <pt x="388" y="509" on="0"/>
        <pt x="471" y="494" on="0"/>
        <pt x="505" y="481" on="1"/>
        <pt x="507" y="450" on="0"/>
        <pt x="503" y="378" on="0"/>
        <pt x="497" y="338" on="1"/>
        <pt x="424" y="338" on="1"/>
        <pt x="407" y="409" on="1"/>
        <pt x="404" y="424" on="0"/>
        <pt x="395" y="439" on="0"/>
        <pt x="388" y="445" on="1"/>
        <pt x="380" y="451" on="0"/>
        <pt x="354" y="458" on="0"/>
        <pt x="341" y="458" on="1"/>
        <pt x="304" y="458" on="0"/>
        <pt x="259" y="396" on="0"/>
        <pt x="252" y="325" on="1"/>
        <pt x="384" y="325" on="1"/>
        <pt x="384" y="273" on="1"/>
        <pt x="249" y="273" on="1"/>
        <pt x="249" y="268" on="0"/>
        <pt x="249" y="256" on="0"/>
        <pt x="249" y="250" on="1"/>
        <pt x="249" y="242" on="0"/>
        <pt x="249" y="225" on="0"/>
        <pt x="249" y="218" on="1"/>
        <pt x="378" y="218" on="1"/>
        <pt x="378" y="166" on="1"/>
        <pt x="253" y="166" on="1"/>
        <pt x="260" y="106" on="0"/>
        <pt x="301" y="42" on="0"/>
        <pt x="338" y="42" on="1"/>
        <pt x="354" y="42" on="0"/>
        <pt x="384" y="55" on="0"/>
        <pt x="391" y="62" on="1"/>
        <pt x="395" y="66" on="0"/>
        <pt x="403" y="79" on="0"/>
        <pt x="406" y="87" on="1"/>
        <pt x="432" y="159" on="1"/>
        <pt x="506" y="153" on="1"/>
        <pt x="508" y="125" on="0"/>
        <pt x="505" y="56" on="0"/>
      </contour>
    </TTGlyph>
    <TTGlyph name="Euro.tf" xMin="-3" yMin="-9" xMax="435" yMax="509">
      <contour>
        <pt x="428" y="19" on="1"/>
        <pt x="394" y="6" on="0"/>
        <pt x="305" y="-9" on="0"/>
        <pt x="268" y="-9" on="1"/>
        <pt x="176" y="-9" on="0"/>
        <pt x="77" y="76" on="0"/>
        <pt x="64" y="166" on="1"/>
        <pt x="-3" y="166" on="1"/>
        <pt x="-3" y="218" on="1"/>
        <pt x="60" y="218" on="1"/>
        <pt x="60" y="222" on="0"/>
        <pt x="60" y="232" on="0"/>
        <pt x="60" y="236" on="1"/>
        <pt x="60" y="246" on="0"/>
        <pt x="60" y="264" on="0"/>
        <pt x="61" y="273" on="1"/>
        <pt x="0" y="273" on="1"/>
        <pt x="0" y="325" on="1"/>
        <pt x="67" y="325" on="1"/>
        <pt x="84" y="422" on="0"/>
        <pt x="198" y="509" on="0"/>
        <pt x="284" y="509" on="1"/>
        <pt x="318" y="509" on="0"/>
        <pt x="394" y="495" on="0"/>
        <pt x="427" y="481" on="1"/>
        <pt x="429" y="450" on="0"/>
        <pt x="425" y="378" on="0"/>
        <pt x="419" y="338" on="1"/>
        <pt x="345" y="338" on="1"/>
        <pt x="329" y="409" on="1"/>
        <pt x="325" y="423" on="0"/>
        <pt x="320" y="438" on="0"/>
        <pt x="316" y="444" on="1"/>
        <pt x="309" y="451" on="0"/>
        <pt x="289" y="458" on="0"/>
        <pt x="278" y="458" on="1"/>
        <pt x="244" y="458" on="0"/>
        <pt x="206" y="398" on="0"/>
        <pt x="200" y="325" on="1"/>
        <pt x="310" y="325" on="1"/>
        <pt x="310" y="273" on="1"/>
        <pt x="197" y="273" on="1"/>
        <pt x="197" y="267" on="0"/>
        <pt x="197" y="255" on="0"/>
        <pt x="197" y="248" on="1"/>
        <pt x="197" y="241" on="0"/>
        <pt x="197" y="225" on="0"/>
        <pt x="197" y="218" on="1"/>
        <pt x="306" y="218" on="1"/>
        <pt x="306" y="166" on="1"/>
        <pt x="200" y="166" on="1"/>
        <pt x="206" y="104" on="0"/>
        <pt x="240" y="42" on="0"/>
        <pt x="272" y="42" on="1"/>
        <pt x="285" y="42" on="0"/>
        <pt x="311" y="52" on="0"/>
        <pt x="320" y="60" on="1"/>
        <pt x="326" y="65" on="0"/>
        <pt x="334" y="80" on="0"/>
        <pt x="337" y="92" on="1"/>
        <pt x="358" y="160" on="1"/>
        <pt x="432" y="154" on="1"/>
        <pt x="435" y="126" on="0"/>
        <pt x="434" y="55" on="0"/>
      </contour>
    </TTGlyph>
    <TTGlyph name="F" xMin="32" yMin="0" xMax="475" yMax="568">
      <contour>
        <pt x="400" y="243" on="1"/>
        <pt x="244" y="247" on="1"/>
        <pt x="244" y="81" on="1"/>
        <pt x="244" y="74" on="0"/>
        <pt x="253" y="65" on="0"/>
        <pt x="260" y="64" on="1"/>
        <pt x="353" y="52" on="1"/>
        <pt x="353" y="0" on="1"/>
        <pt x="32" y="0" on="1"/>
        <pt x="32" y="52" on="1"/>
        <pt x="90" y="63" on="1"/>
        <pt x="97" y="64" on="0"/>
        <pt x="106" y="75" on="0"/>
        <pt x="106" y="82" on="1"/>
        <pt x="106" y="481" on="1"/>
        <pt x="106" y="490" on="0"/>
        <pt x="97" y="501" on="0"/>
        <pt x="89" y="502" on="1"/>
        <pt x="32" y="513" on="1"/>
        <pt x="32" y="568" on="1"/>
        <pt x="469" y="568" on="1"/>
        <pt x="474" y="530" on="0"/>
        <pt x="475" y="453" on="0"/>
        <pt x="472" y="413" on="1"/>
        <pt x="407" y="413" on="1"/>
        <pt x="387" y="480" on="1"/>
        <pt x="385" y="490" on="0"/>
        <pt x="374" y="500" on="0"/>
        <pt x="366" y="504" on="1"/>
        <pt x="356" y="507" on="0"/>
        <pt x="323" y="512" on="0"/>
        <pt x="305" y="512" on="1"/>
        <pt x="244" y="512" on="1"/>
        <pt x="244" y="312" on="1"/>
        <pt x="400" y="317" on="1"/>
      </contour>
    </TTGlyph>
    <TTGlyph name="G" xMin="35" yMin="-12" xMax="557" yMax="579">
      <contour>
        <pt x="494" y="-6" on="1"/>
        <pt x="423" y="48" on="1"/>
        <pt x="399" y="22" on="0"/>
        <pt x="322" y="-12" on="0"/>
        <pt x="269" y="-12" on="1"/>
        <pt x="156" y="-12" on="0"/>
        <pt x="35" y="142" on="0"/>
        <pt x="35" y="278" on="1"/>
        <pt x="35" y="432" on="0"/>
        <pt x="186" y="579" on="0"/>
        <pt x="323" y="579" on="1"/>
        <pt x="373" y="579" on="0"/>
        <pt x="470" y="560" on="0"/>
        <pt x="507" y="545" on="1"/>
        <pt x="510" y="509" on="0"/>
        <pt x="505" y="433" on="0"/>
        <pt x="500" y="395" on="1"/>
        <pt x="416" y="395" on="1"/>
        <pt x="396" y="478" on="1"/>
        <pt x="393" y="489" on="0"/>
        <pt x="385" y="501" on="0"/>
        <pt x="378" y="506" on="1"/>
        <pt x="368" y="513" on="0"/>
        <pt x="339" y="524" on="0"/>
        <pt x="319" y="524" on="1"/>
        <pt x="257" y="524" on="0"/>
        <pt x="195" y="406" on="0"/>
        <pt x="195" y="275" on="1"/>
        <pt x="195" y="171" on="0"/>
        <pt x="244" y="59" on="0"/>
        <pt x="312" y="59" on="1"/>
        <pt x="335" y="59" on="0"/>
        <pt x="374" y="71" on="0"/>
        <pt x="389" y="81" on="1"/>
        <pt x="389" y="230" on="1"/>
        <pt x="320" y="238" on="1"/>
        <pt x="320" y="294" on="1"/>
        <pt x="557" y="294" on="1"/>
        <pt x="557" y="238" on="1"/>
        <pt x="520" y="232" on="1"/>
        <pt x="520" y="9" on="1"/>
      </contour>
    </TTGlyph>
    <TTGlyph name="Gbreve" xMin="35" yMin="-12" xMax="557" yMax="759">
      <component glyphName="G" x="0" y="0" flags="0x204"/>
      <component glyphName="uni0306.case" x="327" y="0" flags="0x4"/>
    </TTGlyph>
    <TTGlyph name="Gcircumflex" xMin="35" yMin="-12" xMax="557" yMax="764">
      <component glyphName="G" x="0" y="0" flags="0x204"/>
      <component glyphName="uni0302.case" x="327" y="0" flags="0x4"/>
    </TTGlyph>
    <TTGlyph name="Gcommaaccent" xMin="35" yMin="-225" xMax="557" yMax="579">
      <component glyphName="G" x="0" y="0" flags="0x204"/>
      <component glyphName="uni0326" x="295" y="0" flags="0x4"/>
    </TTGlyph>
    <TTGlyph name="Gdotaccent" xMin="35" yMin="-12" xMax="557" yMax="753">
      <component glyphName="G" x="0" y="0" flags="0x204"/>
      <component glyphName="uni0307.case" x="327" y="0" flags="0x4"/>
    </TTGlyph>
    <TTGlyph name="H" xMin="32" yMin="0" xMax="655" yMax="568">
      <contour>
        <pt x="655" y="568" on="1"/>
        <pt x="655" y="513" on="1"/>
        <pt x="597" y="502" on="1"/>
        <pt x="590" y="501" on="0"/>
        <pt x="581" y="489" on="0"/>
        <pt x="581" y="481" on="1"/>
        <pt x="581" y="83" on="1"/>
        <pt x="581" y="75" on="0"/>
        <pt x="590" y="64" on="0"/>
        <pt x="598" y="63" on="1"/>
        <pt x="655" y="52" on="1"/>
        <pt x="655" y="0" on="1"/>
        <pt x="386" y="0" on="1"/>
        <pt x="386" y="52" on="1"/>
        <pt x="426" y="63" on="1"/>
        <pt x="434" y="65" on="0"/>
        <pt x="443" y="75" on="0"/>
        <pt x="443" y="83" on="1"/>
        <pt x="443" y="255" on="1"/>
        <pt x="244" y="255" on="1"/>
        <pt x="244" y="83" on="1"/>
        <pt x="244" y="75" on="0"/>
        <pt x="252" y="64" on="0"/>
        <pt x="260" y="63" on="1"/>
        <pt x="306" y="52" on="1"/>
        <pt x="306" y="0" on="1"/>
        <pt x="32" y="0" on="1"/>
        <pt x="32" y="52" on="1"/>
        <pt x="89" y="63" on="1"/>
        <pt x="97" y="64" on="0"/>
        <pt x="106" y="75" on="0"/>
        <pt x="106" y="83" on="1"/>
        <pt x="106" y="481" on="1"/>
        <pt x="106" y="490" on="0"/>
        <pt x="97" y="501" on="0"/>
        <pt x="89" y="502" on="1"/>
        <pt x="32" y="513" on="1"/>
        <pt x="32" y="568" on="1"/>
        <pt x="306" y="568" on="1"/>
        <pt x="306" y="513" on="1"/>
        <pt x="260" y="502" on="1"/>
        <pt x="252" y="501" on="0"/>
        <pt x="244" y="490" on="0"/>
        <pt x="244" y="481" on="1"/>
        <pt x="244" y="322" on="1"/>
        <pt x="443" y="322" on="1"/>
        <pt x="443" y="481" on="1"/>
        <pt x="443" y="489" on="0"/>
        <pt x="434" y="500" on="0"/>
        <pt x="427" y="502" on="1"/>
        <pt x="385" y="513" on="1"/>
        <pt x="385" y="568" on="1"/>
      </contour>
    </TTGlyph>
    <TTGlyph name="Hbar" xMin="33" yMin="0" xMax="655" yMax="568">
      <contour>
        <pt x="244" y="304" on="1"/>
        <pt x="443" y="304" on="1"/>
        <pt x="443" y="368" on="1"/>
        <pt x="244" y="368" on="1"/>
      </contour>
      <contour>
        <pt x="306" y="52" on="1"/>
        <pt x="306" y="0" on="1"/>
        <pt x="33" y="0" on="1"/>
        <pt x="33" y="52" on="1"/>
        <pt x="89" y="63" on="1"/>
        <pt x="98" y="64" on="0"/>
        <pt x="106" y="75" on="0"/>
        <pt x="106" y="83" on="1"/>
        <pt x="106" y="368" on="1"/>
        <pt x="36" y="368" on="1"/>
        <pt x="36" y="420" on="1"/>
        <pt x="106" y="420" on="1"/>
        <pt x="106" y="481" on="1"/>
        <pt x="106" y="490" on="0"/>
        <pt x="98" y="501" on="0"/>
        <pt x="90" y="502" on="1"/>
        <pt x="33" y="513" on="1"/>
        <pt x="33" y="568" on="1"/>
        <pt x="306" y="568" on="1"/>
        <pt x="306" y="513" on="1"/>
        <pt x="260" y="502" on="1"/>
        <pt x="252" y="501" on="0"/>
        <pt x="244" y="490" on="0"/>
        <pt x="244" y="481" on="1"/>
        <pt x="244" y="420" on="1"/>
        <pt x="443" y="420" on="1"/>
        <pt x="443" y="481" on="1"/>
        <pt x="443" y="489" on="0"/>
        <pt x="434" y="500" on="0"/>
        <pt x="427" y="502" on="1"/>
        <pt x="386" y="513" on="1"/>
        <pt x="386" y="568" on="1"/>
        <pt x="655" y="568" on="1"/>
        <pt x="655" y="513" on="1"/>
        <pt x="598" y="502" on="1"/>
        <pt x="590" y="501" on="0"/>
        <pt x="581" y="489" on="0"/>
        <pt x="581" y="481" on="1"/>
        <pt x="581" y="420" on="1"/>
        <pt x="651" y="420" on="1"/>
        <pt x="651" y="368" on="1"/>
        <pt x="581" y="368" on="1"/>
        <pt x="581" y="83" on="1"/>
        <pt x="581" y="75" on="0"/>
        <pt x="590" y="64" on="0"/>
        <pt x="598" y="63" on="1"/>
        <pt x="655" y="52" on="1"/>
        <pt x="655" y="0" on="1"/>
        <pt x="386" y="0" on="1"/>
        <pt x="386" y="52" on="1"/>
        <pt x="427" y="63" on="1"/>
        <pt x="434" y="64" on="0"/>
        <pt x="443" y="75" on="0"/>
        <pt x="443" y="83" on="1"/>
        <pt x="443" y="237" on="1"/>
        <pt x="244" y="237" on="1"/>
        <pt x="244" y="83" on="1"/>
        <pt x="244" y="75" on="0"/>
        <pt x="253" y="64" on="0"/>
        <pt x="261" y="63" on="1"/>
      </contour>
    </TTGlyph>
    <TTGlyph name="Hcircumflex" xMin="32" yMin="0" xMax="655" yMax="764">
      <component glyphName="H" x="0" y="0" flags="0x204"/>
      <component glyphName="uni0302.case" x="345" y="0" flags="0x4"/>
    </TTGlyph>
    <TTGlyph name="I" xMin="32" yMin="0" xMax="317" yMax="568">
      <contour>
        <pt x="317" y="568" on="1"/>
        <pt x="317" y="513" on="1"/>
        <pt x="261" y="502" on="1"/>
        <pt x="252" y="501" on="0"/>
        <pt x="244" y="490" on="0"/>
        <pt x="244" y="481" on="1"/>
        <pt x="244" y="84" on="1"/>
        <pt x="244" y="75" on="0"/>
        <pt x="252" y="64" on="0"/>
        <pt x="261" y="63" on="1"/>
        <pt x="317" y="52" on="1"/>
        <pt x="317" y="0" on="1"/>
        <pt x="32" y="0" on="1"/>
        <pt x="32" y="52" on="1"/>
        <pt x="89" y="63" on="1"/>
        <pt x="97" y="64" on="0"/>
        <pt x="106" y="75" on="0"/>
        <pt x="106" y="83" on="1"/>
        <pt x="106" y="481" on="1"/>
        <pt x="106" y="490" on="0"/>
        <pt x="97" y="501" on="0"/>
        <pt x="89" y="502" on="1"/>
        <pt x="32" y="513" on="1"/>
        <pt x="32" y="568" on="1"/>
      </contour>
    </TTGlyph>
    <TTGlyph name="IJ" xMin="32" yMin="-154" xMax="645" yMax="568">
      <component glyphName="I" x="0" y="0" flags="0x204"/>
      <component glyphName="J" x="344" y="0" flags="0x4"/>
    </TTGlyph>
    <TTGlyph name="Iacute" xMin="32" yMin="0" xMax="326" yMax="776">
      <component glyphName="I" x="0" y="0" flags="0x204"/>
      <component glyphName="acutecomb.case" x="175" y="0" flags="0x4"/>
    </TTGlyph>
    <TTGlyph name="Iacute_J.NLD" xMin="32" yMin="-154" xMax="663" yMax="776">
      <component glyphName="I" x="0" y="0" flags="0x204"/>
      <component glyphName="acutecomb.case" x="175" y="0" flags="0x4"/>
      <component glyphName="J" x="350" y="0" flags="0x4"/>
      <component glyphName="acutecomb.case" x="512" y="0" flags="0x4"/>
    </TTGlyph>
    <TTGlyph name="Ibreve" xMin="21" yMin="0" xMax="329" yMax="759">
      <component glyphName="I" x="0" y="0" flags="0x204"/>
      <component glyphName="uni0306.case" x="175" y="0" flags="0x4"/>
    </TTGlyph>
    <TTGlyph name="Icircumflex" xMin="14" yMin="0" xMax="336" yMax="764">
      <component glyphName="I" x="0" y="0" flags="0x204"/>
      <component glyphName="uni0302.case" x="175" y="0" flags="0x4"/>
    </TTGlyph>
    <TTGlyph name="Idieresis" xMin="16" yMin="0" xMax="334" yMax="738">
      <component glyphName="I" x="0" y="0" flags="0x204"/>
      <component glyphName="uni0308.case" x="175" y="0" flags="0x4"/>
    </TTGlyph>
    <TTGlyph name="Idotaccent" xMin="32" yMin="0" xMax="317" yMax="753">
      <component glyphName="I" x="0" y="0" flags="0x204"/>
      <component glyphName="uni0307.case" x="175" y="0" flags="0x4"/>
    </TTGlyph>
    <TTGlyph name="Igrave" xMin="32" yMin="0" xMax="317" yMax="780">
      <component glyphName="I" x="0" y="0" flags="0x204"/>
      <component glyphName="gravecomb.case" x="175" y="0" flags="0x4"/>
    </TTGlyph>
    <TTGlyph name="Imacron" xMin="32" yMin="0" xMax="317" yMax="710">
      <component glyphName="I" x="0" y="0" flags="0x204"/>
      <component glyphName="uni0304.case" x="175" y="0" flags="0x4"/>
    </TTGlyph>
    <TTGlyph name="Iogonek" xMin="32" yMin="-189" xMax="317" yMax="568">
      <contour>
        <pt x="276" y="-161" on="1"/>
        <pt x="255" y="-174" on="0"/>
        <pt x="197" y="-189" on="0"/>
        <pt x="170" y="-189" on="1"/>
        <pt x="127" y="-188" on="0"/>
        <pt x="68" y="-150" on="0"/>
        <pt x="68" y="-112" on="1"/>
        <pt x="68" y="-73" on="0"/>
        <pt x="129" y="-15" on="0"/>
        <pt x="169" y="-2" on="1"/>
        <pt x="169" y="0" on="1"/>
        <pt x="32" y="0" on="1"/>
        <pt x="32" y="52" on="1"/>
        <pt x="89" y="63" on="1"/>
        <pt x="97" y="64" on="0"/>
        <pt x="106" y="75" on="0"/>
        <pt x="106" y="83" on="1"/>
        <pt x="106" y="481" on="1"/>
        <pt x="106" y="490" on="0"/>
        <pt x="97" y="501" on="0"/>
        <pt x="89" y="502" on="1"/>
        <pt x="32" y="513" on="1"/>
        <pt x="32" y="568" on="1"/>
        <pt x="317" y="568" on="1"/>
        <pt x="317" y="513" on="1"/>
        <pt x="261" y="502" on="1"/>
        <pt x="252" y="501" on="0"/>
        <pt x="244" y="490" on="0"/>
        <pt x="244" y="481" on="1"/>
        <pt x="244" y="84" on="1"/>
        <pt x="244" y="75" on="0"/>
        <pt x="252" y="64" on="0"/>
        <pt x="261" y="63" on="1"/>
        <pt x="317" y="52" on="1"/>
        <pt x="317" y="0" on="1"/>
        <pt x="252" y="0" on="1"/>
        <pt x="215" y="-13" on="0"/>
        <pt x="170" y="-59" on="0"/>
        <pt x="170" y="-82" on="1"/>
        <pt x="170" y="-101" on="0"/>
        <pt x="197" y="-119" on="0"/>
        <pt x="216" y="-119" on="1"/>
        <pt x="226" y="-119" on="0"/>
        <pt x="247" y="-114" on="0"/>
        <pt x="257" y="-110" on="1"/>
      </contour>
    </TTGlyph>
    <TTGlyph name="Itilde" xMin="6" yMin="0" xMax="344" yMax="747">
      <component glyphName="I" x="0" y="0" flags="0x204"/>
      <component glyphName="tildecomb.case" x="175" y="0" flags="0x4"/>
    </TTGlyph>
    <TTGlyph name="J" xMin="-15" yMin="-154" xMax="301" yMax="568">
      <contour>
        <pt x="252" y="502" on="1"/>
        <pt x="244" y="500" on="0"/>
        <pt x="235" y="490" on="0"/>
        <pt x="235" y="481" on="1"/>
        <pt x="235" y="128" on="1"/>
        <pt x="235" y="2" on="0"/>
        <pt x="146" y="-118" on="0"/>
        <pt x="8" y="-154" on="1"/>
        <pt x="-15" y="-99" on="1"/>
        <pt x="57" y="-61" on="0"/>
        <pt x="97" y="21" on="0"/>
        <pt x="97" y="111" on="1"/>
        <pt x="97" y="481" on="1"/>
        <pt x="97" y="490" on="0"/>
        <pt x="88" y="501" on="0"/>
        <pt x="80" y="502" on="1"/>
        <pt x="24" y="513" on="1"/>
        <pt x="24" y="568" on="1"/>
        <pt x="301" y="568" on="1"/>
        <pt x="301" y="513" on="1"/>
      </contour>
    </TTGlyph>
    <TTGlyph name="Jacute" xMin="-15" yMin="-154" xMax="314" yMax="776">
      <component glyphName="J" x="0" y="0" flags="0x204"/>
      <component glyphName="acutecomb.case" x="163" y="0" flags="0x4"/>
    </TTGlyph>
    <TTGlyph name="Jcircumflex" xMin="-15" yMin="-154" xMax="324" yMax="764">
      <component glyphName="J" x="0" y="0" flags="0x204"/>
      <component glyphName="uni0302.case" x="163" y="0" flags="0x4"/>
    </TTGlyph>
    <TTGlyph name="K" xMin="32" yMin="0" xMax="605" yMax="568">
      <contour>
        <pt x="317" y="52" on="1"/>
        <pt x="317" y="0" on="1"/>
        <pt x="32" y="0" on="1"/>
        <pt x="32" y="52" on="1"/>
        <pt x="89" y="63" on="1"/>
        <pt x="97" y="64" on="0"/>
        <pt x="106" y="75" on="0"/>
        <pt x="106" y="83" on="1"/>
        <pt x="106" y="481" on="1"/>
        <pt x="106" y="490" on="0"/>
        <pt x="97" y="501" on="0"/>
        <pt x="89" y="502" on="1"/>
        <pt x="32" y="513" on="1"/>
        <pt x="32" y="568" on="1"/>
        <pt x="317" y="568" on="1"/>
        <pt x="317" y="513" on="1"/>
        <pt x="260" y="502" on="1"/>
        <pt x="252" y="501" on="0"/>
        <pt x="243" y="490" on="0"/>
        <pt x="243" y="481" on="1"/>
        <pt x="243" y="273" on="1"/>
        <pt x="431" y="502" on="1"/>
        <pt x="367" y="513" on="1"/>
        <pt x="366" y="568" on="1"/>
        <pt x="590" y="568" on="1"/>
        <pt x="590" y="513" on="1"/>
        <pt x="532" y="502" on="1"/>
        <pt x="525" y="501" on="0"/>
        <pt x="514" y="495" on="0"/>
        <pt x="510" y="491" on="1"/>
        <pt x="389" y="353" on="1"/>
        <pt x="410" y="328" on="0"/>
        <pt x="442" y="274" on="0"/>
        <pt x="463" y="236" on="1"/>
        <pt x="543" y="86" on="1"/>
        <pt x="547" y="79" on="0"/>
        <pt x="558" y="64" on="0"/>
        <pt x="571" y="61" on="1"/>
        <pt x="605" y="52" on="1"/>
        <pt x="605" y="0" on="1"/>
        <pt x="446" y="0" on="1"/>
        <pt x="430" y="0" on="0"/>
        <pt x="404" y="40" on="0"/>
        <pt x="389" y="72" on="1"/>
        <pt x="342" y="173" on="1"/>
        <pt x="329" y="201" on="0"/>
        <pt x="310" y="239" on="0"/>
        <pt x="301" y="253" on="1"/>
        <pt x="243" y="184" on="1"/>
        <pt x="243" y="81" on="1"/>
        <pt x="243" y="73" on="0"/>
        <pt x="252" y="63" on="0"/>
        <pt x="261" y="62" on="1"/>
      </contour>
    </TTGlyph>
    <TTGlyph name="Kcommaaccent" xMin="32" yMin="-225" xMax="605" yMax="568">
      <component glyphName="K" x="0" y="0" flags="0x204"/>
      <component glyphName="uni0326" x="334" y="0" flags="0x4"/>
    </TTGlyph>
    <TTGlyph name="L" xMin="32" yMin="0" xMax="499" yMax="568">
      <contour>
        <pt x="394" y="93" on="1"/>
        <pt x="430" y="210" on="1"/>
        <pt x="499" y="201" on="1"/>
        <pt x="499" y="155" on="0"/>
        <pt x="495" y="52" on="0"/>
        <pt x="484" y="0" on="1"/>
        <pt x="32" y="0" on="1"/>
        <pt x="32" y="52" on="1"/>
        <pt x="89" y="63" on="1"/>
        <pt x="97" y="64" on="0"/>
        <pt x="106" y="75" on="0"/>
        <pt x="106" y="83" on="1"/>
        <pt x="106" y="482" on="1"/>
        <pt x="106" y="490" on="0"/>
        <pt x="97" y="501" on="0"/>
        <pt x="89" y="502" on="1"/>
        <pt x="32" y="513" on="1"/>
        <pt x="32" y="568" on="1"/>
        <pt x="336" y="568" on="1"/>
        <pt x="336" y="513" on="1"/>
        <pt x="261" y="501" on="1"/>
        <pt x="253" y="500" on="0"/>
        <pt x="244" y="489" on="0"/>
        <pt x="244" y="481" on="1"/>
        <pt x="244" y="60" on="1"/>
        <pt x="307" y="60" on="1"/>
        <pt x="329" y="60" on="0"/>
        <pt x="363" y="65" on="0"/>
        <pt x="373" y="69" on="1"/>
        <pt x="380" y="72" on="0"/>
        <pt x="391" y="83" on="0"/>
      </contour>
    </TTGlyph>
    <TTGlyph name="Lacute" xMin="32" yMin="0" xMax="499" yMax="776">
      <component glyphName="L" x="0" y="0" flags="0x204"/>
      <component glyphName="acutecomb.case" x="223" y="0" flags="0x4"/>
    </TTGlyph>
    <TTGlyph name="Lcaron" xMin="32" yMin="0" xMax="499" yMax="606">
      <component glyphName="L" x="0" y="0" flags="0x204"/>
      <component glyphName="uni030C.calt" x="322" y="-81" flags="0x4"/>
    </TTGlyph>
    <TTGlyph name="Lcommaaccent" xMin="32" yMin="-225" xMax="499" yMax="568">
      <component glyphName="L" x="0" y="0" flags="0x204"/>
      <component glyphName="uni0326" x="283" y="0" flags="0x4"/>
    </TTGlyph>
    <TTGlyph name="Ldot" xMin="32" yMin="0" xMax="500" yMax="568">
      <component glyphName="L" x="0" y="0" flags="0x204"/>
      <component glyphName="periodcentered" x="308" y="89" flags="0x4"/>
    </TTGlyph>
    <TTGlyph name="Lslash" xMin="32" yMin="0" xMax="499" yMax="568">
      <contour>
        <pt x="485" y="0" on="1"/>
        <pt x="33" y="0" on="1"/>
        <pt x="33" y="52" on="1"/>
        <pt x="89" y="63" on="1"/>
        <pt x="98" y="64" on="0"/>
        <pt x="107" y="75" on="0"/>
        <pt x="107" y="83" on="1"/>
        <pt x="107" y="214" on="1"/>
        <pt x="32" y="185" on="1"/>
        <pt x="32" y="249" on="1"/>
        <pt x="107" y="278" on="1"/>
        <pt x="107" y="482" on="1"/>
        <pt x="107" y="490" on="0"/>
        <pt x="98" y="501" on="0"/>
        <pt x="90" y="502" on="1"/>
        <pt x="33" y="513" on="1"/>
        <pt x="33" y="568" on="1"/>
        <pt x="336" y="568" on="1"/>
        <pt x="336" y="513" on="1"/>
        <pt x="262" y="501" on="1"/>
        <pt x="254" y="500" on="0"/>
        <pt x="245" y="489" on="0"/>
        <pt x="245" y="481" on="1"/>
        <pt x="245" y="327" on="1"/>
        <pt x="387" y="385" on="1"/>
        <pt x="387" y="319" on="1"/>
        <pt x="245" y="263" on="1"/>
        <pt x="245" y="60" on="1"/>
        <pt x="308" y="60" on="1"/>
        <pt x="330" y="60" on="0"/>
        <pt x="364" y="65" on="0"/>
        <pt x="373" y="69" on="1"/>
        <pt x="381" y="72" on="0"/>
        <pt x="392" y="83" on="0"/>
        <pt x="395" y="93" on="1"/>
        <pt x="431" y="210" on="1"/>
        <pt x="499" y="201" on="1"/>
        <pt x="499" y="155" on="0"/>
        <pt x="495" y="52" on="0"/>
      </contour>
    </TTGlyph>
    <TTGlyph name="M" xMin="15" yMin="0" xMax="823" yMax="568">
      <contour>
        <pt x="241" y="52" on="1"/>
        <pt x="241" y="0" on="1"/>
        <pt x="15" y="0" on="1"/>
        <pt x="15" y="52" on="1"/>
        <pt x="71" y="64" on="1"/>
        <pt x="78" y="66" on="0"/>
        <pt x="87" y="76" on="0"/>
        <pt x="88" y="84" on="1"/>
        <pt x="136" y="480" on="1"/>
        <pt x="137" y="489" on="0"/>
        <pt x="129" y="501" on="0"/>
        <pt x="120" y="502" on="1"/>
        <pt x="58" y="513" on="1"/>
        <pt x="58" y="568" on="1"/>
        <pt x="322" y="568" on="1"/>
        <pt x="420" y="191" on="1"/>
        <pt x="509" y="568" on="1"/>
        <pt x="773" y="568" on="1"/>
        <pt x="773" y="513" on="1"/>
        <pt x="708" y="502" on="1"/>
        <pt x="699" y="501" on="0"/>
        <pt x="691" y="489" on="0"/>
        <pt x="692" y="480" on="1"/>
        <pt x="751" y="84" on="1"/>
        <pt x="752" y="76" on="0"/>
        <pt x="762" y="66" on="0"/>
        <pt x="769" y="64" on="1"/>
        <pt x="823" y="52" on="1"/>
        <pt x="823" y="0" on="1"/>
        <pt x="549" y="0" on="1"/>
        <pt x="549" y="52" on="1"/>
        <pt x="615" y="63" on="1"/>
        <pt x="558" y="482" on="1"/>
        <pt x="449" y="20" on="1"/>
        <pt x="339" y="20" on="1"/>
        <pt x="208" y="477" on="1"/>
        <pt x="162" y="63" on="1"/>
      </contour>
    </TTGlyph>
    <TTGlyph name="N" xMin="32" yMin="0" xMax="632" yMax="568">
      <contour>
        <pt x="265" y="52" on="1"/>
        <pt x="265" y="0" on="1"/>
        <pt x="32" y="0" on="1"/>
        <pt x="32" y="52" on="1"/>
        <pt x="89" y="63" on="1"/>
        <pt x="97" y="64" on="0"/>
        <pt x="106" y="75" on="0"/>
        <pt x="106" y="83" on="1"/>
        <pt x="106" y="481" on="1"/>
        <pt x="106" y="490" on="0"/>
        <pt x="97" y="501" on="0"/>
        <pt x="89" y="502" on="1"/>
        <pt x="32" y="513" on="1"/>
        <pt x="32" y="568" on="1"/>
        <pt x="248" y="568" on="1"/>
        <pt x="486" y="180" on="1"/>
        <pt x="486" y="481" on="1"/>
        <pt x="486" y="490" on="0"/>
        <pt x="477" y="501" on="0"/>
        <pt x="469" y="502" on="1"/>
        <pt x="409" y="513" on="1"/>
        <pt x="409" y="568" on="1"/>
        <pt x="632" y="568" on="1"/>
        <pt x="632" y="513" on="1"/>
        <pt x="579" y="502" on="1"/>
        <pt x="571" y="501" on="0"/>
        <pt x="562" y="490" on="0"/>
        <pt x="562" y="481" on="1"/>
        <pt x="562" y="0" on="1"/>
        <pt x="437" y="0" on="1"/>
        <pt x="182" y="420" on="1"/>
        <pt x="182" y="83" on="1"/>
        <pt x="182" y="75" on="0"/>
        <pt x="191" y="64" on="0"/>
        <pt x="199" y="63" on="1"/>
      </contour>
    </TTGlyph>
    <TTGlyph name="Nacute" xMin="32" yMin="0" xMax="632" yMax="776">
      <component glyphName="N" x="0" y="0" flags="0x204"/>
      <component glyphName="acutecomb.case" x="333" y="0" flags="0x4"/>
    </TTGlyph>
    <TTGlyph name="Ncaron" xMin="32" yMin="0" xMax="632" yMax="771">
      <component glyphName="N" x="0" y="0" flags="0x204"/>
      <component glyphName="uni030C.case" x="333" y="0" flags="0x4"/>
    </TTGlyph>
    <TTGlyph name="Ncommaaccent" xMin="32" yMin="-225" xMax="632" yMax="568">
      <component glyphName="N" x="0" y="0" flags="0x204"/>
      <component glyphName="uni0326" x="349" y="0" flags="0x4"/>
    </TTGlyph>
    <TTGlyph name="Ntilde" xMin="32" yMin="0" xMax="632" yMax="747">
      <component glyphName="N" x="0" y="0" flags="0x204"/>
      <component glyphName="tildecomb.case" x="333" y="0" flags="0x4"/>
    </TTGlyph>
    <TTGlyph name="O" xMin="34" yMin="-12" xMax="547" yMax="580">
      <contour>
        <pt x="281" y="-12" on="1"/>
        <pt x="153" y="-12" on="0"/>
        <pt x="34" y="142" on="0"/>
        <pt x="34" y="273" on="1"/>
        <pt x="34" y="418" on="0"/>
        <pt x="170" y="580" on="0"/>
        <pt x="300" y="580" on="1"/>
        <pt x="428" y="580" on="0"/>
        <pt x="547" y="425" on="0"/>
        <pt x="547" y="294" on="1"/>
        <pt x="547" y="150" on="0"/>
        <pt x="411" y="-12" on="0"/>
      </contour>
      <contour>
        <pt x="292" y="523" on="1"/>
        <pt x="239" y="523" on="0"/>
        <pt x="185" y="409" on="0"/>
        <pt x="185" y="280" on="1"/>
        <pt x="185" y="155" on="0"/>
        <pt x="237" y="44" on="0"/>
        <pt x="289" y="44" on="1"/>
        <pt x="341" y="44" on="0"/>
        <pt x="396" y="159" on="0"/>
        <pt x="396" y="289" on="1"/>
        <pt x="396" y="414" on="0"/>
        <pt x="344" y="523" on="0"/>
      </contour>
    </TTGlyph>
    <TTGlyph name="OE" xMin="34" yMin="-8" xMax="764" yMax="575">
      <contour>
        <pt x="296" y="45" on="1"/>
        <pt x="314" y="45" on="0"/>
        <pt x="352" y="57" on="0"/>
        <pt x="368" y="70" on="1"/>
        <pt x="368" y="499" on="1"/>
        <pt x="352" y="511" on="0"/>
        <pt x="316" y="522" on="0"/>
        <pt x="300" y="522" on="1"/>
        <pt x="241" y="522" on="0"/>
        <pt x="185" y="411" on="0"/>
        <pt x="185" y="280" on="1"/>
        <pt x="185" y="152" on="0"/>
        <pt x="239" y="45" on="0"/>
      </contour>
      <contour>
        <pt x="368" y="0" on="1"/>
        <pt x="368" y="0" on="1"/>
        <pt x="349" y="-4" on="0"/>
        <pt x="308" y="-8" on="0"/>
        <pt x="286" y="-8" on="1"/>
        <pt x="155" y="-8" on="0"/>
        <pt x="34" y="140" on="0"/>
        <pt x="34" y="273" on="1"/>
        <pt x="34" y="413" on="0"/>
        <pt x="170" y="575" on="0"/>
        <pt x="298" y="575" on="1"/>
        <pt x="317" y="575" on="0"/>
        <pt x="355" y="572" on="0"/>
        <pt x="373" y="568" on="1"/>
        <pt x="731" y="568" on="1"/>
        <pt x="736" y="530" on="0"/>
        <pt x="737" y="453" on="0"/>
        <pt x="733" y="413" on="1"/>
        <pt x="669" y="413" on="1"/>
        <pt x="649" y="480" on="1"/>
        <pt x="646" y="490" on="0"/>
        <pt x="636" y="500" on="0"/>
        <pt x="628" y="504" on="1"/>
        <pt x="618" y="507" on="0"/>
        <pt x="585" y="512" on="0"/>
        <pt x="567" y="512" on="1"/>
        <pt x="506" y="512" on="1"/>
        <pt x="506" y="321" on="1"/>
        <pt x="662" y="327" on="1"/>
        <pt x="662" y="252" on="1"/>
        <pt x="506" y="256" on="1"/>
        <pt x="506" y="59" on="1"/>
        <pt x="583" y="59" on="1"/>
        <pt x="601" y="59" on="0"/>
        <pt x="639" y="63" on="0"/>
        <pt x="648" y="67" on="1"/>
        <pt x="656" y="71" on="0"/>
        <pt x="664" y="81" on="0"/>
        <pt x="668" y="91" on="1"/>
        <pt x="699" y="181" on="1"/>
        <pt x="764" y="171" on="1"/>
        <pt x="764" y="127" on="0"/>
        <pt x="757" y="44" on="0"/>
        <pt x="750" y="0" on="1"/>
      </contour>
    </TTGlyph>
    <TTGlyph name="Oacute" xMin="34" yMin="-12" xMax="547" yMax="776">
      <component glyphName="O" x="0" y="0" flags="0x204"/>
      <component glyphName="acutecomb.case" x="291" y="0" flags="0x4"/>
    </TTGlyph>
    <TTGlyph name="Obreve" xMin="34" yMin="-12" xMax="547" yMax="759">
      <component glyphName="O" x="0" y="0" flags="0x204"/>
      <component glyphName="uni0306.case" x="291" y="0" flags="0x4"/>
    </TTGlyph>
    <TTGlyph name="Ocircumflex" xMin="34" yMin="-12" xMax="547" yMax="764">
      <component glyphName="O" x="0" y="0" flags="0x204"/>
      <component glyphName="uni0302.case" x="291" y="0" flags="0x4"/>
    </TTGlyph>
    <TTGlyph name="Odieresis" xMin="34" yMin="-12" xMax="547" yMax="738">
      <component glyphName="O" x="0" y="0" flags="0x204"/>
      <component glyphName="uni0308.case" x="291" y="0" flags="0x4"/>
    </TTGlyph>
    <TTGlyph name="Ograve" xMin="34" yMin="-12" xMax="547" yMax="780">
      <component glyphName="O" x="0" y="0" flags="0x204"/>
      <component glyphName="gravecomb.case" x="291" y="0" flags="0x4"/>
    </TTGlyph>
    <TTGlyph name="Ohungarumlaut" xMin="34" yMin="-12" xMax="547" yMax="779">
      <component glyphName="O" x="0" y="0" flags="0x204"/>
      <component glyphName="uni030B.case" x="291" y="0" flags="0x4"/>
    </TTGlyph>
    <TTGlyph name="Omacron" xMin="34" yMin="-12" xMax="547" yMax="710">
      <component glyphName="O" x="0" y="0" flags="0x204"/>
      <component glyphName="uni0304.case" x="291" y="0" flags="0x4"/>
    </TTGlyph>
    <TTGlyph name="Oslash" xMin="31" yMin="-85" xMax="544" yMax="641">
      <contour>
        <pt x="174" y="280" on="1"/>
        <pt x="174" y="230" on="0"/>
        <pt x="183" y="153" on="0"/>
        <pt x="191" y="125" on="1"/>
        <pt x="358" y="494" on="1"/>
        <pt x="345" y="510" on="0"/>
        <pt x="311" y="524" on="0"/>
        <pt x="289" y="524" on="1"/>
        <pt x="232" y="524" on="0"/>
        <pt x="174" y="412" on="0"/>
      </contour>
      <contour>
        <pt x="285" y="43" on="1"/>
        <pt x="342" y="43" on="0"/>
        <pt x="400" y="157" on="0"/>
        <pt x="400" y="289" on="1"/>
        <pt x="400" y="336" on="0"/>
        <pt x="393" y="409" on="0"/>
        <pt x="386" y="436" on="1"/>
        <pt x="220" y="70" on="1"/>
        <pt x="233" y="56" on="0"/>
        <pt x="266" y="43" on="0"/>
      </contour>
      <contour>
        <pt x="278" y="-12" on="1"/>
        <pt x="255" y="-12" on="0"/>
        <pt x="212" y="-6" on="0"/>
        <pt x="193" y="-1" on="1"/>
        <pt x="152" y="-85" on="1"/>
        <pt x="93" y="-55" on="1"/>
        <pt x="133" y="26" on="1"/>
        <pt x="81" y="60" on="0"/>
        <pt x="31" y="187" on="0"/>
        <pt x="31" y="273" on="1"/>
        <pt x="31" y="418" on="0"/>
        <pt x="167" y="580" on="0"/>
        <pt x="297" y="580" on="1"/>
        <pt x="322" y="580" on="0"/>
        <pt x="367" y="574" on="0"/>
        <pt x="386" y="568" on="1"/>
        <pt x="422" y="641" on="1"/>
        <pt x="480" y="610" on="1"/>
        <pt x="445" y="540" on="1"/>
        <pt x="496" y="505" on="0"/>
        <pt x="544" y="378" on="0"/>
        <pt x="544" y="294" on="1"/>
        <pt x="544" y="150" on="0"/>
        <pt x="408" y="-12" on="0"/>
      </contour>
    </TTGlyph>
    <TTGlyph name="Otilde" xMin="34" yMin="-12" xMax="547" yMax="747">
      <component glyphName="O" x="0" y="0" flags="0x204"/>
      <component glyphName="tildecomb.case" x="291" y="0" flags="0x4"/>
    </TTGlyph>
    <TTGlyph name="P" xMin="32" yMin="0" xMax="516" yMax="572">
      <contour>
        <pt x="288" y="254" on="1"/>
        <pt x="326" y="254" on="0"/>
        <pt x="376" y="317" on="0"/>
        <pt x="376" y="401" on="1"/>
        <pt x="376" y="463" on="0"/>
        <pt x="330" y="520" on="0"/>
        <pt x="287" y="520" on="1"/>
        <pt x="268" y="520" on="0"/>
        <pt x="251" y="517" on="0"/>
        <pt x="244" y="516" on="1"/>
        <pt x="244" y="257" on="1"/>
        <pt x="254" y="256" on="0"/>
        <pt x="274" y="254" on="0"/>
      </contour>
      <contour>
        <pt x="350" y="52" on="1"/>
        <pt x="350" y="0" on="1"/>
        <pt x="32" y="0" on="1"/>
        <pt x="32" y="52" on="1"/>
        <pt x="90" y="63" on="1"/>
        <pt x="97" y="64" on="0"/>
        <pt x="106" y="74" on="0"/>
        <pt x="106" y="81" on="1"/>
        <pt x="106" y="484" on="1"/>
        <pt x="106" y="490" on="0"/>
        <pt x="98" y="500" on="0"/>
        <pt x="91" y="501" on="1"/>
        <pt x="32" y="513" on="1"/>
        <pt x="32" y="568" on="1"/>
        <pt x="177" y="568" on="1"/>
        <pt x="201" y="568" on="0"/>
        <pt x="260" y="572" on="0"/>
        <pt x="302" y="572" on="1"/>
        <pt x="426" y="571" on="0"/>
        <pt x="516" y="485" on="0"/>
        <pt x="516" y="405" on="1"/>
        <pt x="516" y="309" on="0"/>
        <pt x="402" y="201" on="0"/>
        <pt x="292" y="201" on="1"/>
        <pt x="279" y="201" on="0"/>
        <pt x="255" y="202" on="0"/>
        <pt x="244" y="203" on="1"/>
        <pt x="244" y="81" on="1"/>
        <pt x="244" y="74" on="0"/>
        <pt x="253" y="65" on="0"/>
        <pt x="260" y="64" on="1"/>
      </contour>
    </TTGlyph>
    <TTGlyph name="Q" xMin="34" yMin="-154" xMax="612" yMax="580">
      <contour>
        <pt x="495" y="-154" on="1"/>
        <pt x="453" y="-154" on="0"/>
        <pt x="396" y="-122" on="0"/>
        <pt x="349" y="-78" on="0"/>
        <pt x="301" y="-29" on="0"/>
        <pt x="269" y="-12" on="1"/>
        <pt x="148" y="-8" on="0"/>
        <pt x="34" y="147" on="0"/>
        <pt x="34" y="273" on="1"/>
        <pt x="34" y="415" on="0"/>
        <pt x="170" y="580" on="0"/>
        <pt x="300" y="580" on="1"/>
        <pt x="428" y="580" on="0"/>
        <pt x="547" y="423" on="0"/>
        <pt x="547" y="294" on="1"/>
        <pt x="547" y="181" on="0"/>
        <pt x="457" y="29" on="0"/>
        <pt x="374" y="2" on="1"/>
        <pt x="394" y="-4" on="0"/>
        <pt x="430" y="-21" on="0"/>
        <pt x="449" y="-31" on="1"/>
        <pt x="478" y="-47" on="0"/>
        <pt x="530" y="-63" on="0"/>
        <pt x="557" y="-63" on="1"/>
        <pt x="570" y="-63" on="0"/>
        <pt x="591" y="-60" on="0"/>
        <pt x="600" y="-59" on="1"/>
        <pt x="612" y="-102" on="1"/>
        <pt x="597" y="-120" on="0"/>
        <pt x="532" y="-154" on="0"/>
      </contour>
      <contour>
        <pt x="292" y="523" on="1"/>
        <pt x="239" y="523" on="0"/>
        <pt x="185" y="409" on="0"/>
        <pt x="185" y="280" on="1"/>
        <pt x="185" y="154" on="0"/>
        <pt x="237" y="44" on="0"/>
        <pt x="288" y="44" on="1"/>
        <pt x="341" y="44" on="0"/>
        <pt x="396" y="159" on="0"/>
        <pt x="396" y="289" on="1"/>
        <pt x="396" y="414" on="0"/>
        <pt x="344" y="523" on="0"/>
      </contour>
    </TTGlyph>
    <TTGlyph name="R" xMin="32" yMin="0" xMax="592" yMax="572">
      <contour>
        <pt x="243" y="517" on="1"/>
        <pt x="243" y="293" on="1"/>
        <pt x="258" y="291" on="0"/>
        <pt x="290" y="291" on="0"/>
        <pt x="299" y="291" on="1"/>
        <pt x="335" y="292" on="0"/>
        <pt x="383" y="350" on="0"/>
        <pt x="383" y="414" on="1"/>
        <pt x="383" y="472" on="0"/>
        <pt x="336" y="521" on="0"/>
        <pt x="288" y="521" on="1"/>
        <pt x="276" y="521" on="0"/>
        <pt x="253" y="518" on="0"/>
      </contour>
      <contour>
        <pt x="317" y="52" on="1"/>
        <pt x="317" y="0" on="1"/>
        <pt x="32" y="0" on="1"/>
        <pt x="32" y="52" on="1"/>
        <pt x="89" y="63" on="1"/>
        <pt x="97" y="64" on="0"/>
        <pt x="106" y="75" on="0"/>
        <pt x="106" y="83" on="1"/>
        <pt x="106" y="482" on="1"/>
        <pt x="106" y="490" on="0"/>
        <pt x="97" y="501" on="0"/>
        <pt x="89" y="502" on="1"/>
        <pt x="32" y="513" on="1"/>
        <pt x="32" y="568" on="1"/>
        <pt x="171" y="568" on="1"/>
        <pt x="202" y="568" on="0"/>
        <pt x="261" y="572" on="0"/>
        <pt x="300" y="572" on="1"/>
        <pt x="422" y="572" on="0"/>
        <pt x="528" y="502" on="0"/>
        <pt x="528" y="420" on="1"/>
        <pt x="528" y="339" on="0"/>
        <pt x="450" y="276" on="0"/>
        <pt x="406" y="263" on="1"/>
        <pt x="435" y="251" on="0"/>
        <pt x="476" y="209" on="0"/>
        <pt x="492" y="173" on="1"/>
        <pt x="532" y="85" on="1"/>
        <pt x="537" y="73" on="0"/>
        <pt x="548" y="63" on="0"/>
        <pt x="558" y="61" on="1"/>
        <pt x="592" y="52" on="1"/>
        <pt x="592" y="0" on="1"/>
        <pt x="436" y="0" on="1"/>
        <pt x="420" y="0" on="0"/>
        <pt x="395" y="40" on="0"/>
        <pt x="382" y="73" on="1"/>
        <pt x="345" y="169" on="1"/>
        <pt x="335" y="193" on="0"/>
        <pt x="316" y="229" on="0"/>
        <pt x="306" y="241" on="1"/>
        <pt x="243" y="241" on="1"/>
        <pt x="243" y="81" on="1"/>
        <pt x="243" y="73" on="0"/>
        <pt x="252" y="63" on="0"/>
        <pt x="261" y="62" on="1"/>
      </contour>
    </TTGlyph>
    <TTGlyph name="Racute" xMin="32" yMin="0" xMax="592" yMax="776">
      <component glyphName="R" x="0" y="0" flags="0x204"/>
      <component glyphName="acutecomb.case" x="289" y="0" flags="0x4"/>
    </TTGlyph>
    <TTGlyph name="Rcaron" xMin="32" yMin="0" xMax="592" yMax="771">
      <component glyphName="R" x="0" y="0" flags="0x204"/>
      <component glyphName="uni030C.case" x="289" y="0" flags="0x4"/>
    </TTGlyph>
    <TTGlyph name="Rcommaaccent" xMin="32" yMin="-225" xMax="592" yMax="572">
      <component glyphName="R" x="0" y="0" flags="0x204"/>
      <component glyphName="uni0326" x="332" y="0" flags="0x4"/>
    </TTGlyph>
    <TTGlyph name="S" xMin="39" yMin="-12" xMax="449" yMax="579">
      <contour>
        <pt x="449" y="161" on="1"/>
        <pt x="449" y="130" on="0"/>
        <pt x="426" y="68" on="0"/>
        <pt x="375" y="19" on="0"/>
        <pt x="292" y="-12" on="0"/>
        <pt x="233" y="-12" on="1"/>
        <pt x="176" y="-12" on="0"/>
        <pt x="77" y="14" on="0"/>
        <pt x="41" y="31" on="1"/>
        <pt x="39" y="71" on="0"/>
        <pt x="45" y="159" on="0"/>
        <pt x="51" y="191" on="1"/>
        <pt x="129" y="191" on="1"/>
        <pt x="143" y="97" on="1"/>
        <pt x="144" y="88" on="0"/>
        <pt x="152" y="75" on="0"/>
        <pt x="159" y="69" on="1"/>
        <pt x="169" y="59" on="0"/>
        <pt x="211" y="41" on="0"/>
        <pt x="236" y="41" on="1"/>
        <pt x="272" y="41" on="0"/>
        <pt x="312" y="81" on="0"/>
        <pt x="312" y="113" on="1"/>
        <pt x="312" y="159" on="0"/>
        <pt x="240" y="214" on="0"/>
        <pt x="191" y="239" on="1"/>
        <pt x="134" y="269" on="0"/>
        <pt x="45" y="340" on="0"/>
        <pt x="45" y="412" on="1"/>
        <pt x="45" y="483" on="0"/>
        <pt x="148" y="579" on="0"/>
        <pt x="251" y="579" on="1"/>
        <pt x="294" y="579" on="0"/>
        <pt x="383" y="562" on="0"/>
        <pt x="416" y="549" on="1"/>
        <pt x="419" y="513" on="0"/>
        <pt x="414" y="434" on="0"/>
        <pt x="408" y="399" on="1"/>
        <pt x="332" y="399" on="1"/>
        <pt x="317" y="481" on="1"/>
        <pt x="315" y="492" on="0"/>
        <pt x="308" y="506" on="0"/>
        <pt x="301" y="511" on="1"/>
        <pt x="291" y="518" on="0"/>
        <pt x="260" y="527" on="0"/>
        <pt x="244" y="527" on="1"/>
        <pt x="212" y="527" on="0"/>
        <pt x="175" y="490" on="0"/>
        <pt x="175" y="460" on="1"/>
        <pt x="175" y="418" on="0"/>
        <pt x="239" y="371" on="0"/>
        <pt x="296" y="343" on="1"/>
        <pt x="358" y="311" on="0"/>
        <pt x="449" y="228" on="0"/>
      </contour>
    </TTGlyph>
    <TTGlyph name="Sacute" xMin="39" yMin="-12" xMax="449" yMax="776">
      <component glyphName="S" x="0" y="0" flags="0x204"/>
      <component glyphName="acutecomb.case" x="248" y="0" flags="0x4"/>
    </TTGlyph>
    <TTGlyph name="Scaron" xMin="39" yMin="-12" xMax="449" yMax="771">
      <component glyphName="S" x="0" y="0" flags="0x204"/>
      <component glyphName="uni030C.case" x="248" y="0" flags="0x4"/>
    </TTGlyph>
    <TTGlyph name="Scedilla" xMin="39" yMin="-192" xMax="449" yMax="579">
      <component glyphName="S" x="0" y="0" flags="0x204"/>
      <component glyphName="uni0327" x="225" y="0" flags="0x4"/>
    </TTGlyph>
    <TTGlyph name="Scircumflex" xMin="39" yMin="-12" xMax="449" yMax="764">
      <component glyphName="S" x="0" y="0" flags="0x204"/>
      <component glyphName="uni0302.case" x="248" y="0" flags="0x4"/>
    </TTGlyph>
    <TTGlyph name="Scommaaccent" xMin="39" yMin="-225" xMax="449" yMax="579">
      <component glyphName="S" x="0" y="0" flags="0x204"/>
      <component glyphName="uni0326" x="225" y="0" flags="0x4"/>
    </TTGlyph>
    <TTGlyph name="T" xMin="19" yMin="0" xMax="566" yMax="568">
      <contour>
        <pt x="464" y="0" on="1"/>
        <pt x="121" y="0" on="1"/>
        <pt x="121" y="52" on="1"/>
        <pt x="207" y="66" on="1"/>
        <pt x="215" y="67" on="0"/>
        <pt x="224" y="77" on="0"/>
        <pt x="224" y="85" on="1"/>
        <pt x="224" y="512" on="1"/>
        <pt x="193" y="512" on="1"/>
        <pt x="179" y="512" on="0"/>
        <pt x="152" y="508" on="0"/>
        <pt x="143" y="505" on="1"/>
        <pt x="136" y="502" on="0"/>
        <pt x="127" y="492" on="0"/>
        <pt x="126" y="485" on="1"/>
        <pt x="95" y="360" on="1"/>
        <pt x="28" y="360" on="1"/>
        <pt x="22" y="416" on="0"/>
        <pt x="19" y="512" on="0"/>
        <pt x="25" y="568" on="1"/>
        <pt x="560" y="568" on="1"/>
        <pt x="566" y="512" on="0"/>
        <pt x="563" y="414" on="0"/>
        <pt x="558" y="360" on="1"/>
        <pt x="491" y="360" on="1"/>
        <pt x="458" y="486" on="1"/>
        <pt x="457" y="493" on="0"/>
        <pt x="448" y="502" on="0"/>
        <pt x="441" y="505" on="1"/>
        <pt x="433" y="508" on="0"/>
        <pt x="406" y="512" on="0"/>
        <pt x="391" y="512" on="1"/>
        <pt x="362" y="512" on="1"/>
        <pt x="362" y="85" on="1"/>
        <pt x="362" y="77" on="0"/>
        <pt x="371" y="67" on="0"/>
        <pt x="379" y="66" on="1"/>
        <pt x="464" y="52" on="1"/>
      </contour>
    </TTGlyph>
    <TTGlyph name="Tbar" xMin="19" yMin="0" xMax="566" yMax="568">
      <contour>
        <pt x="464" y="52" on="1"/>
        <pt x="464" y="0" on="1"/>
        <pt x="121" y="0" on="1"/>
        <pt x="121" y="52" on="1"/>
        <pt x="207" y="66" on="1"/>
        <pt x="215" y="67" on="0"/>
        <pt x="224" y="77" on="0"/>
        <pt x="224" y="85" on="1"/>
        <pt x="224" y="213" on="1"/>
        <pt x="136" y="213" on="1"/>
        <pt x="136" y="273" on="1"/>
        <pt x="224" y="273" on="1"/>
        <pt x="224" y="512" on="1"/>
        <pt x="193" y="512" on="1"/>
        <pt x="179" y="512" on="0"/>
        <pt x="152" y="508" on="0"/>
        <pt x="143" y="505" on="1"/>
        <pt x="136" y="502" on="0"/>
        <pt x="127" y="492" on="0"/>
        <pt x="126" y="485" on="1"/>
        <pt x="95" y="360" on="1"/>
        <pt x="28" y="360" on="1"/>
        <pt x="22" y="416" on="0"/>
        <pt x="19" y="512" on="0"/>
        <pt x="25" y="568" on="1"/>
        <pt x="560" y="568" on="1"/>
        <pt x="566" y="512" on="0"/>
        <pt x="563" y="414" on="0"/>
        <pt x="558" y="360" on="1"/>
        <pt x="491" y="360" on="1"/>
        <pt x="458" y="486" on="1"/>
        <pt x="457" y="493" on="0"/>
        <pt x="448" y="502" on="0"/>
        <pt x="441" y="505" on="1"/>
        <pt x="433" y="508" on="0"/>
        <pt x="406" y="512" on="0"/>
        <pt x="391" y="512" on="1"/>
        <pt x="362" y="512" on="1"/>
        <pt x="362" y="273" on="1"/>
        <pt x="449" y="273" on="1"/>
        <pt x="449" y="213" on="1"/>
        <pt x="362" y="213" on="1"/>
        <pt x="362" y="85" on="1"/>
        <pt x="362" y="77" on="0"/>
        <pt x="371" y="67" on="0"/>
        <pt x="379" y="66" on="1"/>
      </contour>
    </TTGlyph>
    <TTGlyph name="Tcaron" xMin="19" yMin="0" xMax="566" yMax="771">
      <component glyphName="T" x="0" y="0" flags="0x204"/>
      <component glyphName="uni030C.case" x="293" y="0" flags="0x4"/>
    </TTGlyph>
    <TTGlyph name="Thorn" xMin="34" yMin="0" xMax="509" yMax="568">
      <contour>
        <pt x="289" y="170" on="1"/>
        <pt x="324" y="170" on="0"/>
        <pt x="365" y="226" on="0"/>
        <pt x="365" y="289" on="1"/>
        <pt x="365" y="331" on="0"/>
        <pt x="330" y="393" on="0"/>
        <pt x="287" y="392" on="1"/>
        <pt x="276" y="392" on="0"/>
        <pt x="250" y="390" on="0"/>
        <pt x="237" y="389" on="1"/>
        <pt x="237" y="174" on="1"/>
        <pt x="251" y="172" on="0"/>
        <pt x="278" y="170" on="0"/>
      </contour>
      <contour>
        <pt x="314" y="52" on="1"/>
        <pt x="314" y="0" on="1"/>
        <pt x="34" y="0" on="1"/>
        <pt x="34" y="52" on="1"/>
        <pt x="84" y="63" on="1"/>
        <pt x="92" y="64" on="0"/>
        <pt x="101" y="75" on="0"/>
        <pt x="101" y="83" on="1"/>
        <pt x="101" y="481" on="1"/>
        <pt x="101" y="490" on="0"/>
        <pt x="92" y="501" on="0"/>
        <pt x="84" y="502" on="1"/>
        <pt x="34" y="513" on="1"/>
        <pt x="34" y="568" on="1"/>
        <pt x="314" y="568" on="1"/>
        <pt x="314" y="513" on="1"/>
        <pt x="254" y="502" on="1"/>
        <pt x="246" y="501" on="0"/>
        <pt x="237" y="490" on="0"/>
        <pt x="237" y="481" on="1"/>
        <pt x="237" y="441" on="1"/>
        <pt x="263" y="443" on="0"/>
        <pt x="318" y="448" on="0"/>
        <pt x="343" y="448" on="1"/>
        <pt x="426" y="448" on="0"/>
        <pt x="509" y="373" on="0"/>
        <pt x="509" y="294" on="1"/>
        <pt x="509" y="204" on="0"/>
        <pt x="408" y="118" on="0"/>
        <pt x="315" y="118" on="1"/>
        <pt x="292" y="118" on="0"/>
        <pt x="255" y="120" on="0"/>
        <pt x="237" y="122" on="1"/>
        <pt x="237" y="84" on="1"/>
        <pt x="237" y="75" on="0"/>
        <pt x="246" y="64" on="0"/>
        <pt x="254" y="63" on="1"/>
      </contour>
    </TTGlyph>
    <TTGlyph name="U" xMin="31" yMin="-9" xMax="598" yMax="568">
      <contour>
        <pt x="380" y="568" on="1"/>
        <pt x="598" y="568" on="1"/>
        <pt x="598" y="513" on="1"/>
        <pt x="558" y="503" on="1"/>
        <pt x="550" y="501" on="0"/>
        <pt x="542" y="490" on="0"/>
        <pt x="542" y="482" on="1"/>
        <pt x="542" y="210" on="1"/>
        <pt x="542" y="91" on="0"/>
        <pt x="420" y="-9" on="0"/>
        <pt x="318" y="-9" on="1"/>
        <pt x="200" y="-9" on="0"/>
        <pt x="83" y="96" on="0"/>
        <pt x="83" y="215" on="1"/>
        <pt x="83" y="482" on="1"/>
        <pt x="83" y="490" on="0"/>
        <pt x="74" y="501" on="0"/>
        <pt x="67" y="503" on="1"/>
        <pt x="31" y="513" on="1"/>
        <pt x="31" y="568" on="1"/>
        <pt x="300" y="568" on="1"/>
        <pt x="300" y="513" on="1"/>
        <pt x="242" y="501" on="1"/>
        <pt x="234" y="500" on="0"/>
        <pt x="225" y="488" on="0"/>
        <pt x="225" y="480" on="1"/>
        <pt x="225" y="203" on="1"/>
        <pt x="225" y="129" on="0"/>
        <pt x="277" y="45" on="0"/>
        <pt x="340" y="45" on="1"/>
        <pt x="406" y="45" on="0"/>
        <pt x="457" y="134" on="0"/>
        <pt x="457" y="203" on="1"/>
        <pt x="457" y="481" on="1"/>
        <pt x="457" y="490" on="0"/>
        <pt x="449" y="501" on="0"/>
        <pt x="441" y="502" on="1"/>
        <pt x="380" y="513" on="1"/>
      </contour>
    </TTGlyph>
    <TTGlyph name="Uacute" xMin="31" yMin="-9" xMax="598" yMax="776">
      <component glyphName="U" x="0" y="0" flags="0x204"/>
      <component glyphName="acutecomb.case" x="323" y="0" flags="0x4"/>
    </TTGlyph>
    <TTGlyph name="Ubreve" xMin="31" yMin="-9" xMax="598" yMax="759">
      <component glyphName="U" x="0" y="0" flags="0x204"/>
      <component glyphName="uni0306.case" x="323" y="0" flags="0x4"/>
    </TTGlyph>
    <TTGlyph name="Ucircumflex" xMin="31" yMin="-9" xMax="598" yMax="764">
      <component glyphName="U" x="0" y="0" flags="0x204"/>
      <component glyphName="uni0302.case" x="323" y="0" flags="0x4"/>
    </TTGlyph>
    <TTGlyph name="Udieresis" xMin="31" yMin="-9" xMax="598" yMax="738">
      <component glyphName="U" x="0" y="0" flags="0x204"/>
      <component glyphName="uni0308.case" x="323" y="0" flags="0x4"/>
    </TTGlyph>
    <TTGlyph name="Ugrave" xMin="31" yMin="-9" xMax="598" yMax="780">
      <component glyphName="U" x="0" y="0" flags="0x204"/>
      <component glyphName="gravecomb.case" x="323" y="0" flags="0x4"/>
    </TTGlyph>
    <TTGlyph name="Uhungarumlaut" xMin="31" yMin="-9" xMax="598" yMax="779">
      <component glyphName="U" x="0" y="0" flags="0x204"/>
      <component glyphName="uni030B.case" x="323" y="0" flags="0x4"/>
    </TTGlyph>
    <TTGlyph name="Umacron" xMin="31" yMin="-9" xMax="598" yMax="710">
      <component glyphName="U" x="0" y="0" flags="0x204"/>
      <component glyphName="uni0304.case" x="323" y="0" flags="0x4"/>
    </TTGlyph>
    <TTGlyph name="Uogonek" xMin="31" yMin="-189" xMax="598" yMax="568">
      <contour>
        <pt x="361" y="-189" on="1"/>
        <pt x="317" y="-188" on="0"/>
        <pt x="258" y="-149" on="0"/>
        <pt x="258" y="-112" on="1"/>
        <pt x="258" y="-73" on="0"/>
        <pt x="321" y="-22" on="0"/>
        <pt x="352" y="-10" on="1"/>
        <pt x="352" y="-8" on="1"/>
        <pt x="344" y="-9" on="0"/>
        <pt x="327" y="-9" on="0"/>
        <pt x="318" y="-9" on="1"/>
        <pt x="200" y="-9" on="0"/>
        <pt x="83" y="96" on="0"/>
        <pt x="83" y="215" on="1"/>
        <pt x="83" y="482" on="1"/>
        <pt x="83" y="490" on="0"/>
        <pt x="74" y="501" on="0"/>
        <pt x="67" y="503" on="1"/>
        <pt x="31" y="513" on="1"/>
        <pt x="31" y="568" on="1"/>
        <pt x="300" y="568" on="1"/>
        <pt x="300" y="513" on="1"/>
        <pt x="242" y="501" on="1"/>
        <pt x="234" y="500" on="0"/>
        <pt x="225" y="488" on="0"/>
        <pt x="225" y="480" on="1"/>
        <pt x="225" y="203" on="1"/>
        <pt x="225" y="129" on="0"/>
        <pt x="277" y="45" on="0"/>
        <pt x="340" y="45" on="1"/>
        <pt x="406" y="45" on="0"/>
        <pt x="457" y="134" on="0"/>
        <pt x="457" y="203" on="1"/>
        <pt x="457" y="481" on="1"/>
        <pt x="457" y="490" on="0"/>
        <pt x="449" y="501" on="0"/>
        <pt x="441" y="502" on="1"/>
        <pt x="380" y="513" on="1"/>
        <pt x="380" y="568" on="1"/>
        <pt x="598" y="568" on="1"/>
        <pt x="598" y="513" on="1"/>
        <pt x="558" y="503" on="1"/>
        <pt x="550" y="501" on="0"/>
        <pt x="542" y="490" on="0"/>
        <pt x="542" y="482" on="1"/>
        <pt x="542" y="210" on="1"/>
        <pt x="542" y="144" on="0"/>
        <pt x="502" y="50" on="0"/>
        <pt x="462" y="25" on="1"/>
        <pt x="461" y="24" on="1"/>
        <pt x="415" y="-5" on="0"/>
        <pt x="360" y="-57" on="0"/>
        <pt x="360" y="-83" on="1"/>
        <pt x="360" y="-102" on="0"/>
        <pt x="386" y="-119" on="0"/>
        <pt x="406" y="-119" on="1"/>
        <pt x="416" y="-119" on="0"/>
        <pt x="438" y="-114" on="0"/>
        <pt x="448" y="-110" on="1"/>
        <pt x="467" y="-161" on="1"/>
        <pt x="445" y="-174" on="0"/>
        <pt x="387" y="-189" on="0"/>
      </contour>
    </TTGlyph>
    <TTGlyph name="Uring" xMin="31" yMin="-9" xMax="598" yMax="793">
      <component glyphName="U" x="0" y="0" flags="0x204"/>
      <component glyphName="uni030A.case" x="323" y="0" flags="0x4"/>
    </TTGlyph>
    <TTGlyph name="Utilde" xMin="31" yMin="-9" xMax="598" yMax="747">
      <component glyphName="U" x="0" y="0" flags="0x204"/>
      <component glyphName="tildecomb.case" x="323" y="0" flags="0x4"/>
    </TTGlyph>
    <TTGlyph name="V" xMin="-7" yMin="-2" xMax="587" yMax="568">
      <contour>
        <pt x="359" y="-2" on="1"/>
        <pt x="236" y="-2" on="1"/>
        <pt x="58" y="485" on="1"/>
        <pt x="56" y="492" on="0"/>
        <pt x="46" y="501" on="0"/>
        <pt x="39" y="502" on="1"/>
        <pt x="-7" y="513" on="1"/>
        <pt x="-7" y="568" on="1"/>
        <pt x="267" y="568" on="1"/>
        <pt x="267" y="513" on="1"/>
        <pt x="197" y="500" on="1"/>
        <pt x="328" y="114" on="1"/>
        <pt x="445" y="500" on="1"/>
        <pt x="375" y="513" on="1"/>
        <pt x="375" y="568" on="1"/>
        <pt x="587" y="568" on="1"/>
        <pt x="587" y="513" on="1"/>
        <pt x="537" y="502" on="1"/>
        <pt x="530" y="501" on="0"/>
        <pt x="520" y="492" on="0"/>
        <pt x="518" y="485" on="1"/>
      </contour>
    </TTGlyph>
    <TTGlyph name="W" xMin="-4" yMin="-2" xMax="847" yMax="568">
      <contour>
        <pt x="518" y="-2" on="1"/>
        <pt x="423" y="329" on="1"/>
        <pt x="334" y="-2" on="1"/>
        <pt x="211" y="-2" on="1"/>
        <pt x="62" y="484" on="1"/>
        <pt x="60" y="491" on="0"/>
        <pt x="51" y="501" on="0"/>
        <pt x="44" y="502" on="1"/>
        <pt x="-4" y="513" on="1"/>
        <pt x="-4" y="568" on="1"/>
        <pt x="262" y="568" on="1"/>
        <pt x="262" y="513" on="1"/>
        <pt x="199" y="500" on="1"/>
        <pt x="300" y="113" on="1"/>
        <pt x="390" y="437" on="1"/>
        <pt x="374" y="484" on="1"/>
        <pt x="372" y="491" on="0"/>
        <pt x="363" y="500" on="0"/>
        <pt x="356" y="502" on="1"/>
        <pt x="323" y="513" on="1"/>
        <pt x="323" y="568" on="1"/>
        <pt x="582" y="568" on="1"/>
        <pt x="582" y="513" on="1"/>
        <pt x="510" y="500" on="1"/>
        <pt x="608" y="121" on="1"/>
        <pt x="707" y="500" on="1"/>
        <pt x="644" y="513" on="1"/>
        <pt x="644" y="568" on="1"/>
        <pt x="847" y="568" on="1"/>
        <pt x="847" y="513" on="1"/>
        <pt x="796" y="502" on="1"/>
        <pt x="789" y="501" on="0"/>
        <pt x="779" y="491" on="0"/>
        <pt x="777" y="484" on="1"/>
        <pt x="641" y="-2" on="1"/>
      </contour>
    </TTGlyph>
    <TTGlyph name="Wacute" xMin="-4" yMin="-2" xMax="847" yMax="776">
      <component glyphName="W" x="0" y="0" flags="0x204"/>
      <component glyphName="acutecomb.case" x="427" y="0" flags="0x4"/>
    </TTGlyph>
    <TTGlyph name="Wcircumflex" xMin="-4" yMin="-2" xMax="847" yMax="764">
      <component glyphName="W" x="0" y="0" flags="0x204"/>
      <component glyphName="uni0302.case" x="427" y="0" flags="0x4"/>
    </TTGlyph>
    <TTGlyph name="Wdieresis" xMin="-4" yMin="-2" xMax="847" yMax="738">
      <component glyphName="W" x="0" y="0" flags="0x204"/>
      <component glyphName="uni0308.case" x="427" y="0" flags="0x4"/>
    </TTGlyph>
    <TTGlyph name="Wgrave" xMin="-4" yMin="-2" xMax="847" yMax="780">
      <component glyphName="W" x="0" y="0" flags="0x204"/>
      <component glyphName="gravecomb.case" x="427" y="0" flags="0x4"/>
    </TTGlyph>
    <TTGlyph name="X" xMin="6" yMin="0" xMax="562" yMax="568">
      <contour>
        <pt x="219" y="52" on="1"/>
        <pt x="219" y="0" on="1"/>
        <pt x="6" y="0" on="1"/>
        <pt x="6" y="52" on="1"/>
        <pt x="60" y="63" on="1"/>
        <pt x="67" y="64" on="0"/>
        <pt x="76" y="70" on="0"/>
        <pt x="80" y="77" on="1"/>
        <pt x="216" y="270" on="1"/>
        <pt x="76" y="487" on="1"/>
        <pt x="72" y="493" on="0"/>
        <pt x="63" y="500" on="0"/>
        <pt x="56" y="502" on="1"/>
        <pt x="15" y="513" on="1"/>
        <pt x="15" y="568" on="1"/>
        <pt x="282" y="568" on="1"/>
        <pt x="282" y="513" on="1"/>
        <pt x="226" y="500" on="1"/>
        <pt x="312" y="358" on="1"/>
        <pt x="406" y="500" on="1"/>
        <pt x="344" y="513" on="1"/>
        <pt x="344" y="568" on="1"/>
        <pt x="545" y="568" on="1"/>
        <pt x="545" y="513" on="1"/>
        <pt x="496" y="502" on="1"/>
        <pt x="489" y="501" on="0"/>
        <pt x="479" y="494" on="0"/>
        <pt x="475" y="488" on="1"/>
        <pt x="348" y="310" on="1"/>
        <pt x="500" y="77" on="1"/>
        <pt x="504" y="71" on="0"/>
        <pt x="514" y="64" on="0"/>
        <pt x="521" y="63" on="1"/>
        <pt x="562" y="52" on="1"/>
        <pt x="562" y="0" on="1"/>
        <pt x="292" y="0" on="1"/>
        <pt x="292" y="52" on="1"/>
        <pt x="348" y="64" on="1"/>
        <pt x="253" y="220" on="1"/>
        <pt x="151" y="64" on="1"/>
      </contour>
    </TTGlyph>
    <TTGlyph name="Y" xMin="-9" yMin="0" xMax="546" yMax="568">
      <contour>
        <pt x="436" y="0" on="1"/>
        <pt x="121" y="0" on="1"/>
        <pt x="121" y="52" on="1"/>
        <pt x="190" y="66" on="1"/>
        <pt x="198" y="67" on="0"/>
        <pt x="207" y="77" on="0"/>
        <pt x="207" y="85" on="1"/>
        <pt x="207" y="223" on="1"/>
        <pt x="57" y="487" on="1"/>
        <pt x="53" y="493" on="0"/>
        <pt x="43" y="501" on="0"/>
        <pt x="36" y="502" on="1"/>
        <pt x="-9" y="513" on="1"/>
        <pt x="-9" y="568" on="1"/>
        <pt x="268" y="568" on="1"/>
        <pt x="268" y="513" on="1"/>
        <pt x="211" y="499" on="1"/>
        <pt x="312" y="302" on="1"/>
        <pt x="407" y="499" on="1"/>
        <pt x="343" y="513" on="1"/>
        <pt x="343" y="568" on="1"/>
        <pt x="546" y="568" on="1"/>
        <pt x="546" y="513" on="1"/>
        <pt x="504" y="503" on="1"/>
        <pt x="497" y="501" on="0"/>
        <pt x="487" y="494" on="0"/>
        <pt x="484" y="488" on="1"/>
        <pt x="349" y="221" on="1"/>
        <pt x="349" y="85" on="1"/>
        <pt x="349" y="77" on="0"/>
        <pt x="358" y="67" on="0"/>
        <pt x="367" y="66" on="1"/>
        <pt x="436" y="52" on="1"/>
      </contour>
    </TTGlyph>
    <TTGlyph name="Yacute" xMin="-9" yMin="0" xMax="546" yMax="776">
      <component glyphName="Y" x="0" y="0" flags="0x204"/>
      <component glyphName="acutecomb.case" x="287" y="0" flags="0x4"/>
    </TTGlyph>
    <TTGlyph name="Ycircumflex" xMin="-9" yMin="0" xMax="546" yMax="764">
      <component glyphName="Y" x="0" y="0" flags="0x204"/>
      <component glyphName="uni0302.case" x="287" y="0" flags="0x4"/>
    </TTGlyph>
    <TTGlyph name="Ydieresis" xMin="-9" yMin="0" xMax="546" yMax="738">
      <component glyphName="Y" x="0" y="0" flags="0x204"/>
      <component glyphName="uni0308.case" x="287" y="0" flags="0x4"/>
    </TTGlyph>
    <TTGlyph name="Ygrave" xMin="-9" yMin="0" xMax="546" yMax="780">
      <component glyphName="Y" x="0" y="0" flags="0x204"/>
      <component glyphName="gravecomb.case" x="287" y="0" flags="0x4"/>
    </TTGlyph>
    <TTGlyph name="Z" xMin="18" yMin="0" xMax="484" yMax="569">
      <contour>
        <pt x="467" y="0" on="1"/>
        <pt x="44" y="0" on="1"/>
        <pt x="18" y="45" on="1"/>
        <pt x="322" y="514" on="1"/>
        <pt x="253" y="514" on="1"/>
        <pt x="231" y="514" on="0"/>
        <pt x="197" y="510" on="0"/>
        <pt x="187" y="506" on="1"/>
        <pt x="179" y="503" on="0"/>
        <pt x="169" y="492" on="0"/>
        <pt x="165" y="483" on="1"/>
        <pt x="132" y="381" on="1"/>
        <pt x="56" y="381" on="1"/>
        <pt x="54" y="427" on="0"/>
        <pt x="60" y="526" on="0"/>
        <pt x="68" y="569" on="1"/>
        <pt x="465" y="569" on="1"/>
        <pt x="484" y="523" on="1"/>
        <pt x="188" y="60" on="1"/>
        <pt x="283" y="60" on="1"/>
        <pt x="305" y="60" on="0"/>
        <pt x="339" y="64" on="0"/>
        <pt x="349" y="68" on="1"/>
        <pt x="356" y="71" on="0"/>
        <pt x="367" y="82" on="0"/>
        <pt x="370" y="92" on="1"/>
        <pt x="407" y="198" on="1"/>
        <pt x="481" y="188" on="1"/>
        <pt x="482" y="150" on="0"/>
        <pt x="474" y="41" on="0"/>
      </contour>
    </TTGlyph>
    <TTGlyph name="Zacute" xMin="18" yMin="0" xMax="484" yMax="776">
      <component glyphName="Z" x="0" y="0" flags="0x204"/>
      <component glyphName="acutecomb.case" x="276" y="0" flags="0x4"/>
    </TTGlyph>
    <TTGlyph name="Zcaron" xMin="18" yMin="0" xMax="484" yMax="771">
      <component glyphName="Z" x="0" y="0" flags="0x204"/>
      <component glyphName="uni030C.case" x="276" y="0" flags="0x4"/>
    </TTGlyph>
    <TTGlyph name="Zdotaccent" xMin="18" yMin="0" xMax="484" yMax="753">
      <component glyphName="Z" x="0" y="0" flags="0x204"/>
      <component glyphName="uni0307.case" x="276" y="0" flags="0x4"/>
    </TTGlyph>
    <TTGlyph name="__periodcentered.CAT" xMin="-39" yMin="209" xMax="108" yMax="343">
      <contour>
        <pt x="108" y="276" on="1"/>
        <pt x="108" y="245" on="0"/>
        <pt x="68" y="209" on="0"/>
        <pt x="35" y="209" on="1"/>
        <pt x="1" y="209" on="0"/>
        <pt x="-39" y="245" on="0"/>
        <pt x="-39" y="276" on="1"/>
        <pt x="-39" y="307" on="0"/>
        <pt x="1" y="343" on="0"/>
        <pt x="35" y="343" on="1"/>
        <pt x="68" y="343" on="0"/>
        <pt x="108" y="307" on="0"/>
      </contour>
    </TTGlyph>
    <TTGlyph name="__periodcentered.CAT.case" xMin="-153" yMin="265" xMax="-7" yMax="399">
      <contour>
        <pt x="-7" y="332" on="1"/>
        <pt x="-7" y="301" on="0"/>
        <pt x="-47" y="265" on="0"/>
        <pt x="-80" y="265" on="1"/>
        <pt x="-114" y="265" on="0"/>
        <pt x="-153" y="301" on="0"/>
        <pt x="-153" y="332" on="1"/>
        <pt x="-153" y="363" on="0"/>
        <pt x="-114" y="399" on="0"/>
        <pt x="-80" y="399" on="1"/>
        <pt x="-47" y="399" on="0"/>
        <pt x="-7" y="363" on="0"/>
      </contour>
    </TTGlyph>
    <TTGlyph name="a" xMin="24" yMin="-8" xMax="441" yMax="424">
      <contour>
        <pt x="201" y="64" on="1"/>
        <pt x="217" y="64" on="0"/>
        <pt x="247" y="74" on="0"/>
        <pt x="259" y="82" on="1"/>
        <pt x="259" y="172" on="1"/>
        <pt x="219" y="169" on="1"/>
        <pt x="184" y="168" on="0"/>
        <pt x="158" y="133" on="0"/>
        <pt x="158" y="109" on="1"/>
        <pt x="158" y="87" on="0"/>
        <pt x="178" y="64" on="0"/>
      </contour>
      <contour>
        <pt x="355" y="-7" on="1"/>
        <pt x="324" y="-7" on="0"/>
        <pt x="279" y="15" on="0"/>
        <pt x="267" y="42" on="1"/>
        <pt x="246" y="17" on="0"/>
        <pt x="183" y="-8" on="0"/>
        <pt x="145" y="-8" on="1"/>
        <pt x="90" y="-8" on="0"/>
        <pt x="24" y="48" on="0"/>
        <pt x="24" y="94" on="1"/>
        <pt x="24" y="152" on="0"/>
        <pt x="122" y="212" on="0"/>
        <pt x="185" y="216" on="1"/>
        <pt x="259" y="220" on="1"/>
        <pt x="259" y="261" on="1"/>
        <pt x="259" y="305" on="0"/>
        <pt x="218" y="339" on="0"/>
        <pt x="180" y="339" on="1"/>
        <pt x="147" y="339" on="0"/>
        <pt x="90" y="318" on="0"/>
        <pt x="66" y="296" on="1"/>
        <pt x="36" y="322" on="1"/>
        <pt x="54" y="369" on="0"/>
        <pt x="145" y="424" on="0"/>
        <pt x="219" y="424" on="1"/>
        <pt x="307" y="424" on="0"/>
        <pt x="386" y="342" on="0"/>
        <pt x="386" y="263" on="1"/>
        <pt x="386" y="83" on="1"/>
        <pt x="386" y="72" on="0"/>
        <pt x="396" y="62" on="0"/>
        <pt x="405" y="61" on="1"/>
        <pt x="441" y="56" on="1"/>
        <pt x="441" y="7" on="1"/>
        <pt x="426" y="3" on="0"/>
        <pt x="377" y="-7" on="0"/>
      </contour>
    </TTGlyph>
    <TTGlyph name="aacute" xMin="24" yMin="-8" xMax="441" yMax="659">
      <component glyphName="a" x="0" y="0" flags="0x204"/>
      <component glyphName="acutecomb" x="220" y="0" flags="0x4"/>
    </TTGlyph>
    <TTGlyph name="abreve" xMin="24" yMin="-8" xMax="441" yMax="621">
      <component glyphName="a" x="0" y="0" flags="0x204"/>
      <component glyphName="uni0306" x="220" y="0" flags="0x4"/>
    </TTGlyph>
    <TTGlyph name="acircumflex" xMin="24" yMin="-8" xMax="441" yMax="647">
      <component glyphName="a" x="0" y="0" flags="0x204"/>
      <component glyphName="uni0302" x="220" y="0" flags="0x4"/>
    </TTGlyph>
    <TTGlyph name="acute" xMin="113" yMin="455" xMax="329" yMax="659">
      <component glyphName="acutecomb" x="182" y="0" flags="0x4"/>
    </TTGlyph>
    <TTGlyph name="acutecomb" xMin="-69" yMin="455" xMax="147" yMax="659">
      <contour>
        <pt x="-36" y="455" on="1"/>
        <pt x="-69" y="495" on="1"/>
        <pt x="75" y="659" on="1"/>
        <pt x="147" y="592" on="1"/>
        <pt x="119" y="558" on="0"/>
        <pt x="19" y="485" on="0"/>
      </contour>
    </TTGlyph>
    <TTGlyph name="acutecomb.case" xMin="-97" yMin="607" xMax="151" yMax="776">
      <contour>
        <pt x="151" y="695" on="1"/>
        <pt x="111" y="667" on="0"/>
        <pt x="-20" y="622" on="0"/>
        <pt x="-74" y="607" on="1"/>
        <pt x="-97" y="652" on="1"/>
        <pt x="96" y="776" on="1"/>
      </contour>
    </TTGlyph>
    <TTGlyph name="adieresis" xMin="24" yMin="-8" xMax="441" yMax="601">
      <component glyphName="a" x="0" y="0" flags="0x204"/>
      <component glyphName="uni0308" x="220" y="0" flags="0x4"/>
    </TTGlyph>
    <TTGlyph name="ae" xMin="24" yMin="-9" xMax="623" yMax="424">
      <contour>
        <pt x="449" y="371" on="1"/>
        <pt x="426" y="371" on="0"/>
        <pt x="392" y="327" on="0"/>
        <pt x="388" y="273" on="1"/>
        <pt x="503" y="273" on="1"/>
        <pt x="503" y="290" on="1"/>
        <pt x="503" y="324" on="0"/>
        <pt x="477" y="371" on="0"/>
      </contour>
      <contour>
        <pt x="620" y="91" on="1"/>
        <pt x="604" y="40" on="0"/>
        <pt x="508" y="-9" on="0"/>
        <pt x="448" y="-9" on="1"/>
        <pt x="394" y="-9" on="0"/>
        <pt x="318" y="27" on="0"/>
        <pt x="295" y="61" on="1"/>
        <pt x="273" y="29" on="0"/>
        <pt x="197" y="-8" on="0"/>
        <pt x="149" y="-8" on="1"/>
        <pt x="89" y="-8" on="0"/>
        <pt x="24" y="47" on="0"/>
        <pt x="24" y="93" on="1"/>
        <pt x="24" y="152" on="0"/>
        <pt x="122" y="213" on="0"/>
        <pt x="185" y="216" on="1"/>
        <pt x="259" y="221" on="1"/>
        <pt x="259" y="261" on="1"/>
        <pt x="259" y="304" on="0"/>
        <pt x="215" y="339" on="0"/>
        <pt x="177" y="339" on="1"/>
        <pt x="147" y="339" on="0"/>
        <pt x="89" y="318" on="0"/>
        <pt x="66" y="296" on="1"/>
        <pt x="36" y="322" on="1"/>
        <pt x="54" y="371" on="0"/>
        <pt x="146" y="424" on="0"/>
        <pt x="209" y="424" on="1"/>
        <pt x="250" y="424" on="0"/>
        <pt x="307" y="401" on="0"/>
        <pt x="324" y="379" on="1"/>
        <pt x="349" y="401" on="0"/>
        <pt x="417" y="424" on="0"/>
        <pt x="460" y="424" on="1"/>
        <pt x="544" y="424" on="0"/>
        <pt x="623" y="344" on="0"/>
        <pt x="623" y="283" on="1"/>
        <pt x="623" y="270" on="0"/>
        <pt x="619" y="238" on="0"/>
        <pt x="617" y="225" on="1"/>
        <pt x="386" y="225" on="1"/>
        <pt x="387" y="142" on="0"/>
        <pt x="436" y="71" on="0"/>
        <pt x="488" y="71" on="1"/>
        <pt x="516" y="71" on="0"/>
        <pt x="573" y="91" on="0"/>
        <pt x="591" y="112" on="1"/>
      </contour>
      <contour>
        <pt x="201" y="64" on="1"/>
        <pt x="221" y="64" on="0"/>
        <pt x="260" y="81" on="0"/>
        <pt x="277" y="94" on="1"/>
        <pt x="270" y="111" on="0"/>
        <pt x="261" y="150" on="0"/>
        <pt x="260" y="172" on="1"/>
        <pt x="219" y="169" on="1"/>
        <pt x="183" y="168" on="0"/>
        <pt x="158" y="132" on="0"/>
        <pt x="158" y="109" on="1"/>
        <pt x="158" y="87" on="0"/>
        <pt x="178" y="64" on="0"/>
      </contour>
    </TTGlyph>
    <TTGlyph name="agrave" xMin="24" yMin="-8" xMax="441" yMax="659">
      <component glyphName="a" x="0" y="0" flags="0x204"/>
      <component glyphName="gravecomb" x="220" y="0" flags="0x4"/>
    </TTGlyph>
    <TTGlyph name="amacron" xMin="24" yMin="-8" xMax="441" yMax="568">
      <component glyphName="a" x="0" y="0" flags="0x204"/>
      <component glyphName="uni0304" x="220" y="0" flags="0x4"/>
    </TTGlyph>
    <TTGlyph name="ampersand" xMin="29" yMin="-11" xMax="581" yMax="579">
      <contour>
        <pt x="207" y="461" on="1"/>
        <pt x="207" y="436" on="0"/>
        <pt x="227" y="384" on="0"/>
        <pt x="258" y="341" on="1"/>
        <pt x="285" y="367" on="0"/>
        <pt x="306" y="432" on="0"/>
        <pt x="306" y="462" on="1"/>
        <pt x="306" y="502" on="0"/>
        <pt x="280" y="536" on="0"/>
        <pt x="260" y="536" on="1"/>
        <pt x="236" y="536" on="0"/>
        <pt x="207" y="498" on="0"/>
      </contour>
      <contour>
        <pt x="258" y="46" on="1"/>
        <pt x="273" y="46" on="0"/>
        <pt x="311" y="53" on="0"/>
        <pt x="330" y="63" on="1"/>
        <pt x="288" y="101" on="0"/>
        <pt x="205" y="200" on="0"/>
        <pt x="178" y="234" on="1"/>
        <pt x="165" y="220" on="0"/>
        <pt x="148" y="184" on="0"/>
        <pt x="148" y="156" on="1"/>
        <pt x="148" y="107" on="0"/>
        <pt x="207" y="46" on="0"/>
      </contour>
      <contour>
        <pt x="477" y="-7" on="1"/>
        <pt x="451" y="-7" on="0"/>
        <pt x="400" y="9" on="0"/>
        <pt x="371" y="30" on="1"/>
        <pt x="343" y="10" on="0"/>
        <pt x="265" y="-11" on="0"/>
        <pt x="223" y="-11" on="1"/>
        <pt x="139" y="-11" on="0"/>
        <pt x="29" y="59" on="0"/>
        <pt x="29" y="137" on="1"/>
        <pt x="29" y="205" on="0"/>
        <pt x="106" y="268" on="0"/>
        <pt x="145" y="278" on="1"/>
        <pt x="117" y="318" on="0"/>
        <pt x="85" y="392" on="0"/>
        <pt x="85" y="430" on="1"/>
        <pt x="85" y="497" on="0"/>
        <pt x="184" y="579" on="0"/>
        <pt x="265" y="579" on="1"/>
        <pt x="340" y="579" on="0"/>
        <pt x="417" y="510" on="0"/>
        <pt x="417" y="452" on="1"/>
        <pt x="417" y="401" on="0"/>
        <pt x="353" y="322" on="0"/>
        <pt x="287" y="302" on="1"/>
        <pt x="315" y="267" on="0"/>
        <pt x="390" y="179" on="0"/>
        <pt x="425" y="143" on="1"/>
        <pt x="438" y="164" on="0"/>
        <pt x="448" y="210" on="0"/>
        <pt x="448" y="229" on="1"/>
        <pt x="448" y="239" on="0"/>
        <pt x="443" y="250" on="0"/>
        <pt x="435" y="252" on="1"/>
        <pt x="379" y="264" on="1"/>
        <pt x="379" y="319" on="1"/>
        <pt x="581" y="319" on="1"/>
        <pt x="581" y="264" on="1"/>
        <pt x="544" y="252" on="1"/>
        <pt x="536" y="250" on="0"/>
        <pt x="531" y="241" on="0"/>
        <pt x="530" y="231" on="1"/>
        <pt x="523" y="197" on="0"/>
        <pt x="490" y="134" on="0"/>
        <pt x="460" y="109" on="1"/>
        <pt x="494" y="78" on="0"/>
        <pt x="541" y="63" on="0"/>
        <pt x="577" y="63" on="1"/>
        <pt x="577" y="9" on="1"/>
        <pt x="557" y="2" on="0"/>
        <pt x="501" y="-7" on="0"/>
      </contour>
    </TTGlyph>
    <TTGlyph name="aogonek" xMin="24" yMin="-189" xMax="441" yMax="424">
      <contour>
        <pt x="329" y="-189" on="1"/>
        <pt x="286" y="-188" on="0"/>
        <pt x="228" y="-150" on="0"/>
        <pt x="228" y="-112" on="1"/>
        <pt x="228" y="-75" on="0"/>
        <pt x="289" y="-18" on="0"/>
        <pt x="327" y="-5" on="1"/>
        <pt x="327" y="-5" on="1"/>
        <pt x="307" y="-1" on="0"/>
        <pt x="276" y="21" on="0"/>
        <pt x="267" y="42" on="1"/>
        <pt x="246" y="17" on="0"/>
        <pt x="183" y="-8" on="0"/>
        <pt x="145" y="-8" on="1"/>
        <pt x="90" y="-8" on="0"/>
        <pt x="24" y="48" on="0"/>
        <pt x="24" y="94" on="1"/>
        <pt x="24" y="152" on="0"/>
        <pt x="122" y="212" on="0"/>
        <pt x="185" y="216" on="1"/>
        <pt x="259" y="220" on="1"/>
        <pt x="259" y="261" on="1"/>
        <pt x="259" y="305" on="0"/>
        <pt x="218" y="339" on="0"/>
        <pt x="180" y="339" on="1"/>
        <pt x="147" y="339" on="0"/>
        <pt x="90" y="318" on="0"/>
        <pt x="66" y="296" on="1"/>
        <pt x="36" y="322" on="1"/>
        <pt x="54" y="369" on="0"/>
        <pt x="145" y="424" on="0"/>
        <pt x="219" y="424" on="1"/>
        <pt x="307" y="424" on="0"/>
        <pt x="386" y="342" on="0"/>
        <pt x="386" y="263" on="1"/>
        <pt x="386" y="83" on="1"/>
        <pt x="386" y="72" on="0"/>
        <pt x="396" y="62" on="0"/>
        <pt x="405" y="61" on="1"/>
        <pt x="441" y="56" on="1"/>
        <pt x="441" y="7" on="1"/>
        <pt x="435" y="6" on="0"/>
        <pt x="419" y="1" on="0"/>
        <pt x="410" y="0" on="1"/>
        <pt x="373" y="-13" on="0"/>
        <pt x="328" y="-59" on="0"/>
        <pt x="328" y="-82" on="1"/>
        <pt x="328" y="-101" on="0"/>
        <pt x="355" y="-119" on="0"/>
        <pt x="374" y="-119" on="1"/>
        <pt x="384" y="-119" on="0"/>
        <pt x="405" y="-114" on="0"/>
        <pt x="415" y="-110" on="1"/>
        <pt x="433" y="-161" on="1"/>
        <pt x="412" y="-174" on="0"/>
        <pt x="355" y="-189" on="0"/>
      </contour>
      <contour>
        <pt x="201" y="64" on="1"/>
        <pt x="217" y="64" on="0"/>
        <pt x="247" y="74" on="0"/>
        <pt x="259" y="82" on="1"/>
        <pt x="259" y="172" on="1"/>
        <pt x="219" y="169" on="1"/>
        <pt x="184" y="168" on="0"/>
        <pt x="158" y="133" on="0"/>
        <pt x="158" y="109" on="1"/>
        <pt x="158" y="87" on="0"/>
        <pt x="178" y="64" on="0"/>
      </contour>
    </TTGlyph>
    <TTGlyph name="approxequal" xMin="39" yMin="68" xMax="430" yMax="377">
      <component glyphName="asciitilde" x="1" y="-85" flags="0x4"/>
      <component glyphName="asciitilde" x="1" y="85" flags="0x4"/>
    </TTGlyph>
    <TTGlyph name="aring" xMin="24" yMin="-8" xMax="441" yMax="652">
      <component glyphName="a" x="0" y="0" flags="0x204"/>
      <component glyphName="uni030A" x="220" y="0" flags="0x4"/>
    </TTGlyph>
    <TTGlyph name="asciicircum" xMin="27" yMin="271" xMax="447" yMax="566">
      <contour>
        <pt x="393" y="271" on="1"/>
        <pt x="230" y="453" on="1"/>
        <pt x="73" y="271" on="1"/>
        <pt x="27" y="308" on="1"/>
        <pt x="181" y="558" on="1"/>
        <pt x="278" y="566" on="1"/>
        <pt x="447" y="308" on="1"/>
      </contour>
    </TTGlyph>
    <TTGlyph name="asciitilde" xMin="38" yMin="153" xMax="429" yMax="292">
      <contour>
        <pt x="429" y="258" on="1"/>
        <pt x="408" y="209" on="0"/>
        <pt x="339" y="153" on="0"/>
        <pt x="302" y="153" on="1"/>
        <pt x="259" y="153" on="0"/>
        <pt x="183" y="203" on="0"/>
        <pt x="149" y="203" on="1"/>
        <pt x="127" y="203" on="0"/>
        <pt x="90" y="177" on="0"/>
        <pt x="74" y="159" on="1"/>
        <pt x="38" y="187" on="1"/>
        <pt x="58" y="237" on="0"/>
        <pt x="128" y="292" on="0"/>
        <pt x="165" y="292" on="1"/>
        <pt x="208" y="292" on="0"/>
        <pt x="284" y="242" on="0"/>
        <pt x="318" y="242" on="1"/>
        <pt x="340" y="242" on="0"/>
        <pt x="377" y="268" on="0"/>
        <pt x="393" y="287" on="1"/>
      </contour>
    </TTGlyph>
    <TTGlyph name="asterisk" xMin="39" yMin="288" xMax="404" yMax="651">
      <contour>
        <pt x="266" y="344" on="1"/>
        <pt x="273" y="288" on="1"/>
        <pt x="170" y="288" on="1"/>
        <pt x="177" y="344" on="1"/>
        <pt x="204" y="440" on="1"/>
        <pt x="135" y="368" on="1"/>
        <pt x="90" y="335" on="1"/>
        <pt x="39" y="423" on="1"/>
        <pt x="91" y="445" on="1"/>
        <pt x="187" y="469" on="1"/>
        <pt x="91" y="493" on="1"/>
        <pt x="39" y="516" on="1"/>
        <pt x="90" y="604" on="1"/>
        <pt x="135" y="571" on="1"/>
        <pt x="204" y="499" on="1"/>
        <pt x="177" y="595" on="1"/>
        <pt x="170" y="651" on="1"/>
        <pt x="273" y="651" on="1"/>
        <pt x="266" y="595" on="1"/>
        <pt x="239" y="499" on="1"/>
        <pt x="308" y="571" on="1"/>
        <pt x="353" y="604" on="1"/>
        <pt x="404" y="516" on="1"/>
        <pt x="352" y="493" on="1"/>
        <pt x="256" y="469" on="1"/>
        <pt x="352" y="445" on="1"/>
        <pt x="404" y="423" on="1"/>
        <pt x="353" y="335" on="1"/>
        <pt x="308" y="368" on="1"/>
        <pt x="239" y="440" on="1"/>
      </contour>
    </TTGlyph>
    <TTGlyph name="at" xMin="28" yMin="-192" xMax="740" yMax="569">
      <contour>
        <pt x="333" y="-192" on="1"/>
        <pt x="193" y="-192" on="0"/>
        <pt x="31" y="-21" on="0"/>
        <pt x="29" y="121" on="1"/>
        <pt x="28" y="216" on="0"/>
        <pt x="95" y="380" on="0"/>
        <pt x="210" y="500" on="0"/>
        <pt x="365" y="569" on="0"/>
        <pt x="452" y="569" on="1"/>
        <pt x="577" y="569" on="0"/>
        <pt x="740" y="424" on="0"/>
        <pt x="740" y="293" on="1"/>
        <pt x="740" y="217" on="0"/>
        <pt x="686" y="100" on="0"/>
        <pt x="611" y="24" on="0"/>
        <pt x="532" y="-15" on="0"/>
        <pt x="508" y="-15" on="1"/>
        <pt x="484" y="-15" on="0"/>
        <pt x="454" y="23" on="0"/>
        <pt x="454" y="60" on="1"/>
        <pt x="454" y="74" on="0"/>
        <pt x="460" y="123" on="0"/>
        <pt x="465" y="158" on="1"/>
        <pt x="441" y="90" on="0"/>
        <pt x="363" y="-24" on="0"/>
        <pt x="311" y="-24" on="1"/>
        <pt x="268" y="-24" on="0"/>
        <pt x="194" y="63" on="0"/>
        <pt x="194" y="142" on="1"/>
        <pt x="194" y="188" on="0"/>
        <pt x="222" y="279" on="0"/>
        <pt x="275" y="351" on="0"/>
        <pt x="352" y="396" on="0"/>
        <pt x="399" y="396" on="1"/>
        <pt x="419" y="396" on="0"/>
        <pt x="462" y="385" on="0"/>
        <pt x="489" y="371" on="1"/>
        <pt x="513" y="396" on="1"/>
        <pt x="584" y="374" on="1"/>
        <pt x="583" y="367" on="0"/>
        <pt x="569" y="304" on="0"/>
        <pt x="554" y="223" on="0"/>
        <pt x="542" y="138" on="0"/>
        <pt x="542" y="109" on="1"/>
        <pt x="542" y="84" on="0"/>
        <pt x="552" y="63" on="0"/>
        <pt x="563" y="63" on="1"/>
        <pt x="575" y="63" on="0"/>
        <pt x="611" y="89" on="0"/>
        <pt x="643" y="139" on="0"/>
        <pt x="667" y="215" on="0"/>
        <pt x="667" y="264" on="1"/>
        <pt x="667" y="332" on="0"/>
        <pt x="621" y="425" on="0"/>
        <pt x="549" y="480" on="0"/>
        <pt x="461" y="504" on="0"/>
        <pt x="418" y="504" on="1"/>
        <pt x="284" y="504" on="0"/>
        <pt x="112" y="310" on="0"/>
        <pt x="112" y="154" on="1"/>
        <pt x="112" y="80" on="0"/>
        <pt x="151" y="-26" on="0"/>
        <pt x="217" y="-94" on="0"/>
        <pt x="306" y="-126" on="0"/>
        <pt x="355" y="-126" on="1"/>
        <pt x="395" y="-126" on="0"/>
        <pt x="481" y="-108" on="0"/>
        <pt x="502" y="-94" on="1"/>
        <pt x="522" y="-137" on="1"/>
        <pt x="491" y="-163" on="0"/>
        <pt x="389" y="-192" on="0"/>
      </contour>
      <contour>
        <pt x="338" y="73" on="1"/>
        <pt x="361" y="73" on="0"/>
        <pt x="426" y="166" on="0"/>
        <pt x="449" y="244" on="1"/>
        <pt x="453" y="256" on="0"/>
        <pt x="459" y="279" on="0"/>
        <pt x="461" y="289" on="1"/>
        <pt x="447" y="307" on="0"/>
        <pt x="403" y="329" on="0"/>
        <pt x="384" y="329" on="1"/>
        <pt x="340" y="329" on="0"/>
        <pt x="296" y="229" on="0"/>
        <pt x="296" y="176" on="1"/>
        <pt x="296" y="141" on="0"/>
        <pt x="316" y="73" on="0"/>
      </contour>
    </TTGlyph>
    <TTGlyph name="atilde" xMin="24" yMin="-8" xMax="441" yMax="607">
      <component glyphName="a" x="0" y="0" flags="0x204"/>
      <component glyphName="tildecomb" x="220" y="0" flags="0x4"/>
    </TTGlyph>
    <TTGlyph name="b" xMin="-9" yMin="-8" xMax="453" yMax="655">
      <contour>
        <pt x="220" y="-8" on="1"/>
        <pt x="172" y="-8" on="0"/>
        <pt x="77" y="10" on="0"/>
        <pt x="55" y="20" on="1"/>
        <pt x="55" y="552" on="1"/>
        <pt x="55" y="560" on="0"/>
        <pt x="46" y="571" on="0"/>
        <pt x="38" y="572" on="1"/>
        <pt x="-9" y="580" on="1"/>
        <pt x="-9" y="632" on="1"/>
        <pt x="29" y="642" on="0"/>
        <pt x="130" y="654" on="0"/>
        <pt x="168" y="655" on="1"/>
        <pt x="186" y="639" on="1"/>
        <pt x="186" y="380" on="1"/>
        <pt x="208" y="402" on="0"/>
        <pt x="265" y="425" on="0"/>
        <pt x="299" y="425" on="1"/>
        <pt x="364" y="425" on="0"/>
        <pt x="453" y="329" on="0"/>
        <pt x="453" y="228" on="1"/>
        <pt x="453" y="116" on="0"/>
        <pt x="333" y="-8" on="0"/>
      </contour>
      <contour>
        <pt x="229" y="43" on="1"/>
        <pt x="270" y="43" on="0"/>
        <pt x="313" y="120" on="0"/>
        <pt x="314" y="204" on="1"/>
        <pt x="315" y="286" on="0"/>
        <pt x="276" y="348" on="0"/>
        <pt x="239" y="348" on="1"/>
        <pt x="226" y="348" on="0"/>
        <pt x="199" y="342" on="0"/>
        <pt x="186" y="335" on="1"/>
        <pt x="186" y="53" on="1"/>
        <pt x="194" y="49" on="0"/>
        <pt x="216" y="43" on="0"/>
      </contour>
    </TTGlyph>
    <TTGlyph name="backslash" xMin="18" yMin="-105" xMax="355" yMax="633">
      <contour>
        <pt x="355" y="-105" on="1"/>
        <pt x="253" y="-105" on="1"/>
        <pt x="18" y="633" on="1"/>
        <pt x="121" y="633" on="1"/>
      </contour>
    </TTGlyph>
    <TTGlyph name="bar" xMin="70" yMin="-116" xMax="168" yMax="693">
      <contour>
        <pt x="70" y="-116" on="1"/>
        <pt x="70" y="693" on="1"/>
        <pt x="168" y="693" on="1"/>
        <pt x="167" y="-116" on="1"/>
      </contour>
    </TTGlyph>
    <TTGlyph name="braceleft" xMin="6" yMin="-154" xMax="324" yMax="722">
      <contour>
        <pt x="324" y="-97" on="1"/>
        <pt x="316" y="-154" on="1"/>
        <pt x="296" y="-154" on="0"/>
        <pt x="240" y="-151" on="0"/>
        <pt x="218" y="-148" on="1"/>
        <pt x="146" y="-141" on="0"/>
        <pt x="80" y="-71" on="0"/>
        <pt x="80" y="-16" on="1"/>
        <pt x="80" y="32" on="0"/>
        <pt x="96" y="125" on="0"/>
        <pt x="96" y="163" on="1"/>
        <pt x="96" y="200" on="0"/>
        <pt x="65" y="242" on="0"/>
        <pt x="6" y="248" on="1"/>
        <pt x="6" y="320" on="1"/>
        <pt x="65" y="325" on="0"/>
        <pt x="96" y="368" on="0"/>
        <pt x="96" y="404" on="1"/>
        <pt x="96" y="442" on="0"/>
        <pt x="80" y="536" on="0"/>
        <pt x="80" y="583" on="1"/>
        <pt x="80" y="638" on="0"/>
        <pt x="146" y="709" on="0"/>
        <pt x="218" y="716" on="1"/>
        <pt x="240" y="718" on="0"/>
        <pt x="296" y="722" on="0"/>
        <pt x="316" y="722" on="1"/>
        <pt x="324" y="665" on="1"/>
        <pt x="277" y="653" on="1"/>
        <pt x="235" y="643" on="0"/>
        <pt x="201" y="602" on="0"/>
        <pt x="201" y="561" on="1"/>
        <pt x="201" y="526" on="0"/>
        <pt x="211" y="433" on="0"/>
        <pt x="211" y="395" on="1"/>
        <pt x="211" y="342" on="0"/>
        <pt x="142" y="294" on="0"/>
        <pt x="93" y="285" on="1"/>
        <pt x="142" y="277" on="0"/>
        <pt x="211" y="226" on="0"/>
        <pt x="211" y="172" on="1"/>
        <pt x="211" y="134" on="0"/>
        <pt x="201" y="41" on="0"/>
        <pt x="201" y="6" on="1"/>
        <pt x="201" y="-34" on="0"/>
        <pt x="235" y="-76" on="0"/>
        <pt x="277" y="-86" on="1"/>
      </contour>
    </TTGlyph>
    <TTGlyph name="braceright" xMin="9" yMin="-154" xMax="328" yMax="722">
      <contour>
        <pt x="115" y="-149" on="1"/>
        <pt x="93" y="-151" on="0"/>
        <pt x="38" y="-154" on="0"/>
        <pt x="18" y="-154" on="1"/>
        <pt x="9" y="-97" on="1"/>
        <pt x="56" y="-87" on="1"/>
        <pt x="98" y="-77" on="0"/>
        <pt x="132" y="-35" on="0"/>
        <pt x="132" y="5" on="1"/>
        <pt x="132" y="41" on="0"/>
        <pt x="123" y="134" on="0"/>
        <pt x="123" y="172" on="1"/>
        <pt x="123" y="226" on="0"/>
        <pt x="191" y="277" on="0"/>
        <pt x="240" y="285" on="1"/>
        <pt x="191" y="293" on="0"/>
        <pt x="123" y="342" on="0"/>
        <pt x="123" y="395" on="1"/>
        <pt x="123" y="433" on="0"/>
        <pt x="132" y="527" on="0"/>
        <pt x="132" y="562" on="1"/>
        <pt x="132" y="603" on="0"/>
        <pt x="98" y="645" on="0"/>
        <pt x="56" y="655" on="1"/>
        <pt x="9" y="665" on="1"/>
        <pt x="18" y="722" on="1"/>
        <pt x="38" y="722" on="0"/>
        <pt x="93" y="719" on="0"/>
        <pt x="115" y="717" on="1"/>
        <pt x="187" y="710" on="0"/>
        <pt x="253" y="640" on="0"/>
        <pt x="253" y="584" on="1"/>
        <pt x="253" y="536" on="0"/>
        <pt x="238" y="442" on="0"/>
        <pt x="238" y="404" on="1"/>
        <pt x="238" y="368" on="0"/>
        <pt x="268" y="325" on="0"/>
        <pt x="328" y="320" on="1"/>
        <pt x="328" y="248" on="1"/>
        <pt x="268" y="242" on="0"/>
        <pt x="238" y="200" on="0"/>
        <pt x="238" y="163" on="1"/>
        <pt x="238" y="125" on="0"/>
        <pt x="253" y="31" on="0"/>
        <pt x="253" y="-16" on="1"/>
        <pt x="253" y="-72" on="0"/>
        <pt x="187" y="-142" on="0"/>
      </contour>
    </TTGlyph>
    <TTGlyph name="bracketleft" xMin="69" yMin="-153" xMax="289" yMax="721">
      <contour>
        <pt x="289" y="-141" on="1"/>
        <pt x="240" y="-147" on="0"/>
        <pt x="129" y="-153" on="0"/>
        <pt x="86" y="-153" on="1"/>
        <pt x="69" y="-137" on="1"/>
        <pt x="69" y="704" on="1"/>
        <pt x="86" y="720" on="1"/>
        <pt x="129" y="721" on="0"/>
        <pt x="240" y="715" on="0"/>
        <pt x="289" y="708" on="1"/>
        <pt x="289" y="656" on="1"/>
        <pt x="202" y="646" on="1"/>
        <pt x="193" y="645" on="0"/>
        <pt x="183" y="634" on="0"/>
        <pt x="183" y="625" on="1"/>
        <pt x="183" y="-57" on="1"/>
        <pt x="183" y="-66" on="0"/>
        <pt x="193" y="-78" on="0"/>
        <pt x="202" y="-79" on="1"/>
        <pt x="289" y="-89" on="1"/>
      </contour>
    </TTGlyph>
    <TTGlyph name="bracketright" xMin="14" yMin="-153" xMax="235" yMax="721">
      <contour>
        <pt x="235" y="-137" on="1"/>
        <pt x="217" y="-153" on="1"/>
        <pt x="174" y="-153" on="0"/>
        <pt x="63" y="-147" on="0"/>
        <pt x="14" y="-141" on="1"/>
        <pt x="14" y="-89" on="1"/>
        <pt x="101" y="-79" on="1"/>
        <pt x="110" y="-78" on="0"/>
        <pt x="120" y="-66" on="0"/>
        <pt x="120" y="-57" on="1"/>
        <pt x="120" y="625" on="1"/>
        <pt x="120" y="634" on="0"/>
        <pt x="110" y="645" on="0"/>
        <pt x="101" y="646" on="1"/>
        <pt x="14" y="656" on="1"/>
        <pt x="14" y="708" on="1"/>
        <pt x="63" y="715" on="0"/>
        <pt x="174" y="721" on="0"/>
        <pt x="217" y="720" on="1"/>
        <pt x="235" y="704" on="1"/>
      </contour>
    </TTGlyph>
    <TTGlyph name="breve" xMin="31" yMin="472" xMax="333" yMax="621">
      <component glyphName="uni0306" x="182" y="0" flags="0x4"/>
    </TTGlyph>
    <TTGlyph name="brokenbar" xMin="69" yMin="-116" xMax="167" yMax="693">
      <contour>
        <pt x="69" y="345" on="1"/>
        <pt x="69" y="693" on="1"/>
        <pt x="167" y="693" on="1"/>
        <pt x="167" y="345" on="1"/>
      </contour>
      <contour>
        <pt x="69" y="-116" on="1"/>
        <pt x="69" y="231" on="1"/>
        <pt x="167" y="231" on="1"/>
        <pt x="167" y="-116" on="1"/>
      </contour>
    </TTGlyph>
    <TTGlyph name="bullet" xMin="69" yMin="131" xMax="280" yMax="329">
      <contour>
        <pt x="280" y="230" on="1"/>
        <pt x="280" y="185" on="0"/>
        <pt x="223" y="131" on="0"/>
        <pt x="174" y="131" on="1"/>
        <pt x="126" y="131" on="0"/>
        <pt x="69" y="185" on="0"/>
        <pt x="69" y="230" on="1"/>
        <pt x="69" y="276" on="0"/>
        <pt x="126" y="329" on="0"/>
        <pt x="174" y="329" on="1"/>
        <pt x="223" y="329" on="0"/>
        <pt x="280" y="276" on="0"/>
      </contour>
    </TTGlyph>
    <TTGlyph name="bulletoperator" xMin="102" yMin="147" xMax="257" yMax="298">
      <contour>
        <pt x="257" y="223" on="1"/>
        <pt x="257" y="189" on="0"/>
        <pt x="214" y="147" on="0"/>
        <pt x="179" y="147" on="1"/>
        <pt x="144" y="147" on="0"/>
        <pt x="102" y="189" on="0"/>
        <pt x="102" y="223" on="1"/>
        <pt x="102" y="257" on="0"/>
        <pt x="144" y="298" on="0"/>
        <pt x="179" y="298" on="1"/>
        <pt x="214" y="298" on="0"/>
        <pt x="257" y="257" on="0"/>
      </contour>
    </TTGlyph>
    <TTGlyph name="c" xMin="29" yMin="-9" xMax="387" yMax="425">
      <contour>
        <pt x="29" y="202" on="1"/>
        <pt x="29" y="311" on="0"/>
        <pt x="149" y="425" on="0"/>
        <pt x="241" y="425" on="1"/>
        <pt x="280" y="425" on="0"/>
        <pt x="356" y="406" on="0"/>
        <pt x="381" y="393" on="1"/>
        <pt x="384" y="356" on="0"/>
        <pt x="379" y="284" on="0"/>
        <pt x="373" y="250" on="1"/>
        <pt x="309" y="250" on="1"/>
        <pt x="288" y="323" on="1"/>
        <pt x="285" y="336" on="0"/>
        <pt x="278" y="350" on="0"/>
        <pt x="273" y="354" on="1"/>
        <pt x="267" y="359" on="0"/>
        <pt x="249" y="367" on="0"/>
        <pt x="238" y="367" on="1"/>
        <pt x="210" y="367" on="0"/>
        <pt x="170" y="300" on="0"/>
        <pt x="170" y="220" on="1"/>
        <pt x="170" y="146" on="0"/>
        <pt x="214" y="71" on="0"/>
        <pt x="266" y="71" on="1"/>
        <pt x="298" y="71" on="0"/>
        <pt x="346" y="94" on="0"/>
        <pt x="359" y="105" on="1"/>
        <pt x="387" y="83" on="1"/>
        <pt x="374" y="43" on="0"/>
        <pt x="289" y="-9" on="0"/>
        <pt x="223" y="-9" on="1"/>
        <pt x="122" y="-9" on="0"/>
        <pt x="29" y="113" on="0"/>
      </contour>
    </TTGlyph>
    <TTGlyph name="cacute" xMin="29" yMin="-9" xMax="387" yMax="659">
      <component glyphName="c" x="0" y="0" flags="0x204"/>
      <component glyphName="acutecomb" x="228" y="0" flags="0x4"/>
    </TTGlyph>
    <TTGlyph name="caron" xMin="34" yMin="472" xMax="342" yMax="659">
      <component glyphName="uni030C" x="182" y="0" flags="0x4"/>
    </TTGlyph>
    <TTGlyph name="ccaron" xMin="29" yMin="-9" xMax="388" yMax="659">
      <component glyphName="c" x="0" y="0" flags="0x204"/>
      <component glyphName="uni030C" x="228" y="0" flags="0x4"/>
    </TTGlyph>
    <TTGlyph name="ccedilla" xMin="29" yMin="-192" xMax="387" yMax="425">
      <component glyphName="c" x="0" y="0" flags="0x204"/>
      <component glyphName="uni0327" x="215" y="0" flags="0x4"/>
    </TTGlyph>
    <TTGlyph name="ccircumflex" xMin="29" yMin="-9" xMax="387" yMax="647">
      <component glyphName="c" x="0" y="0" flags="0x204"/>
      <component glyphName="uni0302" x="228" y="0" flags="0x4"/>
    </TTGlyph>
    <TTGlyph name="cdotaccent" xMin="29" yMin="-9" xMax="387" yMax="603">
      <component glyphName="c" x="0" y="0" flags="0x204"/>
      <component glyphName="uni0307" x="228" y="0" flags="0x4"/>
    </TTGlyph>
    <TTGlyph name="cedilla" xMin="99" yMin="-192" xMax="274" yMax="19">
      <component glyphName="uni0327" x="182" y="0" flags="0x4"/>
    </TTGlyph>
    <TTGlyph name="cent" xMin="31" yMin="-76" xMax="396" yMax="514">
      <contour>
        <pt x="396" y="94" on="1"/>
        <pt x="381" y="60" on="0"/>
        <pt x="305" y="11" on="0"/>
        <pt x="254" y="5" on="1"/>
        <pt x="254" y="-76" on="1"/>
        <pt x="183" y="-76" on="1"/>
        <pt x="183" y="6" on="1"/>
        <pt x="105" y="19" on="0"/>
        <pt x="31" y="136" on="0"/>
        <pt x="31" y="214" on="1"/>
        <pt x="31" y="315" on="0"/>
        <pt x="136" y="425" on="0"/>
        <pt x="216" y="435" on="1"/>
        <pt x="216" y="514" on="1"/>
        <pt x="288" y="514" on="1"/>
        <pt x="288" y="435" on="1"/>
        <pt x="319" y="431" on="0"/>
        <pt x="375" y="412" on="0"/>
        <pt x="394" y="402" on="1"/>
        <pt x="396" y="365" on="0"/>
        <pt x="392" y="296" on="0"/>
        <pt x="385" y="262" on="1"/>
        <pt x="318" y="262" on="1"/>
        <pt x="300" y="336" on="1"/>
        <pt x="298" y="348" on="0"/>
        <pt x="290" y="362" on="0"/>
        <pt x="285" y="366" on="1"/>
        <pt x="279" y="372" on="0"/>
        <pt x="259" y="379" on="0"/>
        <pt x="247" y="379" on="1"/>
        <pt x="216" y="379" on="0"/>
        <pt x="172" y="308" on="0"/>
        <pt x="172" y="236" on="1"/>
        <pt x="172" y="161" on="0"/>
        <pt x="221" y="82" on="0"/>
        <pt x="270" y="82" on="1"/>
        <pt x="307" y="82" on="0"/>
        <pt x="352" y="109" on="0"/>
        <pt x="365" y="123" on="1"/>
      </contour>
    </TTGlyph>
    <TTGlyph name="cent.tf" xMin="43" yMin="-76" xMax="408" yMax="514">
      <component glyphName="cent" x="12" y="0" flags="0x4"/>
    </TTGlyph>
    <TTGlyph name="circumflex" xMin="27" yMin="459" xMax="336" yMax="647">
      <component glyphName="uni0302" x="182" y="0" flags="0x4"/>
    </TTGlyph>
    <TTGlyph name="colon" xMin="51" yMin="-6" xMax="197" yMax="428">
      <contour>
        <pt x="197" y="361" on="1"/>
        <pt x="197" y="331" on="0"/>
        <pt x="157" y="295" on="0"/>
        <pt x="124" y="295" on="1"/>
        <pt x="90" y="295" on="0"/>
        <pt x="51" y="331" on="0"/>
        <pt x="51" y="361" on="1"/>
        <pt x="51" y="392" on="0"/>
        <pt x="90" y="428" on="0"/>
        <pt x="124" y="428" on="1"/>
        <pt x="157" y="428" on="0"/>
        <pt x="197" y="392" on="0"/>
      </contour>
      <contour>
        <pt x="197" y="61" on="1"/>
        <pt x="197" y="30" on="0"/>
        <pt x="157" y="-6" on="0"/>
        <pt x="124" y="-6" on="1"/>
        <pt x="90" y="-6" on="0"/>
        <pt x="51" y="30" on="0"/>
        <pt x="51" y="61" on="1"/>
        <pt x="51" y="92" on="0"/>
        <pt x="90" y="128" on="0"/>
        <pt x="124" y="128" on="1"/>
        <pt x="157" y="128" on="0"/>
        <pt x="197" y="92" on="0"/>
      </contour>
    </TTGlyph>
    <TTGlyph name="comma" xMin="27" yMin="-172" xMax="189" yMax="132">
      <contour>
        <pt x="189" y="30" on="1"/>
        <pt x="189" y="-37" on="0"/>
        <pt x="103" y="-144" on="0"/>
        <pt x="52" y="-172" on="1"/>
        <pt x="27" y="-140" on="1"/>
        <pt x="55" y="-114" on="0"/>
        <pt x="92" y="-53" on="0"/>
        <pt x="92" y="-27" on="1"/>
        <pt x="92" y="-11" on="0"/>
        <pt x="78" y="-1" on="0"/>
        <pt x="68" y="6" on="1"/>
        <pt x="56" y="14" on="0"/>
        <pt x="37" y="43" on="0"/>
        <pt x="37" y="64" on="1"/>
        <pt x="37" y="95" on="0"/>
        <pt x="76" y="132" on="0"/>
        <pt x="107" y="132" on="1"/>
        <pt x="143" y="132" on="0"/>
        <pt x="189" y="78" on="0"/>
      </contour>
    </TTGlyph>
    <TTGlyph name="copyright" xMin="31" yMin="-49" xMax="698" yMax="618">
      <contour>
        <pt x="31" y="284" on="1"/>
        <pt x="31" y="356" on="0"/>
        <pt x="81" y="479" on="0"/>
        <pt x="170" y="568" on="0"/>
        <pt x="293" y="618" on="0"/>
        <pt x="365" y="618" on="1"/>
        <pt x="437" y="618" on="0"/>
        <pt x="560" y="568" on="0"/>
        <pt x="648" y="479" on="0"/>
        <pt x="698" y="356" on="0"/>
        <pt x="698" y="284" on="1"/>
        <pt x="698" y="140" on="0"/>
        <pt x="509" y="-49" on="0"/>
        <pt x="365" y="-49" on="1"/>
        <pt x="293" y="-49" on="0"/>
        <pt x="170" y="1" on="0"/>
        <pt x="81" y="89" on="0"/>
        <pt x="31" y="212" on="0"/>
      </contour>
      <contour>
        <pt x="89" y="284" on="1"/>
        <pt x="89" y="159" on="0"/>
        <pt x="244" y="0" on="0"/>
        <pt x="365" y="0" on="1"/>
        <pt x="486" y="0" on="0"/>
        <pt x="640" y="159" on="0"/>
        <pt x="640" y="284" on="1"/>
        <pt x="640" y="409" on="0"/>
        <pt x="487" y="569" on="0"/>
        <pt x="365" y="569" on="1"/>
        <pt x="244" y="569" on="0"/>
        <pt x="89" y="409" on="0"/>
      </contour>
      <contour>
        <pt x="363" y="94" on="1"/>
        <pt x="285" y="94" on="0"/>
        <pt x="195" y="195" on="0"/>
        <pt x="195" y="280" on="1"/>
        <pt x="195" y="376" on="0"/>
        <pt x="299" y="473" on="0"/>
        <pt x="377" y="473" on="1"/>
        <pt x="413" y="473" on="0"/>
        <pt x="479" y="454" on="0"/>
        <pt x="499" y="440" on="1"/>
        <pt x="503" y="410" on="0"/>
        <pt x="500" y="348" on="0"/>
        <pt x="494" y="316" on="1"/>
        <pt x="438" y="316" on="1"/>
        <pt x="422" y="378" on="1"/>
        <pt x="421" y="385" on="0"/>
        <pt x="415" y="397" on="0"/>
        <pt x="409" y="401" on="1"/>
        <pt x="403" y="406" on="0"/>
        <pt x="383" y="415" on="0"/>
        <pt x="371" y="415" on="1"/>
        <pt x="343" y="415" on="0"/>
        <pt x="306" y="359" on="0"/>
        <pt x="306" y="297" on="1"/>
        <pt x="306" y="231" on="0"/>
        <pt x="352" y="165" on="0"/>
        <pt x="395" y="165" on="1"/>
        <pt x="419" y="165" on="0"/>
        <pt x="466" y="183" on="0"/>
        <pt x="480" y="197" on="1"/>
        <pt x="506" y="174" on="1"/>
        <pt x="493" y="140" on="0"/>
        <pt x="417" y="94" on="0"/>
      </contour>
    </TTGlyph>
    <TTGlyph name="currency" xMin="35" yMin="52" xMax="477" yMax="510">
      <contour>
        <pt x="255" y="204" on="1"/>
        <pt x="291" y="204" on="0"/>
        <pt x="327" y="249" on="0"/>
        <pt x="327" y="280" on="1"/>
        <pt x="327" y="315" on="0"/>
        <pt x="281" y="358" on="0"/>
        <pt x="253" y="358" on="1"/>
        <pt x="219" y="358" on="0"/>
        <pt x="183" y="310" on="0"/>
        <pt x="183" y="280" on="1"/>
        <pt x="183" y="249" on="0"/>
        <pt x="227" y="204" on="0"/>
      </contour>
      <contour>
        <pt x="254" y="114" on="1"/>
        <pt x="230" y="114" on="0"/>
        <pt x="187" y="126" on="0"/>
        <pt x="168" y="137" on="1"/>
        <pt x="83" y="52" on="1"/>
        <pt x="35" y="101" on="1"/>
        <pt x="117" y="183" on="1"/>
        <pt x="104" y="202" on="0"/>
        <pt x="88" y="250" on="0"/>
        <pt x="88" y="277" on="1"/>
        <pt x="88" y="305" on="0"/>
        <pt x="105" y="356" on="0"/>
        <pt x="119" y="378" on="1"/>
        <pt x="35" y="460" on="1"/>
        <pt x="82" y="509" on="1"/>
        <pt x="167" y="424" on="1"/>
        <pt x="186" y="436" on="0"/>
        <pt x="230" y="449" on="0"/>
        <pt x="254" y="449" on="1"/>
        <pt x="279" y="449" on="0"/>
        <pt x="324" y="436" on="0"/>
        <pt x="343" y="425" on="1"/>
        <pt x="428" y="510" on="1"/>
        <pt x="477" y="461" on="1"/>
        <pt x="393" y="379" on="1"/>
        <pt x="406" y="359" on="0"/>
        <pt x="422" y="311" on="0"/>
        <pt x="422" y="285" on="1"/>
        <pt x="422" y="257" on="0"/>
        <pt x="405" y="207" on="0"/>
        <pt x="390" y="186" on="1"/>
        <pt x="475" y="102" on="1"/>
        <pt x="427" y="54" on="1"/>
        <pt x="342" y="139" on="1"/>
        <pt x="323" y="127" on="0"/>
        <pt x="278" y="114" on="0"/>
      </contour>
    </TTGlyph>
    <TTGlyph name="d" xMin="30" yMin="-8" xMax="484" yMax="655">
      <contour>
        <pt x="240" y="63" on="1"/>
        <pt x="254" y="63" on="0"/>
        <pt x="286" y="70" on="0"/>
        <pt x="299" y="77" on="1"/>
        <pt x="299" y="360" on="1"/>
        <pt x="290" y="364" on="0"/>
        <pt x="266" y="369" on="0"/>
        <pt x="255" y="369" on="1"/>
        <pt x="215" y="369" on="0"/>
        <pt x="169" y="301" on="0"/>
        <pt x="168" y="210" on="1"/>
        <pt x="168" y="131" on="0"/>
        <pt x="205" y="63" on="0"/>
      </contour>
      <contour>
        <pt x="396" y="-7" on="1"/>
        <pt x="365" y="-7" on="0"/>
        <pt x="321" y="17" on="0"/>
        <pt x="309" y="42" on="1"/>
        <pt x="288" y="19" on="0"/>
        <pt x="231" y="-8" on="0"/>
        <pt x="194" y="-8" on="1"/>
        <pt x="123" y="-8" on="0"/>
        <pt x="30" y="89" on="0"/>
        <pt x="30" y="195" on="1"/>
        <pt x="30" y="306" on="0"/>
        <pt x="142" y="425" on="0"/>
        <pt x="245" y="425" on="1"/>
        <pt x="258" y="425" on="0"/>
        <pt x="287" y="422" on="0"/>
        <pt x="299" y="420" on="1"/>
        <pt x="299" y="552" on="1"/>
        <pt x="299" y="561" on="0"/>
        <pt x="290" y="572" on="0"/>
        <pt x="282" y="573" on="1"/>
        <pt x="234" y="580" on="1"/>
        <pt x="234" y="631" on="1"/>
        <pt x="274" y="641" on="0"/>
        <pt x="373" y="654" on="0"/>
        <pt x="412" y="655" on="1"/>
        <pt x="430" y="638" on="1"/>
        <pt x="430" y="83" on="1"/>
        <pt x="430" y="71" on="0"/>
        <pt x="440" y="62" on="0"/>
        <pt x="448" y="61" on="1"/>
        <pt x="484" y="56" on="1"/>
        <pt x="484" y="7" on="1"/>
        <pt x="471" y="3" on="0"/>
        <pt x="420" y="-7" on="0"/>
      </contour>
    </TTGlyph>
    <TTGlyph name="dagger" xMin="22" yMin="-93" xMax="341" yMax="608">
      <contour>
        <pt x="209" y="-93" on="1"/>
        <pt x="154" y="-93" on="1"/>
        <pt x="125" y="357" on="1"/>
        <pt x="124" y="364" on="0"/>
        <pt x="116" y="373" on="0"/>
        <pt x="109" y="375" on="1"/>
        <pt x="22" y="399" on="1"/>
        <pt x="22" y="451" on="1"/>
        <pt x="119" y="448" on="1"/>
        <pt x="113" y="538" on="1"/>
        <pt x="113" y="608" on="1"/>
        <pt x="251" y="608" on="1"/>
        <pt x="251" y="538" on="1"/>
        <pt x="245" y="448" on="1"/>
        <pt x="341" y="451" on="1"/>
        <pt x="341" y="399" on="1"/>
        <pt x="254" y="375" on="1"/>
        <pt x="248" y="374" on="0"/>
        <pt x="240" y="366" on="0"/>
        <pt x="239" y="361" on="1"/>
      </contour>
    </TTGlyph>
    <TTGlyph name="daggerdbl" xMin="27" yMin="-93" xMax="346" yMax="608">
      <contour>
        <pt x="214" y="-93" on="1"/>
        <pt x="159" y="-93" on="1"/>
        <pt x="140" y="192" on="1"/>
        <pt x="139" y="197" on="0"/>
        <pt x="131" y="206" on="0"/>
        <pt x="125" y="207" on="1"/>
        <pt x="27" y="235" on="1"/>
        <pt x="27" y="288" on="1"/>
        <pt x="134" y="284" on="1"/>
        <pt x="129" y="361" on="1"/>
        <pt x="128" y="366" on="0"/>
        <pt x="120" y="374" on="0"/>
        <pt x="114" y="375" on="1"/>
        <pt x="27" y="399" on="1"/>
        <pt x="27" y="451" on="1"/>
        <pt x="123" y="448" on="1"/>
        <pt x="117" y="538" on="1"/>
        <pt x="117" y="608" on="1"/>
        <pt x="255" y="608" on="1"/>
        <pt x="255" y="538" on="1"/>
        <pt x="249" y="448" on="1"/>
        <pt x="346" y="451" on="1"/>
        <pt x="346" y="399" on="1"/>
        <pt x="259" y="375" on="1"/>
        <pt x="252" y="373" on="0"/>
        <pt x="244" y="363" on="0"/>
        <pt x="243" y="356" on="1"/>
        <pt x="238" y="284" on="1"/>
        <pt x="346" y="288" on="1"/>
        <pt x="346" y="235" on="1"/>
        <pt x="248" y="207" on="1"/>
        <pt x="240" y="205" on="0"/>
        <pt x="233" y="195" on="0"/>
        <pt x="232" y="189" on="1"/>
      </contour>
    </TTGlyph>
    <TTGlyph name="dcaron" xMin="30" yMin="-8" xMax="586" yMax="687">
      <component glyphName="d" x="0" y="0" flags="0x204"/>
      <component glyphName="uni030C.calt" x="430" y="0" flags="0x4"/>
    </TTGlyph>
    <TTGlyph name="dcroat" xMin="30" yMin="-8" xMax="484" yMax="655">
      <contour>
        <pt x="240" y="63" on="1"/>
        <pt x="254" y="63" on="0"/>
        <pt x="286" y="70" on="0"/>
        <pt x="299" y="77" on="1"/>
        <pt x="299" y="349" on="1"/>
        <pt x="290" y="353" on="0"/>
        <pt x="266" y="358" on="0"/>
        <pt x="255" y="358" on="1"/>
        <pt x="215" y="358" on="0"/>
        <pt x="169" y="294" on="0"/>
        <pt x="168" y="207" on="1"/>
        <pt x="168" y="129" on="0"/>
        <pt x="205" y="63" on="0"/>
      </contour>
      <contour>
        <pt x="396" y="-7" on="1"/>
        <pt x="365" y="-7" on="0"/>
        <pt x="321" y="17" on="0"/>
        <pt x="309" y="42" on="1"/>
        <pt x="288" y="19" on="0"/>
        <pt x="231" y="-8" on="0"/>
        <pt x="194" y="-8" on="1"/>
        <pt x="123" y="-8" on="0"/>
        <pt x="30" y="87" on="0"/>
        <pt x="30" y="191" on="1"/>
        <pt x="30" y="299" on="0"/>
        <pt x="142" y="414" on="0"/>
        <pt x="245" y="414" on="1"/>
        <pt x="258" y="414" on="0"/>
        <pt x="287" y="411" on="0"/>
        <pt x="299" y="409" on="1"/>
        <pt x="299" y="470" on="1"/>
        <pt x="170" y="470" on="1"/>
        <pt x="170" y="523" on="1"/>
        <pt x="299" y="523" on="1"/>
        <pt x="299" y="552" on="1"/>
        <pt x="299" y="561" on="0"/>
        <pt x="290" y="572" on="0"/>
        <pt x="282" y="573" on="1"/>
        <pt x="234" y="580" on="1"/>
        <pt x="234" y="631" on="1"/>
        <pt x="274" y="641" on="0"/>
        <pt x="373" y="654" on="0"/>
        <pt x="412" y="655" on="1"/>
        <pt x="430" y="638" on="1"/>
        <pt x="430" y="523" on="1"/>
        <pt x="483" y="523" on="1"/>
        <pt x="483" y="470" on="1"/>
        <pt x="430" y="470" on="1"/>
        <pt x="430" y="83" on="1"/>
        <pt x="430" y="71" on="0"/>
        <pt x="440" y="62" on="0"/>
        <pt x="448" y="61" on="1"/>
        <pt x="484" y="56" on="1"/>
        <pt x="484" y="7" on="1"/>
        <pt x="471" y="3" on="0"/>
        <pt x="420" y="-7" on="0"/>
      </contour>
    </TTGlyph>
    <TTGlyph name="degree" xMin="28" yMin="332" xMax="307" yMax="608">
      <contour>
        <pt x="167" y="332" on="1"/>
        <pt x="110" y="332" on="0"/>
        <pt x="28" y="414" on="0"/>
        <pt x="28" y="470" on="1"/>
        <pt x="28" y="529" on="0"/>
        <pt x="110" y="608" on="0"/>
        <pt x="167" y="608" on="1"/>
        <pt x="227" y="608" on="0"/>
        <pt x="307" y="526" on="0"/>
        <pt x="307" y="470" on="1"/>
        <pt x="307" y="411" on="0"/>
        <pt x="225" y="332" on="0"/>
      </contour>
      <contour>
        <pt x="167" y="400" on="1"/>
        <pt x="195" y="400" on="0"/>
        <pt x="231" y="440" on="0"/>
        <pt x="231" y="470" on="1"/>
        <pt x="231" y="498" on="0"/>
        <pt x="194" y="540" on="0"/>
        <pt x="166" y="540" on="1"/>
        <pt x="138" y="540" on="0"/>
        <pt x="103" y="499" on="0"/>
        <pt x="103" y="470" on="1"/>
        <pt x="103" y="442" on="0"/>
        <pt x="141" y="400" on="0"/>
      </contour>
    </TTGlyph>
    <TTGlyph name="dieresis" xMin="33" yMin="477" xMax="330" yMax="601">
      <component glyphName="uni0308" x="182" y="0" flags="0x4"/>
    </TTGlyph>
    <TTGlyph name="divide" xMin="33" yMin="29" xMax="375" yMax="422">
      <contour>
        <pt x="270" y="363" on="1"/>
        <pt x="270" y="336" on="0"/>
        <pt x="234" y="304" on="0"/>
        <pt x="204" y="304" on="1"/>
        <pt x="174" y="304" on="0"/>
        <pt x="138" y="336" on="0"/>
        <pt x="138" y="363" on="1"/>
        <pt x="138" y="390" on="0"/>
        <pt x="174" y="422" on="0"/>
        <pt x="204" y="422" on="1"/>
        <pt x="234" y="422" on="0"/>
        <pt x="270" y="390" on="0"/>
      </contour>
      <contour>
        <pt x="375" y="188" on="1"/>
        <pt x="33" y="188" on="1"/>
        <pt x="33" y="264" on="1"/>
        <pt x="375" y="264" on="1"/>
      </contour>
      <contour>
        <pt x="270" y="88" on="1"/>
        <pt x="270" y="62" on="0"/>
        <pt x="234" y="29" on="0"/>
        <pt x="204" y="29" on="1"/>
        <pt x="174" y="29" on="0"/>
        <pt x="138" y="62" on="0"/>
        <pt x="138" y="88" on="1"/>
        <pt x="138" y="115" on="0"/>
        <pt x="174" y="147" on="0"/>
        <pt x="204" y="147" on="1"/>
        <pt x="234" y="147" on="0"/>
        <pt x="270" y="115" on="0"/>
      </contour>
    </TTGlyph>
    <TTGlyph name="dollar" xMin="35" yMin="-76" xMax="420" yMax="579">
      <contour>
        <pt x="244" y="-76" on="1"/>
        <pt x="173" y="-76" on="1"/>
        <pt x="173" y="8" on="1"/>
        <pt x="133" y="12" on="0"/>
        <pt x="62" y="33" on="0"/>
        <pt x="37" y="44" on="1"/>
        <pt x="35" y="79" on="0"/>
        <pt x="41" y="157" on="0"/>
        <pt x="46" y="185" on="1"/>
        <pt x="123" y="185" on="1"/>
        <pt x="137" y="108" on="1"/>
        <pt x="138" y="99" on="0"/>
        <pt x="146" y="88" on="0"/>
        <pt x="151" y="84" on="1"/>
        <pt x="161" y="76" on="0"/>
        <pt x="198" y="61" on="0"/>
        <pt x="223" y="61" on="1"/>
        <pt x="254" y="61" on="0"/>
        <pt x="291" y="90" on="0"/>
        <pt x="291" y="114" on="1"/>
        <pt x="291" y="148" on="0"/>
        <pt x="221" y="188" on="0"/>
        <pt x="174" y="210" on="1"/>
        <pt x="120" y="235" on="0"/>
        <pt x="40" y="300" on="0"/>
        <pt x="40" y="356" on="1"/>
        <pt x="40" y="409" on="0"/>
        <pt x="123" y="489" on="0"/>
        <pt x="207" y="495" on="1"/>
        <pt x="207" y="579" on="1"/>
        <pt x="279" y="579" on="1"/>
        <pt x="279" y="494" on="1"/>
        <pt x="309" y="491" on="0"/>
        <pt x="367" y="478" on="0"/>
        <pt x="389" y="469" on="1"/>
        <pt x="391" y="438" on="0"/>
        <pt x="387" y="367" on="0"/>
        <pt x="381" y="336" on="1"/>
        <pt x="307" y="336" on="1"/>
        <pt x="291" y="406" on="1"/>
        <pt x="290" y="415" on="0"/>
        <pt x="283" y="427" on="0"/>
        <pt x="277" y="431" on="1"/>
        <pt x="268" y="438" on="0"/>
        <pt x="241" y="444" on="0"/>
        <pt x="225" y="444" on="1"/>
        <pt x="194" y="444" on="0"/>
        <pt x="163" y="417" on="0"/>
        <pt x="163" y="396" on="1"/>
        <pt x="163" y="363" on="0"/>
        <pt x="230" y="327" on="0"/>
        <pt x="279" y="304" on="1"/>
        <pt x="342" y="274" on="0"/>
        <pt x="420" y="208" on="0"/>
        <pt x="420" y="154" on="1"/>
        <pt x="420" y="103" on="0"/>
        <pt x="339" y="13" on="0"/>
        <pt x="244" y="7" on="1"/>
      </contour>
    </TTGlyph>
    <TTGlyph name="dollar.tf" xMin="40" yMin="-76" xMax="425" yMax="579">
      <component glyphName="dollar" x="5" y="0" flags="0x4"/>
    </TTGlyph>
    <TTGlyph name="dotaccent" xMin="119" yMin="472" xMax="262" yMax="603">
      <component glyphName="uni0307" x="182" y="0" flags="0x4"/>
    </TTGlyph>
    <TTGlyph name="dotlessi" xMin="25" yMin="0" xMax="273" yMax="424">
      <contour>
        <pt x="217" y="408" on="1"/>
        <pt x="217" y="80" on="1"/>
        <pt x="217" y="71" on="0"/>
        <pt x="226" y="60" on="0"/>
        <pt x="234" y="59" on="1"/>
        <pt x="273" y="52" on="1"/>
        <pt x="273" y="0" on="1"/>
        <pt x="29" y="0" on="1"/>
        <pt x="29" y="52" on="1"/>
        <pt x="68" y="59" on="1"/>
        <pt x="76" y="60" on="0"/>
        <pt x="85" y="71" on="0"/>
        <pt x="85" y="80" on="1"/>
        <pt x="85" y="319" on="1"/>
        <pt x="85" y="327" on="0"/>
        <pt x="77" y="339" on="0"/>
        <pt x="69" y="340" on="1"/>
        <pt x="25" y="349" on="1"/>
        <pt x="25" y="403" on="1"/>
        <pt x="64" y="413" on="0"/>
        <pt x="160" y="424" on="0"/>
        <pt x="199" y="424" on="1"/>
      </contour>
    </TTGlyph>
    <TTGlyph name="dotlessiogonek" xMin="25" yMin="-189" xMax="273" yMax="424">
      <contour>
        <pt x="252" y="-161" on="1"/>
        <pt x="230" y="-174" on="0"/>
        <pt x="173" y="-189" on="0"/>
        <pt x="146" y="-189" on="1"/>
        <pt x="102" y="-188" on="0"/>
        <pt x="43" y="-150" on="0"/>
        <pt x="43" y="-112" on="1"/>
        <pt x="43" y="-73" on="0"/>
        <pt x="105" y="-15" on="0"/>
        <pt x="145" y="-2" on="1"/>
        <pt x="145" y="0" on="1"/>
        <pt x="29" y="0" on="1"/>
        <pt x="29" y="52" on="1"/>
        <pt x="68" y="59" on="1"/>
        <pt x="76" y="60" on="0"/>
        <pt x="85" y="71" on="0"/>
        <pt x="85" y="80" on="1"/>
        <pt x="85" y="319" on="1"/>
        <pt x="85" y="327" on="0"/>
        <pt x="77" y="339" on="0"/>
        <pt x="69" y="340" on="1"/>
        <pt x="25" y="349" on="1"/>
        <pt x="25" y="403" on="1"/>
        <pt x="64" y="413" on="0"/>
        <pt x="160" y="424" on="0"/>
        <pt x="199" y="424" on="1"/>
        <pt x="217" y="408" on="1"/>
        <pt x="217" y="80" on="1"/>
        <pt x="217" y="71" on="0"/>
        <pt x="226" y="60" on="0"/>
        <pt x="234" y="59" on="1"/>
        <pt x="273" y="52" on="1"/>
        <pt x="273" y="0" on="1"/>
        <pt x="228" y="0" on="1"/>
        <pt x="191" y="-13" on="0"/>
        <pt x="145" y="-59" on="0"/>
        <pt x="145" y="-82" on="1"/>
        <pt x="145" y="-101" on="0"/>
        <pt x="172" y="-119" on="0"/>
        <pt x="192" y="-119" on="1"/>
        <pt x="202" y="-119" on="0"/>
        <pt x="223" y="-114" on="0"/>
        <pt x="233" y="-110" on="1"/>
      </contour>
    </TTGlyph>
    <TTGlyph name="dotlessj" xMin="-30" yMin="-196" xMax="208" yMax="424">
      <contour>
        <pt x="191" y="424" on="1"/>
        <pt x="208" y="408" on="1"/>
        <pt x="208" y="36" on="1"/>
        <pt x="208" y="-30" on="0"/>
        <pt x="177" y="-105" on="0"/>
        <pt x="146" y="-130" on="1"/>
        <pt x="117" y="-154" on="0"/>
        <pt x="36" y="-185" on="0"/>
        <pt x="-7" y="-196" on="1"/>
        <pt x="-30" y="-141" on="1"/>
        <pt x="33" y="-110" on="0"/>
        <pt x="78" y="-34" on="0"/>
        <pt x="78" y="29" on="1"/>
        <pt x="78" y="319" on="1"/>
        <pt x="78" y="327" on="0"/>
        <pt x="70" y="339" on="0"/>
        <pt x="62" y="340" on="1"/>
        <pt x="17" y="349" on="1"/>
        <pt x="17" y="403" on="1"/>
        <pt x="56" y="413" on="0"/>
        <pt x="152" y="424" on="0"/>
      </contour>
    </TTGlyph>
    <TTGlyph name="e" xMin="30" yMin="-9" xMax="401" yMax="424">
      <contour>
        <pt x="227" y="371" on="1"/>
        <pt x="202" y="371" on="0"/>
        <pt x="170" y="328" on="0"/>
        <pt x="166" y="273" on="1"/>
        <pt x="281" y="273" on="1"/>
        <pt x="282" y="277" on="0"/>
        <pt x="282" y="285" on="0"/>
        <pt x="282" y="290" on="1"/>
        <pt x="282" y="325" on="0"/>
        <pt x="255" y="371" on="0"/>
      </contour>
      <contour>
        <pt x="398" y="91" on="1"/>
        <pt x="384" y="42" on="0"/>
        <pt x="291" y="-9" on="0"/>
        <pt x="225" y="-9" on="1"/>
        <pt x="125" y="-9" on="0"/>
        <pt x="30" y="106" on="0"/>
        <pt x="30" y="204" on="1"/>
        <pt x="30" y="311" on="0"/>
        <pt x="137" y="424" on="0"/>
        <pt x="236" y="424" on="1"/>
        <pt x="323" y="424" on="0"/>
        <pt x="401" y="344" on="0"/>
        <pt x="401" y="284" on="1"/>
        <pt x="401" y="270" on="0"/>
        <pt x="398" y="238" on="0"/>
        <pt x="395" y="225" on="1"/>
        <pt x="164" y="225" on="1"/>
        <pt x="164" y="144" on="0"/>
        <pt x="208" y="71" on="0"/>
        <pt x="265" y="71" on="1"/>
        <pt x="295" y="71" on="0"/>
        <pt x="351" y="91" on="0"/>
        <pt x="370" y="112" on="1"/>
      </contour>
    </TTGlyph>
    <TTGlyph name="eacute" xMin="30" yMin="-9" xMax="401" yMax="659">
      <component glyphName="e" x="0" y="0" flags="0x204"/>
      <component glyphName="acutecomb" x="224" y="0" flags="0x4"/>
    </TTGlyph>
    <TTGlyph name="ebreve" xMin="30" yMin="-9" xMax="401" yMax="621">
      <component glyphName="e" x="0" y="0" flags="0x204"/>
      <component glyphName="uni0306" x="224" y="0" flags="0x4"/>
    </TTGlyph>
    <TTGlyph name="ecaron" xMin="30" yMin="-9" xMax="401" yMax="659">
      <component glyphName="e" x="0" y="0" flags="0x204"/>
      <component glyphName="uni030C" x="224" y="0" flags="0x4"/>
    </TTGlyph>
    <TTGlyph name="ecircumflex" xMin="30" yMin="-9" xMax="401" yMax="647">
      <component glyphName="e" x="0" y="0" flags="0x204"/>
      <component glyphName="uni0302" x="224" y="0" flags="0x4"/>
    </TTGlyph>
    <TTGlyph name="edieresis" xMin="30" yMin="-9" xMax="401" yMax="601">
      <component glyphName="e" x="0" y="0" flags="0x204"/>
      <component glyphName="uni0308" x="224" y="0" flags="0x4"/>
    </TTGlyph>
    <TTGlyph name="edotaccent" xMin="30" yMin="-9" xMax="401" yMax="603">
      <component glyphName="e" x="0" y="0" flags="0x204"/>
      <component glyphName="uni0307" x="224" y="0" flags="0x4"/>
    </TTGlyph>
    <TTGlyph name="egrave" xMin="30" yMin="-9" xMax="401" yMax="659">
      <component glyphName="e" x="0" y="0" flags="0x204"/>
      <component glyphName="gravecomb" x="224" y="0" flags="0x4"/>
    </TTGlyph>
    <TTGlyph name="eight" xMin="33" yMin="-12" xMax="443" yMax="513">
      <contour>
        <pt x="233" y="-12" on="1"/>
        <pt x="143" y="-12" on="0"/>
        <pt x="33" y="58" on="0"/>
        <pt x="33" y="121" on="1"/>
        <pt x="33" y="166" on="0"/>
        <pt x="87" y="233" on="0"/>
        <pt x="133" y="249" on="1"/>
        <pt x="103" y="269" on="0"/>
        <pt x="58" y="329" on="0"/>
        <pt x="58" y="373" on="1"/>
        <pt x="58" y="436" on="0"/>
        <pt x="157" y="513" on="0"/>
        <pt x="242" y="513" on="1"/>
        <pt x="320" y="513" on="0"/>
        <pt x="416" y="448" on="0"/>
        <pt x="416" y="394" on="1"/>
        <pt x="416" y="355" on="0"/>
        <pt x="367" y="296" on="0"/>
        <pt x="328" y="281" on="1"/>
        <pt x="372" y="258" on="0"/>
        <pt x="443" y="192" on="0"/>
        <pt x="443" y="135" on="1"/>
        <pt x="443" y="66" on="0"/>
        <pt x="329" y="-12" on="0"/>
      </contour>
      <contour>
        <pt x="177" y="404" on="1"/>
        <pt x="177" y="371" on="0"/>
        <pt x="232" y="328" on="0"/>
        <pt x="272" y="308" on="1"/>
        <pt x="291" y="325" on="0"/>
        <pt x="303" y="368" on="0"/>
        <pt x="303" y="384" on="1"/>
        <pt x="303" y="421" on="0"/>
        <pt x="265" y="459" on="0"/>
        <pt x="236" y="459" on="1"/>
        <pt x="209" y="459" on="0"/>
        <pt x="177" y="429" on="0"/>
      </contour>
      <contour>
        <pt x="238" y="44" on="1"/>
        <pt x="272" y="44" on="0"/>
        <pt x="308" y="83" on="0"/>
        <pt x="308" y="108" on="1"/>
        <pt x="308" y="146" on="0"/>
        <pt x="238" y="192" on="0"/>
        <pt x="189" y="217" on="1"/>
        <pt x="188" y="218" on="1"/>
        <pt x="169" y="202" on="0"/>
        <pt x="149" y="157" on="0"/>
        <pt x="149" y="132" on="1"/>
        <pt x="149" y="88" on="0"/>
        <pt x="204" y="44" on="0"/>
      </contour>
    </TTGlyph>
    <TTGlyph name="eight.tf" xMin="25" yMin="-12" xMax="435" yMax="513">
      <component glyphName="eight" x="-8" y="0" flags="0x4"/>
    </TTGlyph>
    <TTGlyph name="ellipsis" xMin="40" yMin="-6" xMax="640" yMax="128">
      <contour>
        <pt x="187" y="61" on="1"/>
        <pt x="187" y="30" on="0"/>
        <pt x="147" y="-6" on="0"/>
        <pt x="113" y="-6" on="1"/>
        <pt x="80" y="-6" on="0"/>
        <pt x="40" y="30" on="0"/>
        <pt x="40" y="61" on="1"/>
        <pt x="40" y="92" on="0"/>
        <pt x="80" y="128" on="0"/>
        <pt x="113" y="128" on="1"/>
        <pt x="147" y="128" on="0"/>
        <pt x="187" y="92" on="0"/>
      </contour>
      <contour>
        <pt x="640" y="61" on="1"/>
        <pt x="640" y="30" on="0"/>
        <pt x="601" y="-6" on="0"/>
        <pt x="567" y="-6" on="1"/>
        <pt x="534" y="-6" on="0"/>
        <pt x="494" y="30" on="0"/>
        <pt x="494" y="61" on="1"/>
        <pt x="494" y="92" on="0"/>
        <pt x="534" y="128" on="0"/>
        <pt x="567" y="128" on="1"/>
        <pt x="601" y="128" on="0"/>
        <pt x="640" y="92" on="0"/>
      </contour>
      <contour>
        <pt x="413" y="61" on="1"/>
        <pt x="413" y="30" on="0"/>
        <pt x="374" y="-6" on="0"/>
        <pt x="340" y="-6" on="1"/>
        <pt x="307" y="-6" on="0"/>
        <pt x="267" y="30" on="0"/>
        <pt x="267" y="61" on="1"/>
        <pt x="267" y="92" on="0"/>
        <pt x="307" y="128" on="0"/>
        <pt x="340" y="128" on="1"/>
        <pt x="374" y="128" on="0"/>
        <pt x="413" y="92" on="0"/>
      </contour>
    </TTGlyph>
    <TTGlyph name="emacron" xMin="30" yMin="-9" xMax="401" yMax="568">
      <component glyphName="e" x="0" y="0" flags="0x204"/>
      <component glyphName="uni0304" x="224" y="0" flags="0x4"/>
    </TTGlyph>
    <TTGlyph name="emdash" xMin="47" yMin="174" xMax="768" yMax="259">
      <contour>
        <pt x="47" y="174" on="1"/>
        <pt x="47" y="259" on="1"/>
        <pt x="768" y="259" on="1"/>
        <pt x="768" y="174" on="1"/>
      </contour>
    </TTGlyph>
    <TTGlyph name="endash" xMin="47" yMin="174" xMax="475" yMax="259">
      <contour>
        <pt x="47" y="174" on="1"/>
        <pt x="47" y="259" on="1"/>
        <pt x="475" y="259" on="1"/>
        <pt x="475" y="174" on="1"/>
      </contour>
    </TTGlyph>
    <TTGlyph name="eng" xMin="25" yMin="-191" xMax="474" yMax="424">
      <contour>
        <pt x="304" y="-191" on="1"/>
        <pt x="290" y="-191" on="0"/>
        <pt x="256" y="-188" on="0"/>
        <pt x="242" y="-186" on="1"/>
        <pt x="239" y="-133" on="1"/>
        <pt x="258" y="-129" on="0"/>
        <pt x="301" y="-116" on="0"/>
        <pt x="315" y="-101" on="1"/>
        <pt x="328" y="-87" on="0"/>
        <pt x="340" y="-32" on="0"/>
        <pt x="340" y="19" on="1"/>
        <pt x="340" y="252" on="1"/>
        <pt x="340" y="303" on="0"/>
        <pt x="310" y="345" on="0"/>
        <pt x="278" y="345" on="1"/>
        <pt x="263" y="345" on="0"/>
        <pt x="232" y="336" on="0"/>
        <pt x="217" y="328" on="1"/>
        <pt x="217" y="80" on="1"/>
        <pt x="217" y="71" on="0"/>
        <pt x="226" y="62" on="0"/>
        <pt x="233" y="59" on="1"/>
        <pt x="257" y="52" on="1"/>
        <pt x="257" y="0" on="1"/>
        <pt x="29" y="0" on="1"/>
        <pt x="29" y="52" on="1"/>
        <pt x="69" y="59" on="1"/>
        <pt x="76" y="60" on="0"/>
        <pt x="85" y="71" on="0"/>
        <pt x="85" y="80" on="1"/>
        <pt x="85" y="319" on="1"/>
        <pt x="85" y="327" on="0"/>
        <pt x="77" y="339" on="0"/>
        <pt x="69" y="340" on="1"/>
        <pt x="25" y="349" on="1"/>
        <pt x="25" y="403" on="1"/>
        <pt x="63" y="413" on="0"/>
        <pt x="147" y="423" on="0"/>
        <pt x="184" y="424" on="1"/>
        <pt x="203" y="408" on="1"/>
        <pt x="210" y="368" on="1"/>
        <pt x="236" y="396" on="0"/>
        <pt x="306" y="423" on="0"/>
        <pt x="346" y="423" on="1"/>
        <pt x="419" y="423" on="0"/>
        <pt x="474" y="341" on="0"/>
        <pt x="474" y="266" on="1"/>
        <pt x="474" y="9" on="1"/>
        <pt x="474" y="-86" on="0"/>
        <pt x="394" y="-191" on="0"/>
      </contour>
    </TTGlyph>
    <TTGlyph name="eogonek" xMin="30" yMin="-189" xMax="401" yMax="424">
      <contour>
        <pt x="227" y="371" on="1"/>
        <pt x="202" y="371" on="0"/>
        <pt x="170" y="328" on="0"/>
        <pt x="166" y="273" on="1"/>
        <pt x="281" y="273" on="1"/>
        <pt x="282" y="277" on="0"/>
        <pt x="282" y="285" on="0"/>
        <pt x="282" y="290" on="1"/>
        <pt x="282" y="325" on="0"/>
        <pt x="255" y="371" on="0"/>
      </contour>
      <contour>
        <pt x="383" y="-161" on="1"/>
        <pt x="361" y="-174" on="0"/>
        <pt x="305" y="-189" on="0"/>
        <pt x="278" y="-189" on="1"/>
        <pt x="236" y="-188" on="0"/>
        <pt x="177" y="-150" on="0"/>
        <pt x="177" y="-113" on="1"/>
        <pt x="177" y="-73" on="0"/>
        <pt x="234" y="-21" on="0"/>
        <pt x="258" y="-9" on="1"/>
        <pt x="258" y="-7" on="1"/>
        <pt x="251" y="-8" on="0"/>
        <pt x="234" y="-9" on="0"/>
        <pt x="225" y="-9" on="1"/>
        <pt x="125" y="-9" on="0"/>
        <pt x="30" y="106" on="0"/>
        <pt x="30" y="204" on="1"/>
        <pt x="30" y="311" on="0"/>
        <pt x="137" y="424" on="0"/>
        <pt x="236" y="424" on="1"/>
        <pt x="323" y="424" on="0"/>
        <pt x="401" y="344" on="0"/>
        <pt x="401" y="284" on="1"/>
        <pt x="401" y="270" on="0"/>
        <pt x="398" y="238" on="0"/>
        <pt x="395" y="225" on="1"/>
        <pt x="164" y="225" on="1"/>
        <pt x="164" y="144" on="0"/>
        <pt x="208" y="71" on="0"/>
        <pt x="265" y="71" on="1"/>
        <pt x="295" y="71" on="0"/>
        <pt x="351" y="91" on="0"/>
        <pt x="370" y="112" on="1"/>
        <pt x="400" y="89" on="1"/>
        <pt x="393" y="72" on="0"/>
        <pt x="370" y="40" on="0"/>
        <pt x="351" y="25" on="1"/>
        <pt x="350" y="24" on="0"/>
        <pt x="345" y="21" on="0"/>
        <pt x="344" y="20" on="1"/>
        <pt x="310" y="-9" on="0"/>
        <pt x="277" y="-57" on="0"/>
        <pt x="277" y="-80" on="1"/>
        <pt x="277" y="-100" on="0"/>
        <pt x="303" y="-119" on="0"/>
        <pt x="321" y="-119" on="1"/>
        <pt x="332" y="-119" on="0"/>
        <pt x="354" y="-114" on="0"/>
        <pt x="364" y="-110" on="1"/>
      </contour>
    </TTGlyph>
    <TTGlyph name="equal" xMin="45" yMin="99" xMax="387" yMax="347">
      <contour>
        <pt x="387" y="264" on="1"/>
        <pt x="45" y="264" on="1"/>
        <pt x="45" y="347" on="1"/>
        <pt x="387" y="347" on="1"/>
      </contour>
      <contour>
        <pt x="387" y="99" on="1"/>
        <pt x="45" y="99" on="1"/>
        <pt x="45" y="181" on="1"/>
        <pt x="387" y="181" on="1"/>
      </contour>
    </TTGlyph>
    <TTGlyph name="estimated" xMin="35" yMin="-12" xMax="476" yMax="499">
      <contour>
        <pt x="176" y="417" on="1"/>
        <pt x="176" y="280" on="1"/>
        <pt x="343" y="280" on="1"/>
        <pt x="343" y="427" on="1"/>
        <pt x="332" y="437" on="0"/>
        <pt x="291" y="448" on="0"/>
        <pt x="269" y="448" on="1"/>
        <pt x="243" y="448" on="0"/>
        <pt x="192" y="432" on="0"/>
      </contour>
      <contour>
        <pt x="444" y="36" on="1"/>
        <pt x="419" y="17" on="0"/>
        <pt x="333" y="-12" on="0"/>
        <pt x="281" y="-12" on="1"/>
        <pt x="168" y="-12" on="0"/>
        <pt x="35" y="132" on="0"/>
        <pt x="35" y="245" on="1"/>
        <pt x="35" y="353" on="0"/>
        <pt x="159" y="499" on="0"/>
        <pt x="272" y="499" on="1"/>
        <pt x="364" y="499" on="0"/>
        <pt x="473" y="396" on="0"/>
        <pt x="476" y="301" on="1"/>
        <pt x="476" y="279" on="0"/>
        <pt x="475" y="241" on="0"/>
        <pt x="472" y="227" on="1"/>
        <pt x="176" y="228" on="1"/>
        <pt x="176" y="81" on="1"/>
        <pt x="194" y="64" on="0"/>
        <pt x="253" y="44" on="0"/>
        <pt x="289" y="44" on="1"/>
        <pt x="334" y="44" on="0"/>
        <pt x="400" y="70" on="0"/>
        <pt x="419" y="83" on="1"/>
      </contour>
    </TTGlyph>
    <TTGlyph name="eth" xMin="30" yMin="-8" xMax="439" yMax="654">
      <contour>
        <pt x="225" y="-8" on="1"/>
        <pt x="135" y="-8" on="0"/>
        <pt x="30" y="97" on="0"/>
        <pt x="30" y="200" on="1"/>
        <pt x="30" y="258" on="0"/>
        <pt x="62" y="338" on="0"/>
        <pt x="111" y="388" on="0"/>
        <pt x="171" y="410" on="0"/>
        <pt x="199" y="410" on="1"/>
        <pt x="221" y="410" on="0"/>
        <pt x="267" y="396" on="0"/>
        <pt x="284" y="381" on="1"/>
        <pt x="274" y="416" on="0"/>
        <pt x="241" y="476" on="0"/>
        <pt x="218" y="502" on="1"/>
        <pt x="115" y="433" on="1"/>
        <pt x="80" y="491" on="1"/>
        <pt x="172" y="544" on="1"/>
        <pt x="151" y="560" on="0"/>
        <pt x="101" y="592" on="0"/>
        <pt x="71" y="608" on="1"/>
        <pt x="94" y="654" on="1"/>
        <pt x="139" y="644" on="0"/>
        <pt x="217" y="613" on="0"/>
        <pt x="250" y="592" on="1"/>
        <pt x="343" y="653" on="1"/>
        <pt x="379" y="596" on="1"/>
        <pt x="302" y="553" on="1"/>
        <pt x="370" y="493" on="0"/>
        <pt x="439" y="328" on="0"/>
        <pt x="439" y="238" on="1"/>
        <pt x="439" y="191" on="0"/>
        <pt x="418" y="102" on="0"/>
        <pt x="369" y="34" on="0"/>
        <pt x="287" y="-8" on="0"/>
      </contour>
      <contour>
        <pt x="237" y="48" on="1"/>
        <pt x="272" y="48" on="0"/>
        <pt x="303" y="124" on="0"/>
        <pt x="303" y="218" on="1"/>
        <pt x="303" y="245" on="0"/>
        <pt x="300" y="294" on="0"/>
        <pt x="297" y="316" on="1"/>
        <pt x="286" y="327" on="0"/>
        <pt x="257" y="340" on="0"/>
        <pt x="238" y="340" on="1"/>
        <pt x="206" y="340" on="0"/>
        <pt x="172" y="281" on="0"/>
        <pt x="172" y="199" on="1"/>
        <pt x="172" y="129" on="0"/>
        <pt x="201" y="48" on="0"/>
      </contour>
    </TTGlyph>
    <TTGlyph name="exclam" xMin="56" yMin="-6" xMax="202" yMax="623">
      <contour>
        <pt x="57" y="546" on="1"/>
        <pt x="57" y="623" on="1"/>
        <pt x="201" y="623" on="1"/>
        <pt x="201" y="546" on="1"/>
        <pt x="168" y="185" on="1"/>
        <pt x="90" y="185" on="1"/>
      </contour>
      <contour>
        <pt x="202" y="59" on="1"/>
        <pt x="202" y="30" on="0"/>
        <pt x="162" y="-6" on="0"/>
        <pt x="129" y="-6" on="1"/>
        <pt x="96" y="-6" on="0"/>
        <pt x="56" y="30" on="0"/>
        <pt x="56" y="59" on="1"/>
        <pt x="56" y="89" on="0"/>
        <pt x="96" y="125" on="0"/>
        <pt x="129" y="125" on="1"/>
        <pt x="162" y="125" on="0"/>
        <pt x="202" y="89" on="0"/>
      </contour>
    </TTGlyph>
    <TTGlyph name="exclamdown" xMin="50" yMin="-203" xMax="196" yMax="425">
      <contour>
        <pt x="196" y="360" on="1"/>
        <pt x="196" y="330" on="0"/>
        <pt x="157" y="295" on="0"/>
        <pt x="124" y="295" on="1"/>
        <pt x="90" y="295" on="0"/>
        <pt x="50" y="330" on="0"/>
        <pt x="50" y="360" on="1"/>
        <pt x="50" y="390" on="0"/>
        <pt x="90" y="425" on="0"/>
        <pt x="124" y="425" on="1"/>
        <pt x="157" y="425" on="0"/>
        <pt x="196" y="390" on="0"/>
      </contour>
      <contour>
        <pt x="196" y="-203" on="1"/>
        <pt x="51" y="-203" on="1"/>
        <pt x="51" y="-127" on="1"/>
        <pt x="84" y="234" on="1"/>
        <pt x="163" y="234" on="1"/>
        <pt x="196" y="-127" on="1"/>
      </contour>
    </TTGlyph>
    <TTGlyph name="f" xMin="24" yMin="0" xMax="394" yMax="654">
      <contour>
        <pt x="88" y="429" on="1"/>
        <pt x="88" y="468" on="0"/>
        <pt x="122" y="548" on="0"/>
        <pt x="177" y="613" on="0"/>
        <pt x="248" y="654" on="0"/>
        <pt x="284" y="654" on="1"/>
        <pt x="314" y="654" on="0"/>
        <pt x="371" y="629" on="0"/>
        <pt x="394" y="612" on="1"/>
        <pt x="368" y="541" on="1"/>
        <pt x="346" y="545" on="0"/>
        <pt x="301" y="552" on="0"/>
        <pt x="288" y="551" on="1"/>
        <pt x="254" y="550" on="0"/>
        <pt x="216" y="522" on="0"/>
        <pt x="216" y="473" on="1"/>
        <pt x="216" y="413" on="1"/>
        <pt x="332" y="413" on="1"/>
        <pt x="332" y="343" on="1"/>
        <pt x="217" y="343" on="1"/>
        <pt x="217" y="79" on="1"/>
        <pt x="217" y="71" on="0"/>
        <pt x="226" y="61" on="0"/>
        <pt x="235" y="60" on="1"/>
        <pt x="309" y="52" on="1"/>
        <pt x="309" y="0" on="1"/>
        <pt x="29" y="0" on="1"/>
        <pt x="29" y="52" on="1"/>
        <pt x="68" y="59" on="1"/>
        <pt x="76" y="60" on="0"/>
        <pt x="85" y="70" on="0"/>
        <pt x="85" y="79" on="1"/>
        <pt x="85" y="341" on="1"/>
        <pt x="24" y="352" on="1"/>
        <pt x="24" y="402" on="1"/>
        <pt x="88" y="414" on="1"/>
      </contour>
    </TTGlyph>
    <TTGlyph name="f_b" xMin="24" yMin="-8" xMax="782" yMax="655">
      <contour>
        <pt x="549" y="-8" on="1"/>
        <pt x="502" y="-8" on="0"/>
        <pt x="408" y="10" on="0"/>
        <pt x="386" y="20" on="1"/>
        <pt x="386" y="540" on="1"/>
        <pt x="367" y="546" on="0"/>
        <pt x="326" y="552" on="0"/>
        <pt x="303" y="552" on="1"/>
        <pt x="271" y="552" on="0"/>
        <pt x="213" y="519" on="0"/>
        <pt x="213" y="473" on="1"/>
        <pt x="213" y="413" on="1"/>
        <pt x="329" y="413" on="1"/>
        <pt x="329" y="343" on="1"/>
        <pt x="214" y="343" on="1"/>
        <pt x="214" y="79" on="1"/>
        <pt x="214" y="71" on="0"/>
        <pt x="223" y="61" on="0"/>
        <pt x="232" y="60" on="1"/>
        <pt x="305" y="52" on="1"/>
        <pt x="305" y="0" on="1"/>
        <pt x="29" y="0" on="1"/>
        <pt x="29" y="52" on="1"/>
        <pt x="68" y="59" on="1"/>
        <pt x="76" y="60" on="0"/>
        <pt x="85" y="70" on="0"/>
        <pt x="85" y="79" on="1"/>
        <pt x="85" y="341" on="1"/>
        <pt x="24" y="352" on="1"/>
        <pt x="24" y="402" on="1"/>
        <pt x="88" y="414" on="1"/>
        <pt x="88" y="437" on="1"/>
        <pt x="88" y="476" on="0"/>
        <pt x="126" y="554" on="0"/>
        <pt x="188" y="615" on="0"/>
        <pt x="268" y="654" on="0"/>
        <pt x="309" y="654" on="1"/>
        <pt x="333" y="654" on="0"/>
        <pt x="381" y="638" on="0"/>
        <pt x="403" y="625" on="1"/>
        <pt x="427" y="635" on="0"/>
        <pt x="477" y="651" on="0"/>
        <pt x="498" y="655" on="1"/>
        <pt x="515" y="639" on="1"/>
        <pt x="515" y="380" on="1"/>
        <pt x="537" y="402" on="0"/>
        <pt x="595" y="425" on="0"/>
        <pt x="628" y="425" on="1"/>
        <pt x="693" y="425" on="0"/>
        <pt x="782" y="329" on="0"/>
        <pt x="782" y="228" on="1"/>
        <pt x="782" y="116" on="0"/>
        <pt x="662" y="-8" on="0"/>
      </contour>
      <contour>
        <pt x="559" y="43" on="1"/>
        <pt x="600" y="43" on="0"/>
        <pt x="643" y="120" on="0"/>
        <pt x="644" y="204" on="1"/>
        <pt x="645" y="286" on="0"/>
        <pt x="605" y="348" on="0"/>
        <pt x="568" y="348" on="1"/>
        <pt x="555" y="348" on="0"/>
        <pt x="528" y="341" on="0"/>
        <pt x="515" y="334" on="1"/>
        <pt x="515" y="53" on="1"/>
        <pt x="524" y="49" on="0"/>
        <pt x="546" y="43" on="0"/>
      </contour>
    </TTGlyph>
    <TTGlyph name="f_f" xMin="24" yMin="0" xMax="700" yMax="654">
      <contour>
        <pt x="294" y="0" on="1"/>
        <pt x="29" y="0" on="1"/>
        <pt x="29" y="52" on="1"/>
        <pt x="68" y="59" on="1"/>
        <pt x="76" y="60" on="0"/>
        <pt x="85" y="70" on="0"/>
        <pt x="85" y="79" on="1"/>
        <pt x="85" y="341" on="1"/>
        <pt x="24" y="352" on="1"/>
        <pt x="24" y="402" on="1"/>
        <pt x="88" y="413" on="1"/>
        <pt x="89" y="422" on="1"/>
        <pt x="90" y="460" on="0"/>
        <pt x="125" y="535" on="0"/>
        <pt x="179" y="594" on="0"/>
        <pt x="248" y="631" on="0"/>
        <pt x="284" y="631" on="1"/>
        <pt x="313" y="631" on="0"/>
        <pt x="368" y="609" on="0"/>
        <pt x="391" y="593" on="1"/>
        <pt x="363" y="519" on="1"/>
        <pt x="343" y="523" on="0"/>
        <pt x="300" y="530" on="0"/>
        <pt x="288" y="529" on="1"/>
        <pt x="254" y="528" on="0"/>
        <pt x="214" y="501" on="0"/>
        <pt x="214" y="452" on="1"/>
        <pt x="214" y="413" on="1"/>
        <pt x="397" y="413" on="1"/>
        <pt x="397" y="429" on="1"/>
        <pt x="397" y="468" on="0"/>
        <pt x="430" y="548" on="0"/>
        <pt x="484" y="613" on="0"/>
        <pt x="554" y="654" on="0"/>
        <pt x="590" y="654" on="1"/>
        <pt x="620" y="654" on="0"/>
        <pt x="677" y="631" on="0"/>
        <pt x="700" y="615" on="1"/>
        <pt x="674" y="541" on="1"/>
        <pt x="652" y="545" on="0"/>
        <pt x="607" y="552" on="0"/>
        <pt x="594" y="551" on="1"/>
        <pt x="560" y="550" on="0"/>
        <pt x="522" y="522" on="0"/>
        <pt x="522" y="473" on="1"/>
        <pt x="522" y="413" on="1"/>
        <pt x="637" y="413" on="1"/>
        <pt x="637" y="343" on="1"/>
        <pt x="523" y="343" on="1"/>
        <pt x="523" y="79" on="1"/>
        <pt x="523" y="71" on="0"/>
        <pt x="532" y="61" on="0"/>
        <pt x="540" y="60" on="1"/>
        <pt x="615" y="52" on="1"/>
        <pt x="615" y="0" on="1"/>
        <pt x="341" y="0" on="1"/>
        <pt x="341" y="52" on="1"/>
        <pt x="377" y="59" on="1"/>
        <pt x="385" y="60" on="0"/>
        <pt x="394" y="70" on="0"/>
        <pt x="394" y="79" on="1"/>
        <pt x="394" y="343" on="1"/>
        <pt x="214" y="343" on="1"/>
        <pt x="214" y="79" on="1"/>
        <pt x="214" y="71" on="0"/>
        <pt x="223" y="61" on="0"/>
        <pt x="232" y="60" on="1"/>
        <pt x="294" y="52" on="1"/>
      </contour>
    </TTGlyph>
    <TTGlyph name="f_f_b" xMin="24" yMin="-8" xMax="1091" yMax="655">
      <contour>
        <pt x="1091" y="228" on="1"/>
        <pt x="1091" y="116" on="0"/>
        <pt x="971" y="-8" on="0"/>
        <pt x="858" y="-8" on="1"/>
        <pt x="811" y="-8" on="0"/>
        <pt x="717" y="10" on="0"/>
        <pt x="695" y="20" on="1"/>
        <pt x="695" y="540" on="1"/>
        <pt x="676" y="546" on="0"/>
        <pt x="634" y="552" on="0"/>
        <pt x="611" y="552" on="1"/>
        <pt x="580" y="552" on="0"/>
        <pt x="522" y="519" on="0"/>
        <pt x="522" y="473" on="1"/>
        <pt x="522" y="413" on="1"/>
        <pt x="637" y="413" on="1"/>
        <pt x="637" y="343" on="1"/>
        <pt x="523" y="343" on="1"/>
        <pt x="523" y="79" on="1"/>
        <pt x="523" y="71" on="0"/>
        <pt x="532" y="61" on="0"/>
        <pt x="540" y="60" on="1"/>
        <pt x="614" y="52" on="1"/>
        <pt x="614" y="0" on="1"/>
        <pt x="338" y="0" on="1"/>
        <pt x="338" y="52" on="1"/>
        <pt x="377" y="59" on="1"/>
        <pt x="385" y="60" on="0"/>
        <pt x="394" y="70" on="0"/>
        <pt x="394" y="79" on="1"/>
        <pt x="394" y="343" on="1"/>
        <pt x="214" y="343" on="1"/>
        <pt x="214" y="79" on="1"/>
        <pt x="214" y="71" on="0"/>
        <pt x="223" y="61" on="0"/>
        <pt x="232" y="60" on="1"/>
        <pt x="294" y="52" on="1"/>
        <pt x="294" y="0" on="1"/>
        <pt x="29" y="0" on="1"/>
        <pt x="29" y="52" on="1"/>
        <pt x="68" y="59" on="1"/>
        <pt x="76" y="60" on="0"/>
        <pt x="85" y="70" on="0"/>
        <pt x="85" y="79" on="1"/>
        <pt x="85" y="341" on="1"/>
        <pt x="24" y="352" on="1"/>
        <pt x="24" y="402" on="1"/>
        <pt x="88" y="413" on="1"/>
        <pt x="89" y="422" on="1"/>
        <pt x="90" y="460" on="0"/>
        <pt x="125" y="535" on="0"/>
        <pt x="179" y="594" on="0"/>
        <pt x="248" y="631" on="0"/>
        <pt x="284" y="631" on="1"/>
        <pt x="313" y="631" on="0"/>
        <pt x="368" y="609" on="0"/>
        <pt x="391" y="593" on="1"/>
        <pt x="363" y="519" on="1"/>
        <pt x="343" y="523" on="0"/>
        <pt x="300" y="530" on="0"/>
        <pt x="288" y="529" on="1"/>
        <pt x="254" y="528" on="0"/>
        <pt x="214" y="501" on="0"/>
        <pt x="214" y="452" on="1"/>
        <pt x="214" y="413" on="1"/>
        <pt x="397" y="413" on="1"/>
        <pt x="397" y="437" on="1"/>
        <pt x="397" y="476" on="0"/>
        <pt x="435" y="554" on="0"/>
        <pt x="497" y="615" on="0"/>
        <pt x="576" y="654" on="0"/>
        <pt x="617" y="654" on="1"/>
        <pt x="642" y="654" on="0"/>
        <pt x="690" y="638" on="0"/>
        <pt x="711" y="625" on="1"/>
        <pt x="736" y="635" on="0"/>
        <pt x="786" y="651" on="0"/>
        <pt x="807" y="655" on="1"/>
        <pt x="824" y="639" on="1"/>
        <pt x="824" y="380" on="1"/>
        <pt x="846" y="402" on="0"/>
        <pt x="903" y="425" on="0"/>
        <pt x="937" y="425" on="1"/>
        <pt x="1002" y="425" on="0"/>
        <pt x="1091" y="329" on="0"/>
      </contour>
      <contour>
        <pt x="867" y="43" on="1"/>
        <pt x="909" y="43" on="0"/>
        <pt x="951" y="120" on="0"/>
        <pt x="952" y="204" on="1"/>
        <pt x="953" y="286" on="0"/>
        <pt x="914" y="348" on="0"/>
        <pt x="877" y="348" on="1"/>
        <pt x="864" y="348" on="0"/>
        <pt x="837" y="341" on="0"/>
        <pt x="824" y="334" on="1"/>
        <pt x="824" y="53" on="1"/>
        <pt x="833" y="49" on="0"/>
        <pt x="854" y="43" on="0"/>
      </contour>
    </TTGlyph>
    <TTGlyph name="f_f_h" xMin="24" yMin="0" xMax="1144" yMax="655">
      <contour>
        <pt x="294" y="0" on="1"/>
        <pt x="29" y="0" on="1"/>
        <pt x="29" y="52" on="1"/>
        <pt x="68" y="59" on="1"/>
        <pt x="76" y="60" on="0"/>
        <pt x="85" y="70" on="0"/>
        <pt x="85" y="79" on="1"/>
        <pt x="85" y="341" on="1"/>
        <pt x="24" y="352" on="1"/>
        <pt x="24" y="402" on="1"/>
        <pt x="88" y="413" on="1"/>
        <pt x="89" y="422" on="1"/>
        <pt x="90" y="460" on="0"/>
        <pt x="125" y="535" on="0"/>
        <pt x="179" y="594" on="0"/>
        <pt x="248" y="631" on="0"/>
        <pt x="284" y="631" on="1"/>
        <pt x="313" y="631" on="0"/>
        <pt x="368" y="609" on="0"/>
        <pt x="391" y="593" on="1"/>
        <pt x="363" y="519" on="1"/>
        <pt x="343" y="523" on="0"/>
        <pt x="300" y="530" on="0"/>
        <pt x="288" y="529" on="1"/>
        <pt x="254" y="528" on="0"/>
        <pt x="214" y="501" on="0"/>
        <pt x="214" y="452" on="1"/>
        <pt x="214" y="413" on="1"/>
        <pt x="397" y="413" on="1"/>
        <pt x="397" y="437" on="1"/>
        <pt x="397" y="476" on="0"/>
        <pt x="436" y="554" on="0"/>
        <pt x="499" y="615" on="0"/>
        <pt x="579" y="654" on="0"/>
        <pt x="620" y="654" on="1"/>
        <pt x="645" y="654" on="0"/>
        <pt x="696" y="637" on="0"/>
        <pt x="718" y="624" on="1"/>
        <pt x="743" y="634" on="0"/>
        <pt x="792" y="651" on="0"/>
        <pt x="813" y="655" on="1"/>
        <pt x="831" y="638" on="1"/>
        <pt x="831" y="374" on="1"/>
        <pt x="856" y="399" on="0"/>
        <pt x="921" y="423" on="0"/>
        <pt x="960" y="423" on="1"/>
        <pt x="1033" y="423" on="0"/>
        <pt x="1087" y="341" on="0"/>
        <pt x="1087" y="266" on="1"/>
        <pt x="1087" y="80" on="1"/>
        <pt x="1087" y="71" on="0"/>
        <pt x="1096" y="60" on="0"/>
        <pt x="1104" y="59" on="1"/>
        <pt x="1144" y="52" on="1"/>
        <pt x="1144" y="0" on="1"/>
        <pt x="915" y="0" on="1"/>
        <pt x="915" y="52" on="1"/>
        <pt x="940" y="59" on="1"/>
        <pt x="948" y="62" on="0"/>
        <pt x="956" y="71" on="0"/>
        <pt x="956" y="80" on="1"/>
        <pt x="956" y="252" on="1"/>
        <pt x="956" y="303" on="0"/>
        <pt x="926" y="345" on="0"/>
        <pt x="894" y="345" on="1"/>
        <pt x="879" y="345" on="0"/>
        <pt x="847" y="336" on="0"/>
        <pt x="831" y="327" on="1"/>
        <pt x="831" y="80" on="1"/>
        <pt x="831" y="71" on="0"/>
        <pt x="839" y="62" on="0"/>
        <pt x="847" y="59" on="1"/>
        <pt x="872" y="52" on="1"/>
        <pt x="872" y="0" on="1"/>
        <pt x="647" y="0" on="1"/>
        <pt x="647" y="52" on="1"/>
        <pt x="686" y="59" on="1"/>
        <pt x="694" y="60" on="0"/>
        <pt x="703" y="71" on="0"/>
        <pt x="703" y="80" on="1"/>
        <pt x="703" y="539" on="1"/>
        <pt x="683" y="546" on="0"/>
        <pt x="638" y="552" on="0"/>
        <pt x="614" y="552" on="1"/>
        <pt x="583" y="552" on="0"/>
        <pt x="522" y="519" on="0"/>
        <pt x="522" y="473" on="1"/>
        <pt x="522" y="413" on="1"/>
        <pt x="637" y="413" on="1"/>
        <pt x="637" y="343" on="1"/>
        <pt x="523" y="343" on="1"/>
        <pt x="523" y="79" on="1"/>
        <pt x="523" y="71" on="0"/>
        <pt x="532" y="61" on="0"/>
        <pt x="540" y="60" on="1"/>
        <pt x="603" y="52" on="1"/>
        <pt x="603" y="0" on="1"/>
        <pt x="338" y="0" on="1"/>
        <pt x="338" y="52" on="1"/>
        <pt x="377" y="59" on="1"/>
        <pt x="385" y="60" on="0"/>
        <pt x="394" y="70" on="0"/>
        <pt x="394" y="79" on="1"/>
        <pt x="394" y="343" on="1"/>
        <pt x="214" y="343" on="1"/>
        <pt x="214" y="79" on="1"/>
        <pt x="214" y="71" on="0"/>
        <pt x="223" y="61" on="0"/>
        <pt x="232" y="60" on="1"/>
        <pt x="294" y="52" on="1"/>
      </contour>
    </TTGlyph>
    <TTGlyph name="f_f_k" xMin="24" yMin="0" xMax="1137" yMax="655">
      <contour>
        <pt x="294" y="0" on="1"/>
        <pt x="29" y="0" on="1"/>
        <pt x="29" y="52" on="1"/>
        <pt x="68" y="59" on="1"/>
        <pt x="76" y="60" on="0"/>
        <pt x="85" y="70" on="0"/>
        <pt x="85" y="79" on="1"/>
        <pt x="85" y="341" on="1"/>
        <pt x="24" y="352" on="1"/>
        <pt x="24" y="402" on="1"/>
        <pt x="88" y="413" on="1"/>
        <pt x="89" y="422" on="1"/>
        <pt x="90" y="460" on="0"/>
        <pt x="125" y="535" on="0"/>
        <pt x="179" y="594" on="0"/>
        <pt x="248" y="631" on="0"/>
        <pt x="284" y="631" on="1"/>
        <pt x="313" y="631" on="0"/>
        <pt x="368" y="609" on="0"/>
        <pt x="391" y="593" on="1"/>
        <pt x="363" y="519" on="1"/>
        <pt x="343" y="523" on="0"/>
        <pt x="300" y="530" on="0"/>
        <pt x="288" y="529" on="1"/>
        <pt x="254" y="528" on="0"/>
        <pt x="214" y="501" on="0"/>
        <pt x="214" y="452" on="1"/>
        <pt x="214" y="413" on="1"/>
        <pt x="397" y="413" on="1"/>
        <pt x="397" y="437" on="1"/>
        <pt x="397" y="476" on="0"/>
        <pt x="436" y="554" on="0"/>
        <pt x="499" y="615" on="0"/>
        <pt x="579" y="654" on="0"/>
        <pt x="620" y="654" on="1"/>
        <pt x="645" y="654" on="0"/>
        <pt x="696" y="637" on="0"/>
        <pt x="718" y="624" on="1"/>
        <pt x="743" y="634" on="0"/>
        <pt x="792" y="651" on="0"/>
        <pt x="813" y="655" on="1"/>
        <pt x="831" y="638" on="1"/>
        <pt x="831" y="209" on="1"/>
        <pt x="966" y="352" on="1"/>
        <pt x="899" y="364" on="1"/>
        <pt x="899" y="413" on="1"/>
        <pt x="1116" y="413" on="1"/>
        <pt x="1116" y="364" on="1"/>
        <pt x="1073" y="353" on="1"/>
        <pt x="1059" y="350" on="0"/>
        <pt x="1044" y="344" on="0"/>
        <pt x="1035" y="336" on="1"/>
        <pt x="967" y="270" on="1"/>
        <pt x="980" y="255" on="0"/>
        <pt x="1002" y="219" on="0"/>
        <pt x="1015" y="194" on="1"/>
        <pt x="1073" y="83" on="1"/>
        <pt x="1077" y="73" on="0"/>
        <pt x="1088" y="65" on="0"/>
        <pt x="1098" y="63" on="1"/>
        <pt x="1137" y="52" on="1"/>
        <pt x="1137" y="0" on="1"/>
        <pt x="986" y="0" on="1"/>
        <pt x="967" y="0" on="0"/>
        <pt x="944" y="43" on="0"/>
        <pt x="931" y="71" on="1"/>
        <pt x="899" y="144" on="1"/>
        <pt x="895" y="154" on="0"/>
        <pt x="884" y="174" on="0"/>
        <pt x="879" y="183" on="1"/>
        <pt x="831" y="136" on="1"/>
        <pt x="831" y="80" on="1"/>
        <pt x="831" y="71" on="0"/>
        <pt x="840" y="60" on="0"/>
        <pt x="848" y="59" on="1"/>
        <pt x="886" y="52" on="1"/>
        <pt x="886" y="0" on="1"/>
        <pt x="647" y="0" on="1"/>
        <pt x="647" y="52" on="1"/>
        <pt x="686" y="59" on="1"/>
        <pt x="694" y="60" on="0"/>
        <pt x="703" y="72" on="0"/>
        <pt x="703" y="80" on="1"/>
        <pt x="703" y="539" on="1"/>
        <pt x="683" y="546" on="0"/>
        <pt x="638" y="552" on="0"/>
        <pt x="614" y="552" on="1"/>
        <pt x="583" y="552" on="0"/>
        <pt x="522" y="519" on="0"/>
        <pt x="522" y="473" on="1"/>
        <pt x="522" y="413" on="1"/>
        <pt x="637" y="413" on="1"/>
        <pt x="637" y="343" on="1"/>
        <pt x="523" y="343" on="1"/>
        <pt x="523" y="79" on="1"/>
        <pt x="523" y="71" on="0"/>
        <pt x="532" y="61" on="0"/>
        <pt x="540" y="60" on="1"/>
        <pt x="603" y="52" on="1"/>
        <pt x="603" y="0" on="1"/>
        <pt x="338" y="0" on="1"/>
        <pt x="338" y="52" on="1"/>
        <pt x="377" y="59" on="1"/>
        <pt x="385" y="60" on="0"/>
        <pt x="394" y="70" on="0"/>
        <pt x="394" y="79" on="1"/>
        <pt x="394" y="343" on="1"/>
        <pt x="214" y="343" on="1"/>
        <pt x="214" y="79" on="1"/>
        <pt x="214" y="71" on="0"/>
        <pt x="223" y="61" on="0"/>
        <pt x="232" y="60" on="1"/>
        <pt x="294" y="52" on="1"/>
      </contour>
    </TTGlyph>
    <TTGlyph name="f_f_l" xMin="24" yMin="0" xMax="892" yMax="655">
      <contour>
        <pt x="294" y="0" on="1"/>
        <pt x="29" y="0" on="1"/>
        <pt x="29" y="52" on="1"/>
        <pt x="68" y="59" on="1"/>
        <pt x="76" y="60" on="0"/>
        <pt x="85" y="70" on="0"/>
        <pt x="85" y="79" on="1"/>
        <pt x="85" y="341" on="1"/>
        <pt x="24" y="352" on="1"/>
        <pt x="24" y="402" on="1"/>
        <pt x="88" y="413" on="1"/>
        <pt x="89" y="422" on="1"/>
        <pt x="90" y="460" on="0"/>
        <pt x="125" y="535" on="0"/>
        <pt x="179" y="594" on="0"/>
        <pt x="248" y="631" on="0"/>
        <pt x="284" y="631" on="1"/>
        <pt x="313" y="631" on="0"/>
        <pt x="368" y="609" on="0"/>
        <pt x="391" y="593" on="1"/>
        <pt x="363" y="519" on="1"/>
        <pt x="343" y="523" on="0"/>
        <pt x="300" y="530" on="0"/>
        <pt x="288" y="529" on="1"/>
        <pt x="254" y="528" on="0"/>
        <pt x="214" y="501" on="0"/>
        <pt x="214" y="452" on="1"/>
        <pt x="214" y="413" on="1"/>
        <pt x="397" y="413" on="1"/>
        <pt x="397" y="437" on="1"/>
        <pt x="397" y="476" on="0"/>
        <pt x="436" y="554" on="0"/>
        <pt x="499" y="615" on="0"/>
        <pt x="579" y="654" on="0"/>
        <pt x="620" y="654" on="1"/>
        <pt x="645" y="654" on="0"/>
        <pt x="696" y="637" on="0"/>
        <pt x="718" y="624" on="1"/>
        <pt x="743" y="634" on="0"/>
        <pt x="792" y="651" on="0"/>
        <pt x="813" y="655" on="1"/>
        <pt x="831" y="638" on="1"/>
        <pt x="831" y="80" on="1"/>
        <pt x="831" y="71" on="0"/>
        <pt x="840" y="60" on="0"/>
        <pt x="848" y="59" on="1"/>
        <pt x="892" y="52" on="1"/>
        <pt x="892" y="0" on="1"/>
        <pt x="647" y="0" on="1"/>
        <pt x="647" y="52" on="1"/>
        <pt x="686" y="59" on="1"/>
        <pt x="694" y="60" on="0"/>
        <pt x="703" y="71" on="0"/>
        <pt x="703" y="79" on="1"/>
        <pt x="703" y="539" on="1"/>
        <pt x="683" y="546" on="0"/>
        <pt x="638" y="552" on="0"/>
        <pt x="614" y="552" on="1"/>
        <pt x="583" y="552" on="0"/>
        <pt x="522" y="519" on="0"/>
        <pt x="522" y="473" on="1"/>
        <pt x="522" y="413" on="1"/>
        <pt x="637" y="413" on="1"/>
        <pt x="637" y="343" on="1"/>
        <pt x="523" y="343" on="1"/>
        <pt x="523" y="79" on="1"/>
        <pt x="523" y="71" on="0"/>
        <pt x="532" y="61" on="0"/>
        <pt x="540" y="60" on="1"/>
        <pt x="603" y="52" on="1"/>
        <pt x="603" y="0" on="1"/>
        <pt x="338" y="0" on="1"/>
        <pt x="338" y="52" on="1"/>
        <pt x="377" y="59" on="1"/>
        <pt x="385" y="60" on="0"/>
        <pt x="394" y="70" on="0"/>
        <pt x="394" y="79" on="1"/>
        <pt x="394" y="343" on="1"/>
        <pt x="214" y="343" on="1"/>
        <pt x="214" y="79" on="1"/>
        <pt x="214" y="71" on="0"/>
        <pt x="223" y="61" on="0"/>
        <pt x="232" y="60" on="1"/>
        <pt x="294" y="52" on="1"/>
      </contour>
    </TTGlyph>
    <TTGlyph name="f_h" xMin="24" yMin="0" xMax="835" yMax="655">
      <contour>
        <pt x="294" y="52" on="1"/>
        <pt x="294" y="0" on="1"/>
        <pt x="29" y="0" on="1"/>
        <pt x="29" y="52" on="1"/>
        <pt x="68" y="59" on="1"/>
        <pt x="76" y="60" on="0"/>
        <pt x="85" y="70" on="0"/>
        <pt x="85" y="79" on="1"/>
        <pt x="85" y="341" on="1"/>
        <pt x="24" y="352" on="1"/>
        <pt x="24" y="402" on="1"/>
        <pt x="88" y="414" on="1"/>
        <pt x="88" y="437" on="1"/>
        <pt x="88" y="476" on="0"/>
        <pt x="127" y="554" on="0"/>
        <pt x="190" y="615" on="0"/>
        <pt x="271" y="654" on="0"/>
        <pt x="312" y="654" on="1"/>
        <pt x="336" y="654" on="0"/>
        <pt x="387" y="637" on="0"/>
        <pt x="409" y="624" on="1"/>
        <pt x="434" y="634" on="0"/>
        <pt x="484" y="651" on="0"/>
        <pt x="505" y="655" on="1"/>
        <pt x="523" y="638" on="1"/>
        <pt x="523" y="375" on="1"/>
        <pt x="548" y="399" on="0"/>
        <pt x="614" y="423" on="0"/>
        <pt x="652" y="423" on="1"/>
        <pt x="724" y="423" on="0"/>
        <pt x="779" y="341" on="0"/>
        <pt x="779" y="266" on="1"/>
        <pt x="779" y="80" on="1"/>
        <pt x="779" y="71" on="0"/>
        <pt x="787" y="60" on="0"/>
        <pt x="795" y="59" on="1"/>
        <pt x="835" y="52" on="1"/>
        <pt x="835" y="0" on="1"/>
        <pt x="607" y="0" on="1"/>
        <pt x="607" y="52" on="1"/>
        <pt x="631" y="59" on="1"/>
        <pt x="639" y="62" on="0"/>
        <pt x="647" y="71" on="0"/>
        <pt x="647" y="80" on="1"/>
        <pt x="647" y="252" on="1"/>
        <pt x="647" y="303" on="0"/>
        <pt x="617" y="345" on="0"/>
        <pt x="585" y="345" on="1"/>
        <pt x="570" y="345" on="0"/>
        <pt x="538" y="336" on="0"/>
        <pt x="523" y="328" on="1"/>
        <pt x="523" y="80" on="1"/>
        <pt x="523" y="71" on="0"/>
        <pt x="531" y="62" on="0"/>
        <pt x="539" y="59" on="1"/>
        <pt x="563" y="52" on="1"/>
        <pt x="563" y="0" on="1"/>
        <pt x="338" y="0" on="1"/>
        <pt x="338" y="52" on="1"/>
        <pt x="377" y="59" on="1"/>
        <pt x="385" y="60" on="0"/>
        <pt x="394" y="71" on="0"/>
        <pt x="394" y="80" on="1"/>
        <pt x="394" y="540" on="1"/>
        <pt x="374" y="546" on="0"/>
        <pt x="329" y="552" on="0"/>
        <pt x="305" y="552" on="1"/>
        <pt x="274" y="552" on="0"/>
        <pt x="213" y="519" on="0"/>
        <pt x="213" y="473" on="1"/>
        <pt x="213" y="413" on="1"/>
        <pt x="329" y="413" on="1"/>
        <pt x="329" y="343" on="1"/>
        <pt x="214" y="343" on="1"/>
        <pt x="214" y="79" on="1"/>
        <pt x="214" y="71" on="0"/>
        <pt x="223" y="61" on="0"/>
        <pt x="232" y="60" on="1"/>
      </contour>
    </TTGlyph>
    <TTGlyph name="f_k" xMin="24" yMin="0" xMax="828" yMax="655">
      <contour>
        <pt x="294" y="52" on="1"/>
        <pt x="294" y="0" on="1"/>
        <pt x="29" y="0" on="1"/>
        <pt x="29" y="52" on="1"/>
        <pt x="68" y="59" on="1"/>
        <pt x="76" y="60" on="0"/>
        <pt x="85" y="70" on="0"/>
        <pt x="85" y="79" on="1"/>
        <pt x="85" y="341" on="1"/>
        <pt x="24" y="352" on="1"/>
        <pt x="24" y="402" on="1"/>
        <pt x="88" y="414" on="1"/>
        <pt x="88" y="437" on="1"/>
        <pt x="88" y="476" on="0"/>
        <pt x="127" y="554" on="0"/>
        <pt x="190" y="615" on="0"/>
        <pt x="271" y="654" on="0"/>
        <pt x="312" y="654" on="1"/>
        <pt x="336" y="654" on="0"/>
        <pt x="387" y="637" on="0"/>
        <pt x="409" y="624" on="1"/>
        <pt x="434" y="634" on="0"/>
        <pt x="484" y="651" on="0"/>
        <pt x="505" y="655" on="1"/>
        <pt x="523" y="638" on="1"/>
        <pt x="523" y="210" on="1"/>
        <pt x="657" y="352" on="1"/>
        <pt x="590" y="364" on="1"/>
        <pt x="590" y="413" on="1"/>
        <pt x="807" y="413" on="1"/>
        <pt x="807" y="364" on="1"/>
        <pt x="765" y="353" on="1"/>
        <pt x="750" y="350" on="0"/>
        <pt x="735" y="344" on="0"/>
        <pt x="727" y="336" on="1"/>
        <pt x="659" y="269" on="1"/>
        <pt x="672" y="254" on="0"/>
        <pt x="693" y="219" on="0"/>
        <pt x="706" y="194" on="1"/>
        <pt x="764" y="83" on="1"/>
        <pt x="769" y="73" on="0"/>
        <pt x="779" y="65" on="0"/>
        <pt x="789" y="63" on="1"/>
        <pt x="828" y="52" on="1"/>
        <pt x="828" y="0" on="1"/>
        <pt x="677" y="0" on="1"/>
        <pt x="658" y="0" on="0"/>
        <pt x="635" y="43" on="0"/>
        <pt x="622" y="71" on="1"/>
        <pt x="590" y="144" on="1"/>
        <pt x="586" y="154" on="0"/>
        <pt x="576" y="174" on="0"/>
        <pt x="570" y="183" on="1"/>
        <pt x="523" y="137" on="1"/>
        <pt x="523" y="80" on="1"/>
        <pt x="523" y="71" on="0"/>
        <pt x="531" y="60" on="0"/>
        <pt x="539" y="59" on="1"/>
        <pt x="577" y="52" on="1"/>
        <pt x="577" y="0" on="1"/>
        <pt x="338" y="0" on="1"/>
        <pt x="338" y="52" on="1"/>
        <pt x="377" y="59" on="1"/>
        <pt x="385" y="60" on="0"/>
        <pt x="394" y="72" on="0"/>
        <pt x="394" y="80" on="1"/>
        <pt x="394" y="540" on="1"/>
        <pt x="374" y="546" on="0"/>
        <pt x="329" y="552" on="0"/>
        <pt x="305" y="552" on="1"/>
        <pt x="274" y="552" on="0"/>
        <pt x="213" y="519" on="0"/>
        <pt x="213" y="473" on="1"/>
        <pt x="213" y="413" on="1"/>
        <pt x="329" y="413" on="1"/>
        <pt x="329" y="343" on="1"/>
        <pt x="214" y="343" on="1"/>
        <pt x="214" y="79" on="1"/>
        <pt x="214" y="71" on="0"/>
        <pt x="223" y="61" on="0"/>
        <pt x="232" y="60" on="1"/>
      </contour>
    </TTGlyph>
    <TTGlyph name="f_l" xMin="24" yMin="0" xMax="584" yMax="655">
      <contour>
        <pt x="294" y="52" on="1"/>
        <pt x="294" y="0" on="1"/>
        <pt x="29" y="0" on="1"/>
        <pt x="29" y="52" on="1"/>
        <pt x="68" y="59" on="1"/>
        <pt x="76" y="60" on="0"/>
        <pt x="85" y="70" on="0"/>
        <pt x="85" y="79" on="1"/>
        <pt x="85" y="341" on="1"/>
        <pt x="24" y="352" on="1"/>
        <pt x="24" y="402" on="1"/>
        <pt x="88" y="414" on="1"/>
        <pt x="88" y="437" on="1"/>
        <pt x="88" y="476" on="0"/>
        <pt x="127" y="554" on="0"/>
        <pt x="190" y="615" on="0"/>
        <pt x="271" y="654" on="0"/>
        <pt x="312" y="654" on="1"/>
        <pt x="336" y="654" on="0"/>
        <pt x="387" y="637" on="0"/>
        <pt x="409" y="624" on="1"/>
        <pt x="434" y="634" on="0"/>
        <pt x="484" y="651" on="0"/>
        <pt x="505" y="655" on="1"/>
        <pt x="523" y="638" on="1"/>
        <pt x="523" y="80" on="1"/>
        <pt x="523" y="71" on="0"/>
        <pt x="532" y="60" on="0"/>
        <pt x="540" y="59" on="1"/>
        <pt x="584" y="52" on="1"/>
        <pt x="584" y="0" on="1"/>
        <pt x="338" y="0" on="1"/>
        <pt x="338" y="52" on="1"/>
        <pt x="377" y="59" on="1"/>
        <pt x="385" y="60" on="0"/>
        <pt x="394" y="71" on="0"/>
        <pt x="394" y="79" on="1"/>
        <pt x="394" y="540" on="1"/>
        <pt x="374" y="546" on="0"/>
        <pt x="329" y="552" on="0"/>
        <pt x="305" y="552" on="1"/>
        <pt x="274" y="552" on="0"/>
        <pt x="213" y="519" on="0"/>
        <pt x="213" y="473" on="1"/>
        <pt x="213" y="413" on="1"/>
        <pt x="329" y="413" on="1"/>
        <pt x="329" y="343" on="1"/>
        <pt x="214" y="343" on="1"/>
        <pt x="214" y="79" on="1"/>
        <pt x="214" y="71" on="0"/>
        <pt x="223" y="61" on="0"/>
        <pt x="232" y="60" on="1"/>
      </contour>
    </TTGlyph>
    <TTGlyph name="five" xMin="21" yMin="-12" xMax="404" yMax="502">
      <contour>
        <pt x="55" y="107" on="1"/>
        <pt x="77" y="89" on="0"/>
        <pt x="134" y="66" on="0"/>
        <pt x="163" y="66" on="1"/>
        <pt x="206" y="66" on="0"/>
        <pt x="262" y="118" on="0"/>
        <pt x="262" y="162" on="1"/>
        <pt x="262" y="202" on="0"/>
        <pt x="217" y="250" on="0"/>
        <pt x="177" y="250" on="1"/>
        <pt x="156" y="250" on="0"/>
        <pt x="119" y="236" on="0"/>
        <pt x="100" y="227" on="1"/>
        <pt x="57" y="255" on="1"/>
        <pt x="77" y="502" on="1"/>
        <pt x="376" y="502" on="1"/>
        <pt x="365" y="408" on="1"/>
        <pt x="150" y="408" on="1"/>
        <pt x="134" y="294" on="1"/>
        <pt x="157" y="313" on="0"/>
        <pt x="214" y="328" on="0"/>
        <pt x="240" y="328" on="1"/>
        <pt x="314" y="328" on="0"/>
        <pt x="404" y="243" on="0"/>
        <pt x="404" y="172" on="1"/>
        <pt x="404" y="88" on="0"/>
        <pt x="282" y="-12" on="0"/>
        <pt x="195" y="-12" on="1"/>
        <pt x="141" y="-12" on="0"/>
        <pt x="48" y="27" on="0"/>
        <pt x="21" y="61" on="1"/>
      </contour>
    </TTGlyph>
    <TTGlyph name="five.tf" xMin="33" yMin="-12" xMax="416" yMax="502">
      <component glyphName="five" x="12" y="0" flags="0x4"/>
    </TTGlyph>
    <TTGlyph name="four" xMin="5" yMin="0" xMax="446" yMax="503">
      <contour>
        <pt x="446" y="88" on="1"/>
        <pt x="369" y="88" on="1"/>
        <pt x="369" y="0" on="1"/>
        <pt x="249" y="0" on="1"/>
        <pt x="249" y="88" on="1"/>
        <pt x="31" y="88" on="1"/>
        <pt x="5" y="144" on="1"/>
        <pt x="58" y="227" on="0"/>
        <pt x="153" y="406" on="0"/>
        <pt x="197" y="503" on="1"/>
        <pt x="311" y="503" on="1"/>
        <pt x="329" y="480" on="1"/>
        <pt x="265" y="355" on="0"/>
        <pt x="168" y="196" on="0"/>
        <pt x="109" y="150" on="1"/>
        <pt x="250" y="157" on="1"/>
        <pt x="263" y="268" on="1"/>
        <pt x="369" y="274" on="1"/>
        <pt x="369" y="163" on="1"/>
        <pt x="446" y="167" on="1"/>
      </contour>
    </TTGlyph>
    <TTGlyph name="four.dnom" xMin="20" yMin="0" xMax="358" yMax="365">
      <component glyphName="four.numr" x="-3" y="-227" flags="0x4"/>
    </TTGlyph>
    <TTGlyph name="four.numr" xMin="23" yMin="227" xMax="361" yMax="592">
      <component glyphName="foursuperior" x="6" y="0" flags="0x4"/>
    </TTGlyph>
    <TTGlyph name="four.tf" xMin="4" yMin="0" xMax="445" yMax="503">
      <component glyphName="four" x="-1" y="0" flags="0x4"/>
    </TTGlyph>
    <TTGlyph name="foursuperior" xMin="17" yMin="227" xMax="355" yMax="592">
      <contour>
        <pt x="355" y="295" on="1"/>
        <pt x="293" y="295" on="1"/>
        <pt x="293" y="227" on="1"/>
        <pt x="202" y="227" on="1"/>
        <pt x="202" y="295" on="1"/>
        <pt x="47" y="295" on="1"/>
        <pt x="17" y="335" on="1"/>
        <pt x="59" y="399" on="0"/>
        <pt x="130" y="529" on="0"/>
        <pt x="159" y="592" on="1"/>
        <pt x="247" y="592" on="1"/>
        <pt x="261" y="575" on="1"/>
        <pt x="210" y="476" on="0"/>
        <pt x="136" y="376" on="0"/>
        <pt x="102" y="346" on="1"/>
        <pt x="204" y="353" on="1"/>
        <pt x="220" y="438" on="1"/>
        <pt x="293" y="438" on="1"/>
        <pt x="293" y="358" on="1"/>
        <pt x="355" y="362" on="1"/>
      </contour>
    </TTGlyph>
    <TTGlyph name="fraction" xMin="-147" yMin="0" xMax="291" yMax="568">
      <contour>
        <pt x="-61" y="0" on="1"/>
        <pt x="-147" y="0" on="1"/>
        <pt x="205" y="568" on="1"/>
        <pt x="291" y="568" on="1"/>
      </contour>
    </TTGlyph>
    <TTGlyph name="g" xMin="23" yMin="-201" xMax="475" yMax="426">
      <contour>
        <pt x="167" y="282" on="1"/>
        <pt x="167" y="233" on="0"/>
        <pt x="196" y="189" on="0"/>
        <pt x="224" y="189" on="1"/>
        <pt x="254" y="189" on="0"/>
        <pt x="278" y="236" on="0"/>
        <pt x="278" y="282" on="1"/>
        <pt x="278" y="332" on="0"/>
        <pt x="252" y="375" on="0"/>
        <pt x="224" y="375" on="1"/>
        <pt x="196" y="375" on="0"/>
        <pt x="167" y="331" on="0"/>
      </contour>
      <contour>
        <pt x="459" y="-34" on="1"/>
        <pt x="459" y="-110" on="0"/>
        <pt x="323" y="-201" on="0"/>
        <pt x="209" y="-201" on="1"/>
        <pt x="110" y="-201" on="0"/>
        <pt x="23" y="-136" on="0"/>
        <pt x="23" y="-87" on="1"/>
        <pt x="23" y="-50" on="0"/>
        <pt x="68" y="-6" on="0"/>
        <pt x="106" y="7" on="1"/>
        <pt x="81" y="17" on="0"/>
        <pt x="59" y="54" on="0"/>
        <pt x="59" y="76" on="1"/>
        <pt x="59" y="104" on="0"/>
        <pt x="89" y="143" on="0"/>
        <pt x="114" y="154" on="1"/>
        <pt x="71" y="171" on="0"/>
        <pt x="36" y="236" on="0"/>
        <pt x="36" y="275" on="1"/>
        <pt x="36" y="345" on="0"/>
        <pt x="135" y="425" on="0"/>
        <pt x="230" y="425" on="1"/>
        <pt x="276" y="425" on="0"/>
        <pt x="346" y="405" on="0"/>
        <pt x="368" y="385" on="1"/>
        <pt x="381" y="404" on="0"/>
        <pt x="418" y="426" on="0"/>
        <pt x="437" y="426" on="1"/>
        <pt x="447" y="426" on="0"/>
        <pt x="468" y="421" on="0"/>
        <pt x="475" y="419" on="1"/>
        <pt x="475" y="330" on="1"/>
        <pt x="401" y="330" on="1"/>
        <pt x="403" y="320" on="0"/>
        <pt x="406" y="298" on="0"/>
        <pt x="406" y="286" on="1"/>
        <pt x="406" y="220" on="0"/>
        <pt x="317" y="137" on="0"/>
        <pt x="216" y="137" on="1"/>
        <pt x="200" y="137" on="0"/>
        <pt x="172" y="139" on="0"/>
        <pt x="160" y="141" on="1"/>
        <pt x="154" y="134" on="0"/>
        <pt x="150" y="120" on="0"/>
        <pt x="150" y="113" on="1"/>
        <pt x="150" y="94" on="0"/>
        <pt x="186" y="79" on="0"/>
        <pt x="229" y="79" on="1"/>
        <pt x="303" y="79" on="1"/>
        <pt x="378" y="79" on="0"/>
        <pt x="459" y="23" on="0"/>
      </contour>
      <contour>
        <pt x="231" y="-142" on="1"/>
        <pt x="275" y="-142" on="0"/>
        <pt x="324" y="-99" on="0"/>
        <pt x="324" y="-59" on="1"/>
        <pt x="324" y="-31" on="0"/>
        <pt x="295" y="-6" on="0"/>
        <pt x="260" y="-6" on="1"/>
        <pt x="185" y="-6" on="1"/>
        <pt x="180" y="-6" on="0"/>
        <pt x="169" y="-6" on="0"/>
        <pt x="165" y="-5" on="1"/>
        <pt x="158" y="-16" on="0"/>
        <pt x="148" y="-46" on="0"/>
        <pt x="148" y="-64" on="1"/>
        <pt x="148" y="-98" on="0"/>
        <pt x="185" y="-142" on="0"/>
      </contour>
    </TTGlyph>
    <TTGlyph name="gbreve" xMin="23" yMin="-201" xMax="475" yMax="621">
      <component glyphName="g" x="0" y="0" flags="0x204"/>
      <component glyphName="uni0306" x="223" y="0" flags="0x4"/>
    </TTGlyph>
    <TTGlyph name="gcircumflex" xMin="23" yMin="-201" xMax="475" yMax="647">
      <component glyphName="g" x="0" y="0" flags="0x204"/>
      <component glyphName="uni0302" x="223" y="0" flags="0x4"/>
    </TTGlyph>
    <TTGlyph name="gcommaaccent" xMin="23" yMin="-201" xMax="475" yMax="660">
      <component glyphName="g" x="0" y="0" flags="0x204"/>
      <component glyphName="uni0312" x="223" y="0" flags="0x4"/>
    </TTGlyph>
    <TTGlyph name="gdotaccent" xMin="23" yMin="-201" xMax="475" yMax="603">
      <component glyphName="g" x="0" y="0" flags="0x204"/>
      <component glyphName="uni0307" x="223" y="0" flags="0x4"/>
    </TTGlyph>
</ttFont>
